<svg width="32" height="32" viewBox="0 0 32 32" fill="none" xmlns="http://www.w3.org/2000/svg">
<circle cx="16" cy="16" r="15.5" stroke="#222222"/>
<path d="M6.55552 11.8889C6.40819 11.8889 6.2669 11.8303 6.16272 11.7262C6.05855 11.622 6.00001 11.4807 6 11.3334V9.11112C6.00033 8.81654 6.1175 8.53412 6.3258 8.32582C6.5341 8.11752 6.81651 8.00036 7.11109 8.00003H9.33333C9.40674 7.99932 9.47956 8.01316 9.54759 8.04076C9.61561 8.06836 9.6775 8.10917 9.72966 8.16083C9.78182 8.21248 9.82322 8.27397 9.85148 8.34172C9.87974 8.40948 9.89429 8.48216 9.89429 8.55557C9.89429 8.62898 9.87974 8.70167 9.85148 8.76942C9.82322 8.83718 9.78182 8.89866 9.72966 8.95032C9.6775 9.00198 9.61561 9.04279 9.54759 9.07039C9.47956 9.09799 9.40674 9.11183 9.33333 9.11112H7.11109V11.3334C7.11108 11.4807 7.05254 11.622 6.94835 11.7262C6.84416 11.8304 6.70286 11.8889 6.55552 11.8889Z" fill="#222222"/>
<path d="M24.8886 23.5555H22.6664C22.52 23.5541 22.3801 23.495 22.277 23.3909C22.174 23.2869 22.1162 23.1464 22.1162 23C22.1162 22.8536 22.174 22.7131 22.277 22.609C22.3801 22.505 22.52 22.4458 22.6664 22.4444H24.8886V20.2222C24.8901 20.0758 24.9492 19.9359 25.0532 19.8328C25.1573 19.7298 25.2978 19.672 25.4442 19.672C25.5906 19.672 25.7311 19.7298 25.8351 19.8328C25.9392 19.9359 25.9983 20.0758 25.9997 20.2222V22.4444C25.9994 22.739 25.8822 23.0214 25.6739 23.2297C25.4656 23.438 25.1832 23.5552 24.8886 23.5555Z" fill="#222222"/>
<path d="M25.4442 11.8889C25.2968 11.8889 25.1555 11.8303 25.0513 11.7261C24.9471 11.6219 24.8886 11.4806 24.8886 11.3333V9.11109H22.6664C22.52 9.10968 22.3801 9.05052 22.277 8.94649C22.174 8.84246 22.1162 8.70196 22.1162 8.55555C22.1162 8.40913 22.174 8.26864 22.277 8.1646C22.3801 8.06057 22.52 8.00142 22.6664 8H24.8886C25.1832 8.00033 25.4656 8.1175 25.6739 8.3258C25.8822 8.5341 25.9994 8.81651 25.9997 9.11109V11.3333C25.9997 11.4807 25.9412 11.622 25.837 11.7261C25.7328 11.8303 25.5915 11.8889 25.4442 11.8889Z" fill="#222222"/>
<path d="M9.33333 23.5555H7.11109C6.81651 23.5552 6.5341 23.438 6.3258 23.2297C6.1175 23.0214 6.00033 22.739 6 22.4444V20.2222C6.00142 20.0758 6.06057 19.9359 6.1646 19.8328C6.26864 19.7298 6.40913 19.672 6.55555 19.672C6.70196 19.672 6.84246 19.7298 6.94649 19.8328C7.05052 19.9359 7.10968 20.0758 7.11109 20.2222V22.4444H9.33333C9.40674 22.4437 9.47956 22.4576 9.54759 22.4852C9.61561 22.5128 9.6775 22.5536 9.72966 22.6052C9.78182 22.6569 9.82322 22.7184 9.85148 22.7861C9.87974 22.8539 9.89429 22.9266 9.89429 23C9.89429 23.0734 9.87974 23.1461 9.85148 23.2138C9.82322 23.2816 9.78182 23.3431 9.72966 23.3947C9.6775 23.4464 9.61561 23.4872 9.54759 23.5148C9.47956 23.5424 9.40674 23.5562 9.33333 23.5555Z" fill="#222222"/>
<path d="M13.9902 11.9312C13.8887 11.8892 13.777 11.8782 13.6692 11.8996C13.5614 11.921 13.4624 11.9739 13.3847 12.0517L10.0514 15.385C9.97371 15.4627 9.92079 15.5617 9.89935 15.6695C9.87791 15.7772 9.88891 15.8889 9.93096 15.9905C9.97302 16.092 10.0442 16.1788 10.1356 16.2398C10.227 16.3008 10.3344 16.3334 10.4443 16.3334H13.222V19.1112C13.222 19.2585 13.2806 19.3998 13.3848 19.504C13.489 19.6082 13.6303 19.6668 13.7776 19.6668C13.925 19.6668 14.0663 19.6082 14.1705 19.504C14.2746 19.3998 14.3332 19.2585 14.3332 19.1112V12.4445C14.3332 12.3346 14.3006 12.2272 14.2395 12.1359C14.1785 12.0445 14.0917 11.9733 13.9902 11.9312ZM13.222 15.2223H11.7855L13.222 13.7857V15.2223Z" fill="#222222"/>
<path d="M18.489 15.3539L20.8506 12.8236C20.9512 12.7158 21.0048 12.5726 20.9997 12.4253C20.9946 12.278 20.9312 12.1388 20.8234 12.0383C20.7157 11.9377 20.5724 11.8841 20.4251 11.8892C20.2779 11.8943 20.1387 11.9577 20.0381 12.0654L17.111 15.2017V12.4445C17.1125 12.3707 17.0992 12.2973 17.0719 12.2286C17.0446 12.16 17.0039 12.0975 16.9522 12.0447C16.9005 11.992 16.8388 11.9501 16.7707 11.9215C16.7026 11.8929 16.6294 11.8782 16.5556 11.8782C16.4817 11.8782 16.4086 11.8929 16.3405 11.9215C16.2724 11.9501 16.2107 11.992 16.1589 12.0447C16.1072 12.0975 16.0665 12.16 16.0393 12.2286C16.012 12.2973 15.9987 12.3707 16.0001 12.4445V19.1112C15.9994 19.1846 16.0132 19.2574 16.0408 19.3254C16.0684 19.3935 16.1092 19.4553 16.1609 19.5075C16.2126 19.5597 16.274 19.6011 16.3418 19.6293C16.4096 19.6576 16.4822 19.6721 16.5557 19.6721C16.6291 19.6721 16.7017 19.6576 16.7695 19.6293C16.8373 19.6011 16.8987 19.5597 16.9504 19.5075C17.0021 19.4553 17.0429 19.3935 17.0705 19.3254C17.0981 19.2574 17.1119 19.1846 17.1112 19.1112V16.8299L17.714 16.1841L19.9896 19.4299C20.0745 19.5498 20.2034 19.6313 20.3481 19.6564C20.4929 19.6815 20.6417 19.6482 20.762 19.5639C20.8823 19.4796 20.9643 19.351 20.99 19.2064C21.0158 19.0617 20.9832 18.9128 20.8994 18.7921L18.489 15.3539Z" fill="#222222"/>
</svg>
