<svg width="16" height="16" viewBox="0 0 16 16" fill="none" xmlns="http://www.w3.org/2000/svg">
<path fill-rule="evenodd" clip-rule="evenodd" d="M8 0C3.5875 0 0 3.5875 0 8C0 12.4125 3.5875 16 8 16C12.4125 16 16 12.4125 16 8C16 3.5875 12.4125 0 8 0Z" fill="#2FACD6"/>
<path fill-rule="evenodd" clip-rule="evenodd" d="M11.8685 5.30342C12.0622 5.49717 12.0622 5.81592 11.8685 6.00967L7.18098 10.6972C7.08411 10.794 6.95598 10.844 6.82786 10.844C6.69973 10.844 6.57161 10.794 6.47473 10.6972L4.13098 8.35342C3.93723 8.15967 3.93723 7.84092 4.13098 7.64717C4.32473 7.45342 4.64348 7.45342 4.83723 7.64717L6.82786 9.63779L11.1622 5.30342C11.356 5.10654 11.6747 5.10654 11.8685 5.30342Z" fill="white"/>
</svg>
