<svg xmlns="http://www.w3.org/2000/svg" xmlns:xlink="http://www.w3.org/1999/xlink" width="24" height="24" viewBox="0 0 24 24">
  <defs>
    <clipPath id="clip-path">
      <rect id="Rectangle_2114" data-name="Rectangle 2114" width="24" height="24" transform="translate(232 97)" fill="#555" stroke="#707070" stroke-width="1"/>
    </clipPath>
  </defs>
  <g id="Group_345" data-name="Group 345" transform="translate(-232 -97)">
    <path id="Path_5498" data-name="Path 5498" d="M53.487,77.114c-1.226.151-2.453.189-3.686.377-3,.458-6.765,3.214-6.782,6.521-.021,4.319,4.9,7.123,7.647,8,1.751.561,2.776,2.243,4.343,3.105a4.537,4.537,0,0,0,3.893-.093,5.582,5.582,0,0,0,2.9-6.8c-1.136-3.779,2.542-5.1,1.037-8.36-1.436-3.107-4.611-3.824-7.683-3.056A13.751,13.751,0,0,1,53.487,77.114Z" transform="translate(192.794 25.469)" fill="rgba(56,128,255,0.16)" style="mix-blend-mode: multiply;isolation: isolate"/>
    <g id="Mask_Group_64" data-name="Mask Group 64" clip-path="url(#clip-path)">
      <g id="planting" transform="translate(229.331 94.298)">
        <g id="Group_121" data-name="Group 121">
          <g id="Group_115" data-name="Group 115">
            <path id="Path_5442" data-name="Path 5442" d="M22.395,19.262a.367.367,0,0,1-.287-.137.379.379,0,0,1,.046-.527l2.325-1.934a.775.775,0,0,0,.28-.677.766.766,0,0,0-.4-.612L20.773,13.4a.785.785,0,0,0-1.159.586l-.475,3.588a.378.378,0,0,1-.749-.1l.475-3.588a1.546,1.546,0,0,1,.834-1.172,1.51,1.51,0,0,1,1.433.026l3.582,1.973a1.536,1.536,0,0,1,.241,2.527l-2.325,1.934A.347.347,0,0,1,22.395,19.262Z" fill="#555" fill-rule="evenodd"/>
            <path id="Path_5443" data-name="Path 5443" d="M24.192,13.193a.378.378,0,0,1-.182-.046L22.831,12.5a.409.409,0,0,1-.182-.221.4.4,0,0,1,.033-.287L24.7,8.329a1.049,1.049,0,1,1,1.836,1.016L24.518,13a.37.37,0,0,1-.326.189Zm-.664-1.179.521.287,1.836-3.334a.309.309,0,0,0,.026-.228.276.276,0,0,0-.143-.176.309.309,0,0,0-.228-.026.276.276,0,0,0-.176.143Z" fill="#555" fill-rule="evenodd"/>
            <path id="Path_5444" data-name="Path 5444" d="M22.746,14.431a.378.378,0,0,1-.182-.046.374.374,0,0,1-.15-.508l.86-1.563a.374.374,0,1,1,.658.358l-.86,1.563A.37.37,0,0,1,22.746,14.431Z" fill="#555" fill-rule="evenodd"/>
          </g>
          <g id="Group_120" data-name="Group 120">
            <g id="Group_118" data-name="Group 118">
              <g id="Group_116" data-name="Group 116">
                <path id="Path_5445" data-name="Path 5445" d="M10.3,11.6a2.8,2.8,0,0,1-1.517-.4,2.565,2.565,0,0,1-1.061-1.153,4.689,4.689,0,0,1-.189-.612,2.741,2.741,0,0,0-.078-.274,1.47,1.47,0,0,0-.58-.827c-.007-.007-.013-.007-.02-.013a2.277,2.277,0,0,0-.521-.306.371.371,0,0,1-.228-.254.36.36,0,0,1,.072-.332C7.352,6,9.774,6.675,9.924,6.714a3.4,3.4,0,0,1,2.527,1.869,3.109,3.109,0,0,1-.378,2.566.32.32,0,0,1-.169.137,4.406,4.406,0,0,1-1.6.313ZM7.326,7.73a2.229,2.229,0,0,1,.847,1.211c.033.1.059.2.085.3a3.671,3.671,0,0,0,.156.514,1.851,1.851,0,0,0,.768.8,2.934,2.934,0,0,0,2.318.078,2.283,2.283,0,0,0,.241-1.8A2.71,2.71,0,0,0,9.722,7.43H9.716a3.859,3.859,0,0,0-2.592.143c.1.078.176.137.2.156Z" fill="#555" fill-rule="evenodd"/>
                <path id="Path_5446" data-name="Path 5446" d="M12.842,16.254a.378.378,0,0,1-.371-.326c-.176-1.276-.358-2.37-.456-2.781-.176-.729-.313-1.114-.313-1.12s-.007-.02-.013-.033a5.159,5.159,0,0,0-.352-.853c0-.007-.007-.013-.007-.02l-.007-.007A6.685,6.685,0,0,0,9.781,9.143a.374.374,0,1,1,.488-.567A7.506,7.506,0,0,1,12,10.771l.013.02V10.8a6.209,6.209,0,0,1,.4.983c.026.078.169.482.339,1.185.124.527.326,1.817.469,2.852a.376.376,0,0,1-.319.423.107.107,0,0,1-.059.013Z" fill="#555" fill-rule="evenodd"/>
              </g>
              <g id="Group_117" data-name="Group 117">
                <path id="Path_5447" data-name="Path 5447" d="M16.957,11.6a4.594,4.594,0,0,1-1.6-.306.353.353,0,0,1-.169-.137,3.117,3.117,0,0,1-.378-2.566A3.4,3.4,0,0,1,17.335,6.72c.15-.046,2.572-.716,3.744.71a.36.36,0,0,1,.072.332.372.372,0,0,1-.228.254,1.742,1.742,0,0,0-.521.306c-.007.007-.013.007-.02.013a1.47,1.47,0,0,0-.58.827l-.078.274a4.69,4.69,0,0,1-.189.612A2.565,2.565,0,0,1,18.474,11.2a2.88,2.88,0,0,1-1.517.4Zm-1.2-.957a2.934,2.934,0,0,0,2.318-.078,1.886,1.886,0,0,0,.768-.8A3.671,3.671,0,0,0,19,9.247c.026-.1.052-.2.085-.3a2.206,2.206,0,0,1,.847-1.211c.026-.02.1-.078.2-.15a2.62,2.62,0,0,0-1.407-.313,5.367,5.367,0,0,0-1.185.163H17.53a2.726,2.726,0,0,0-2.019,1.407,2.283,2.283,0,0,0,.241,1.8Z" fill="#555" fill-rule="evenodd"/>
                <path id="Path_5448" data-name="Path 5448" d="M14.417,16.254a.143.143,0,0,1-.052-.007.367.367,0,0,1-.319-.423c.143-1.035.339-2.325.469-2.852a10.692,10.692,0,0,1,.339-1.185,6.209,6.209,0,0,1,.4-.983V10.8l.013-.026A7.465,7.465,0,0,1,16.99,8.576a.374.374,0,1,1,.488.567,6.6,6.6,0,0,0-1.543,1.973l-.007.007c0,.007-.007.013-.007.02A4.686,4.686,0,0,0,15.57,12c0,.013-.007.02-.013.033a10.5,10.5,0,0,0-.313,1.12c-.1.41-.28,1.5-.456,2.781A.372.372,0,0,1,14.417,16.254Z" fill="#555" fill-rule="evenodd"/>
              </g>
            </g>
            <g id="Group_119" data-name="Group 119">
              <path id="Path_5449" data-name="Path 5449" d="M24.211,22.883H3.041a.371.371,0,0,1-.274-.124.386.386,0,0,1-.1-.287,5.816,5.816,0,0,1,5.8-5.327,6.032,6.032,0,0,1,.97.078,5.722,5.722,0,0,1,1.771-1.25,5.816,5.816,0,0,1,6.59,1.25,6.032,6.032,0,0,1,.97-.078,5.816,5.816,0,0,1,5.8,5.327.386.386,0,0,1-.1.287.328.328,0,0,1-.267.124ZM3.464,22.134H23.788a5.1,5.1,0,0,0-5.008-4.239,4.925,4.925,0,0,0-1.029.1.372.372,0,0,1-.352-.117,5.071,5.071,0,0,0-7.541,0A.377.377,0,0,1,9.507,18a4.97,4.97,0,0,0-1.029-.1,5.109,5.109,0,0,0-5.014,4.239Z" fill="#555" fill-rule="evenodd"/>
              <path id="Path_5450" data-name="Path 5450" d="M21.19,20.741a.377.377,0,0,1-.254-.1,3.176,3.176,0,0,0-2.155-.84.378.378,0,1,1,0-.755,3.924,3.924,0,0,1,2.663,1.042.378.378,0,0,1-.254.651Z" fill="#555" fill-rule="evenodd"/>
              <path id="Path_5451" data-name="Path 5451" d="M16.26,19.275a.371.371,0,0,1-.28-.124,3.174,3.174,0,0,0-4.715,0,.373.373,0,0,1-.554-.5,3.917,3.917,0,0,1,5.822,0,.378.378,0,0,1-.026.527A.324.324,0,0,1,16.26,19.275Z" fill="#555" fill-rule="evenodd"/>
              <path id="Path_5452" data-name="Path 5452" d="M6.063,20.741a.349.349,0,0,1-.274-.124.372.372,0,0,1,.02-.527,3.924,3.924,0,0,1,2.663-1.042.378.378,0,1,1,0,.755,3.188,3.188,0,0,0-2.155.84.377.377,0,0,1-.254.1Z" fill="#555" fill-rule="evenodd"/>
            </g>
          </g>
        </g>
      </g>
    </g>
  </g>
</svg>
