<svg xmlns="http://www.w3.org/2000/svg" xmlns:xlink="http://www.w3.org/1999/xlink" width="24" height="24" viewBox="0 0 24 24">
  <defs>
    <clipPath id="clip-path">
      <rect id="Rectangle_2280" data-name="Rectangle 2280" width="24" height="24" transform="translate(1130 97)" fill="#555" stroke="#707070" stroke-width="1"/>
    </clipPath>
  </defs>
  <g id="Mask_Group_85" data-name="Mask Group 85" transform="translate(-1130 -97)" clip-path="url(#clip-path)">
    <g id="sun" transform="translate(1130 97)">
      <g id="Group_162" data-name="Group 162">
        <g id="Group_161" data-name="Group 161">
          <g id="Group_160" data-name="Group 160">
            <path id="Path_5525" data-name="Path 5525" d="M12.716,24a.516.516,0,0,1-.176-.031,4.394,4.394,0,0,1-1.649-1.207,4.767,4.767,0,0,1-1.123-2.83,3.454,3.454,0,0,1-.716.462,2.5,2.5,0,0,0-1.563,1.961.516.516,0,0,1-.907.329,4.475,4.475,0,0,1-.86-1.873,4.792,4.792,0,0,1,.424-3.1,3.636,3.636,0,0,1-.928.045,2.5,2.5,0,0,0-2.34.9.516.516,0,0,1-.949-.173,4.436,4.436,0,0,1,.2-2.043A4.779,4.779,0,0,1,4.048,14a3.554,3.554,0,0,1-.812-.424A2.5,2.5,0,0,0,.762,13.17a.516.516,0,0,1-.73-.631,4.4,4.4,0,0,1,1.21-1.648A4.789,4.789,0,0,1,4.12,9.765,3.616,3.616,0,0,1,3.627,9,2.5,2.5,0,0,0,1.676,7.42a.516.516,0,0,1-.321-.911,4.46,4.46,0,0,1,1.879-.832,4.829,4.829,0,0,1,3.1.46,3.682,3.682,0,0,1-.043-.957A2.5,2.5,0,0,0,5.4,2.833a.516.516,0,0,1,.181-.948,4.4,4.4,0,0,1,2.032.223,4.784,4.784,0,0,1,2.4,1.91,3.459,3.459,0,0,1,.41-.782A2.5,2.5,0,0,0,10.831.762a.516.516,0,0,1,.631-.73,4.405,4.405,0,0,1,1.649,1.21A4.778,4.778,0,0,1,14.232,4.07a3.436,3.436,0,0,1,.716-.463,2.5,2.5,0,0,0,1.563-1.961.516.516,0,0,1,.907-.329,4.474,4.474,0,0,1,.86,1.873,4.792,4.792,0,0,1-.424,3.1,3.636,3.636,0,0,1,.928-.045,2.5,2.5,0,0,0,2.34-.9.516.516,0,0,1,.949.173,4.436,4.436,0,0,1-.2,2.043A4.779,4.779,0,0,1,19.952,10a3.552,3.552,0,0,1,.812.424,2.5,2.5,0,0,0,2.475.405.516.516,0,0,1,.731.629,4.434,4.434,0,0,1-1.209,1.659,4.774,4.774,0,0,1-2.866,1.136,3.541,3.541,0,0,1,.479.75,2.5,2.5,0,0,0,1.951,1.576.516.516,0,0,1,.323.909,4.474,4.474,0,0,1-1.878.848,4.792,4.792,0,0,1-3.1-.445,3.635,3.635,0,0,1,.039.928,2.5,2.5,0,0,0,.888,2.346.516.516,0,0,1-.179.948,4.4,4.4,0,0,1-2.032-.219,4.773,4.773,0,0,1-2.4-1.909,3.462,3.462,0,0,1-.408.777,2.5,2.5,0,0,0-.405,2.475.516.516,0,0,1-.453.762Zm-2.345-6.174a.516.516,0,0,1,.508.6,4.086,4.086,0,0,0,1.09,3.969,3.9,3.9,0,0,1,.762-2.23,3.034,3.034,0,0,0,.479-1.795.516.516,0,0,1,1-.224,4.242,4.242,0,0,0,2.517,2.771,3.554,3.554,0,0,0,.412.116,3.9,3.9,0,0,1-.454-2.309,3.238,3.238,0,0,0-.462-1.831.516.516,0,0,1,.759-.681,4.079,4.079,0,0,0,4.026,1,3.9,3.9,0,0,1-1.567-1.769,3.154,3.154,0,0,0-1.324-1.327.516.516,0,0,1,.308-.974,4.23,4.23,0,0,0,3.66-.8,3.584,3.584,0,0,0,.315-.309,3.9,3.9,0,0,1-2.231-.762,3.152,3.152,0,0,0-1.81-.5.516.516,0,0,1-.218-1,4.229,4.229,0,0,0,2.75-2.544,3.581,3.581,0,0,0,.115-.427,3.9,3.9,0,0,1-2.31.472,3.247,3.247,0,0,0-1.826.473.516.516,0,0,1-.688-.753,4.079,4.079,0,0,0,.968-4.033,3.9,3.9,0,0,1-1.758,1.579A3.027,3.027,0,0,0,14.1,5.874a.516.516,0,0,1-.979-.3A4.1,4.1,0,0,0,12.031,1.6a3.9,3.9,0,0,1-.762,2.228,3.051,3.051,0,0,0-.479,1.8.516.516,0,0,1-1,.224A4.1,4.1,0,0,0,6.862,2.962a3.9,3.9,0,0,1,.455,2.31,3.386,3.386,0,0,0,.464,1.863.516.516,0,0,1-.762.677A4.27,4.27,0,0,0,3.431,6.688a3.614,3.614,0,0,0-.422.109A3.906,3.906,0,0,1,4.56,8.557,3.269,3.269,0,0,0,5.894,9.91a.516.516,0,0,1-.318.97A4.1,4.1,0,0,0,1.6,11.969a3.9,3.9,0,0,1,2.227.762,3.152,3.152,0,0,0,1.81.5.516.516,0,0,1,.218,1,4.229,4.229,0,0,0-2.75,2.544,3.581,3.581,0,0,0-.115.427,3.9,3.9,0,0,1,2.31-.472,3.251,3.251,0,0,0,1.826-.473.516.516,0,0,1,.688.753,4.079,4.079,0,0,0-.968,4.033,3.9,3.9,0,0,1,1.758-1.579A3.036,3.036,0,0,0,9.9,18.133a.516.516,0,0,1,.472-.307Z" fill="#555"/>
          </g>
        </g>
      </g>
      <g id="Group_163" data-name="Group 163">
        <path id="Path_5526" data-name="Path 5526" d="M12,16.149A4.149,4.149,0,1,1,16.149,12,4.154,4.154,0,0,1,12,16.149Zm0-7.268A3.118,3.118,0,1,0,15.118,12,3.122,3.122,0,0,0,12,8.882Z" fill="#555"/>
      </g>
    </g>
  </g>
</svg>
