<svg xmlns="http://www.w3.org/2000/svg" xmlns:xlink="http://www.w3.org/1999/xlink" width="24.813" height="25" viewBox="0 0 24.813 25">
  <defs>
    <clipPath id="clip-path">
      <rect id="Rectangle_2113" data-name="Rectangle 2113" width="23.813" height="24" fill="#fff" stroke="#555" stroke-width="1"/>
    </clipPath>
  </defs>
  <g id="Group_344" data-name="Group 344" transform="translate(-150.5 -96.5)">
    <path id="Path_5441" data-name="Path 5441" d="M53.487,77.114c-1.226.151-2.453.189-3.686.377-3,.458-6.765,3.214-6.782,6.521-.021,4.319,4.9,7.123,7.647,8,1.751.561,2.776,2.243,4.343,3.105a4.537,4.537,0,0,0,3.893-.093,5.582,5.582,0,0,0,2.9-6.8c-1.136-3.779,2.542-5.1,1.037-8.36-1.436-3.107-4.611-3.824-7.683-3.056a13.752,13.752,0,0,1-1.669.306Z" transform="translate(111.793 25.469)" fill="#dfebff" style="mix-blend-mode: multiply;isolation: isolate"/>
  </g>
</svg>
