<svg width="14" height="12" viewBox="0 0 14 12" fill="none" xmlns="http://www.w3.org/2000/svg">
<path d="M0.175 5.425L5.425 0.175C5.65833 -0.0583333 6.00833 -0.0583333 6.24167 0.175C6.475 0.408333 6.475 0.758333 6.24167 0.991666L1.98333 5.25H13.4167C13.7667 5.25 14 5.48333 14 5.83333C14 6.18333 13.7667 6.41667 13.4167 6.41667H1.98333L6.24167 10.675C6.475 10.9083 6.475 11.2583 6.24167 11.4917C6.00833 11.725 5.65833 11.725 5.425 11.4917L0.175 6.24167C0.0583333 6.125 0 6.00833 0 5.83333C0 5.65833 0.0583333 5.54167 0.175 5.425Z" fill="#B6B6B7"/>
</svg>
