<svg width="24" height="24" viewBox="0 0 24 24" fill="none" xmlns="http://www.w3.org/2000/svg">
<circle cx="12" cy="12" r="12" fill="#F7F7F7"/>
<path d="M13.0995 12.0001L17.7722 7.32729C18.0763 7.02334 18.0763 6.53191 17.7722 6.22796C17.4682 5.92401 16.9768 5.92401 16.6729 6.22796L12.0001 10.9008L7.3274 6.22796C7.02331 5.92401 6.53201 5.92401 6.22807 6.22796C5.92398 6.53191 5.92398 7.02334 6.22807 7.32729L10.9007 12.0001L6.22807 16.6729C5.92398 16.9768 5.92398 17.4683 6.22807 17.7722C6.37954 17.9238 6.57871 18 6.77773 18C6.97676 18 7.17578 17.9238 7.3274 17.7722L12.0001 13.0994L16.6729 17.7722C16.8245 17.9238 17.0235 18 17.2225 18C17.4215 18 17.6206 17.9238 17.7722 17.7722C18.0763 17.4683 18.0763 16.9768 17.7722 16.6729L13.0995 12.0001Z" fill="black"/>
</svg>
