<svg width="12" height="12" viewBox="0 0 12 12" fill="none" xmlns="http://www.w3.org/2000/svg">
<circle cx="6" cy="6" r="6" fill="#121212"/>
<path d="M3.29302 9C3.23507 9.00001 3.17842 8.98283 3.13023 8.95064C3.08204 8.91845 3.04448 8.87269 3.0223 8.81915C3.00013 8.76561 2.99432 8.7067 3.00563 8.64986C3.01694 8.59303 3.04485 8.54082 3.08584 8.49985L8.49986 3.08582C8.55481 3.03087 8.62934 3 8.70705 3C8.78476 3 8.85929 3.03087 8.91424 3.08582C8.96919 3.14077 9.00006 3.2153 9.00006 3.29301C9.00006 3.37072 8.96919 3.44524 8.91424 3.50019L3.50021 8.91422C3.47302 8.94146 3.44073 8.96306 3.40517 8.97778C3.36962 8.9925 3.3315 9.00005 3.29302 9Z" fill="white"/>
<path d="M8.70703 9C8.66855 9.00005 8.63044 8.9925 8.59488 8.97778C8.55933 8.96306 8.52703 8.94146 8.49985 8.91422L3.08582 3.50019C3.03087 3.44524 3 3.37072 3 3.29301C3 3.2153 3.03087 3.14077 3.08582 3.08582C3.14077 3.03087 3.2153 3 3.29301 3C3.37072 3 3.44524 3.03087 3.50019 3.08582L8.91422 8.49985C8.9552 8.54082 8.98311 8.59303 8.99442 8.64986C9.00573 8.7067 8.99993 8.76561 8.97775 8.81915C8.95557 8.87269 8.91801 8.91845 8.86983 8.95064C8.82164 8.98283 8.76499 9.00001 8.70703 9Z" fill="white"/>
</svg>
