<svg width="16" height="16" viewBox="0 0 16 16" fill="none" xmlns="http://www.w3.org/2000/svg">
<path d="M12.5168 16H3.4769C1.56461 16 0 14.4571 0 12.5714V12.4571L0.34769 3.31429C0.405638 1.42857 1.97024 0 3.82459 0H12.1692C14.0235 0 15.5881 1.42857 15.6461 3.31429L15.9937 12.4571C16.0517 13.3714 15.704 14.2286 15.0666 14.9143C14.4291 15.6 13.5599 16 12.6327 16C12.6327 16 12.5748 16 12.5168 16ZM3.82459 1.14286C2.54973 1.14286 1.56461 2.11429 1.50666 3.31429L1.15897 12.5714C1.15897 13.8286 2.20204 14.8571 3.4769 14.8571H12.6327C13.2702 14.8571 13.8497 14.5714 14.2553 14.1143C14.6609 13.6571 14.8927 13.0857 14.8927 12.4571L14.545 3.31429C14.4871 2.05714 13.502 1.14286 12.2271 1.14286H3.82459Z" fill="white"/>
<path d="M7.99682 6.85707C5.73683 6.85707 3.94043 5.08564 3.94043 2.85707C3.94043 2.51422 4.17222 2.28564 4.51991 2.28564C4.8676 2.28564 5.0994 2.51422 5.0994 2.85707C5.0994 4.45707 6.37426 5.71422 7.99682 5.71422C9.61937 5.71422 10.8942 4.45707 10.8942 2.85707C10.8942 2.51422 11.126 2.28564 11.4737 2.28564C11.8214 2.28564 12.0532 2.51422 12.0532 2.85707C12.0532 5.08564 10.2568 6.85707 7.99682 6.85707Z" fill="white"/>
</svg>
