<svg width="16" height="16" viewBox="0 0 16 16" fill="none" xmlns="http://www.w3.org/2000/svg">
<path d="M15.5551 4.11029C15.2297 3.67715 14.7337 3.42857 14.1927 3.42857H3.89489L3.56382 1.43257C3.42673 0.602286 2.71908 0 1.8806 0H0.568846C0.254274 0 0 0.256 0 0.571429C0 0.886858 0.254274 1.14286 0.568846 1.14286H1.8806C2.15991 1.14286 2.39598 1.34343 2.44149 1.62057L2.85049 4.08515L3.84028 11.1183C3.96998 11.9606 4.67876 12.5714 5.52691 12.5714H12.5681C13.3264 12.5714 14.001 12.06 14.2092 11.328L15.8344 5.61372C15.9823 5.09143 15.8805 4.54343 15.5551 4.11029ZM14.7399 5.3L13.1147 11.0143C13.0459 11.2583 12.8206 11.4292 12.5681 11.4292H5.52691C5.24419 11.4292 5.00812 11.2252 4.96602 10.9514L4.06839 4.572H14.1927C14.3725 4.572 14.538 4.65486 14.6472 4.79943C14.7553 4.944 14.7894 5.12629 14.7399 5.3Z" fill="#2FACD6"/>
<path d="M4.55078 14.8571C4.55078 14.2257 5.0599 13.7142 5.68847 13.7142C6.31705 13.7142 6.82616 14.2257 6.82616 14.8571C6.82616 15.4885 6.31705 15.9999 5.68847 15.9999C5.0599 15.9999 4.55078 15.4885 4.55078 14.8571ZM12.5146 15.9999C13.1432 15.9999 13.6523 15.4885 13.6523 14.8571C13.6523 14.2257 13.1432 13.7142 12.5146 13.7142C11.886 13.7142 11.3769 14.2257 11.3769 14.8571C11.3769 15.4885 11.886 15.9999 12.5146 15.9999Z" fill="#2FACD6"/>
</svg>
