<svg xmlns="http://www.w3.org/2000/svg" xmlns:xlink="http://www.w3.org/1999/xlink" width="16" height="16" viewBox="0 0 16 16">
  <defs>
    <clipPath id="clip-path">
      <rect id="Rectangle_2469" data-name="Rectangle 2469" width="16" height="16" transform="translate(503 1526)" fill="#fff" stroke="#707070" stroke-width="1"/>
    </clipPath>
  </defs>
  <g id="Mask_Group_162" data-name="Mask Group 162" transform="translate(-503 -1526)" clip-path="url(#clip-path)">
    <g id="grab" transform="translate(503 1526)">
      <path id="Path_39122" data-name="Path 39122" d="M4,6.222a1.333,1.333,0,0,0-2.667,0v.444a10.407,10.407,0,0,0,2.222,6.24A6.46,6.46,0,0,0,8.64,15.556a6.02,6.02,0,0,0,6.027-6.027V3.556a1.333,1.333,0,1,0-2.667,0V2.667a1.333,1.333,0,1,0-2.667,0V1.778a1.333,1.333,0,1,0-2.667,0v.889A1.333,1.333,0,1,0,4,2.667V6.222Z" fill="#fff"/>
      <path id="Path_39123" data-name="Path 39123" d="M1.778,6.222a.889.889,0,1,1,1.778,0V7.556a.444.444,0,0,0,.889,0V2.667a.889.889,0,0,1,1.778,0V4.889a.444.444,0,0,0,.889,0V1.778a.889.889,0,0,1,1.778,0V4.889a.444.444,0,1,0,.889,0V2.667a.889.889,0,0,1,1.778,0V4.889a.444.444,0,1,0,.889,0V3.556a.889.889,0,1,1,1.778,0V9.529A5.588,5.588,0,0,1,8.64,15.111a5.985,5.985,0,0,1-4.723-2.463,9.935,9.935,0,0,1-2.14-5.981V6.222ZM8.64,16a6.479,6.479,0,0,0,6.471-6.471V3.556a1.776,1.776,0,0,0-2.766-1.476A1.782,1.782,0,0,0,10.667.889a1.763,1.763,0,0,0-.988.3,1.778,1.778,0,0,0-3.356,0A1.776,1.776,0,0,0,3.556,2.667V4.684A1.776,1.776,0,0,0,.889,6.222v.444a10.908,10.908,0,0,0,2.3,6.5A6.9,6.9,0,0,0,8.64,16Z" fill="#ff8b27"/>
      <path id="Path_39124" data-name="Path 39124" d="M8.64,16a6.478,6.478,0,0,0,6.471-6.471V7.751a.444.444,0,1,0-.889,0A5.588,5.588,0,0,1,8.64,13.333,5.983,5.983,0,0,1,3.918,10.87,10.451,10.451,0,0,1,1.827,5.831a.444.444,0,0,0-.405-.4.449.449,0,0,0-.466.325,1.771,1.771,0,0,0-.067.463v.444a10.9,10.9,0,0,0,2.3,6.5A6.9,6.9,0,0,0,8.64,16" opacity="0.12"/>
    </g>
  </g>
</svg>
