<svg xmlns="http://www.w3.org/2000/svg" width="124" height="97.94" viewBox="0 0 124 97.94">
  <g id="Group_335" data-name="Group 335" transform="translate(-203.692 -150.862)">
    <g id="Group_288" data-name="Group 288" transform="translate(236 193.329)">
      <g id="Group_285" data-name="Group 285">
        <g id="Ellipse_2" data-name="Ellipse 2" fill="#fff" stroke="#3880ff" stroke-width="2">
          <circle cx="27.737" cy="27.737" r="27.737" stroke="none"/>
          <circle cx="27.737" cy="27.737" r="26.737" fill="none"/>
        </g>
      </g>
      <g id="Group_287" data-name="Group 287" transform="translate(15.883 15.968)">
        <g id="Group_286" data-name="Group 286">
          <path id="Path_172" data-name="Path 172" d="M274.483,205.512c.357.29-4.854,7.3-11.639,15.652l-4.109,4.984-.562.682-.6-.622c-5.3-5.458-8.914-9.512-8.657-9.768s4.309,3.361,9.767,8.657l-1.164.061,4.034-5.044C268.336,211.761,274.126,205.223,274.483,205.512Z" transform="translate(-248.901 -205.502)" fill="#3880ff" stroke="#3880ff" stroke-width="1"/>
        </g>
      </g>
    </g>
    <g id="Group_289" data-name="Group 289" transform="translate(299.015 207.22)">
      <path id="Path_173" data-name="Path 173" d="M297.491,206.176c-.828-2.934-4.636-2.65-4.636-2.65l.1,2.041c2.2-.381,3.57,2.2,3.57,2.2Z" transform="translate(-292.855 -203.519)" fill="#fcbc05"/>
    </g>
    <g id="Group_290" data-name="Group 290" transform="translate(217.897 213.393)">
      <path id="Path_174" data-name="Path 174" d="M221.659,211.943c-.827-2.934-4.635-2.65-4.635-2.65l.1,2.04c2.2-.38,3.569,2.2,3.569,2.2Z" transform="translate(-217.024 -209.286)" fill="#fa3a13"/>
    </g>
    <g id="Group_291" data-name="Group 291" transform="translate(266.005 170.031)">
      <path id="Path_175" data-name="Path 175" d="M263.219,174.065c4.418,1.34,7.167-3.761,7.167-3.761l-2.687-1.533c-1.315,3.124-5.726,2.763-5.726,2.763Z" transform="translate(-261.972 -168.771)" fill="#e0e0e0"/>
    </g>
    <g id="Group_292" data-name="Group 292" transform="translate(240.34 180.849)">
      <path id="Path_176" data-name="Path 176" d="M240.274,178.881c-2.055.219-2.3,2.8-2.3,2.8l1.377.163c0-1.519,1.881-2.14,1.881-2.14Z" transform="translate(-237.973 -178.881)" fill="#fcbc05"/>
    </g>
    <g id="Group_293" data-name="Group 293" transform="translate(325.026 196.872)">
      <path id="Path_177" data-name="Path 177" d="M319.831,196.778c.3-2.048-2.141-2.927-2.141-2.927l-.5,1.294c1.47.374,1.6,2.355,1.6,2.355Z" transform="translate(-317.191 -193.851)" fill="#e0e0e0"/>
    </g>
    <g id="Group_294" data-name="Group 294" transform="translate(252.035 150.862)">
      <path id="Path_178" data-name="Path 178" d="M251.553,153.79c.3-2.048-2.142-2.928-2.142-2.928l-.5,1.294c1.469.375,1.6,2.355,1.6,2.355Z" transform="translate(-248.913 -150.862)" fill="#fa3a13"/>
    </g>
    <g id="Group_295" data-name="Group 295" transform="translate(203.692 185.595)">
      <path id="Path_179" data-name="Path 179" d="M203.714,184.662c-.37,3.211,3.88,3.989,3.88,3.989l.767-2.1c-2.55-.231-2.917-3.237-2.917-3.237Z" transform="translate(-203.692 -183.313)" fill="#39b136"/>
    </g>
    <g id="Group_296" data-name="Group 296" transform="translate(297.792 172.485)">
      <path id="Path_180" data-name="Path 180" d="M292.523,173.843c2.065.118,2.724-2.391,2.724-2.391l-1.331-.385c-.244,1.5-2.2,1.807-2.2,1.807Z" transform="translate(-291.714 -171.066)" fill="#fa3a13"/>
    </g>
    <g id="Group_315" data-name="Group 315" transform="translate(306.557 179.075)">
      <g id="Group_301" data-name="Group 301">
        <g id="Group_298" data-name="Group 298" transform="translate(0 4.475)">
          <g id="Group_297" data-name="Group 297">
            <path id="Path_181" data-name="Path 181" d="M303.267,181.578a8.755,8.755,0,0,1-3.409,0,8.812,8.812,0,0,1,3.409,0Z" transform="translate(-299.858 -181.412)" fill="#e0e0e0"/>
          </g>
        </g>
        <g id="Group_300" data-name="Group 300" transform="translate(5.053)">
          <g id="Group_299" data-name="Group 299">
            <path id="Path_182" data-name="Path 182" d="M304.766,177.217a9.1,9.1,0,0,1,0,3.462,9.1,9.1,0,0,1,0-3.462Z" transform="translate(-304.6 -177.217)" fill="#e0e0e0"/>
          </g>
        </g>
      </g>
      <g id="Group_306" data-name="Group 306" transform="translate(5.17 4.364)">
        <g id="Group_303" data-name="Group 303" transform="translate(1.977)">
          <g id="Group_302" data-name="Group 302">
            <path id="Path_183" data-name="Path 183" d="M306.565,181.474a8.812,8.812,0,0,1,3.409,0,8.812,8.812,0,0,1-3.409,0Z" transform="translate(-306.565 -181.308)" fill="#e0e0e0"/>
          </g>
        </g>
        <g id="Group_305" data-name="Group 305" transform="translate(0 1.345)">
          <g id="Group_304" data-name="Group 304">
            <path id="Path_184" data-name="Path 184" d="M304.876,186.031a9.1,9.1,0,0,1,0-3.462,9.1,9.1,0,0,1,0,3.462Z" transform="translate(-304.71 -182.569)" fill="#e0e0e0"/>
          </g>
        </g>
      </g>
      <g id="Group_308" data-name="Group 308" transform="translate(6.866 5.72)">
        <g id="Group_307" data-name="Group 307">
          <path id="Path_185" data-name="Path 185" d="M307.527,184.04c-.071.059-.4-.219-.734-.62s-.549-.774-.478-.833.4.219.734.62S307.6,183.982,307.527,184.04Z" transform="translate(-306.301 -182.58)" fill="#e0e0e0"/>
        </g>
      </g>
      <g id="Group_310" data-name="Group 310" transform="translate(6.662 1.907)">
        <g id="Group_309" data-name="Group 309">
          <path id="Path_186" data-name="Path 186" d="M307.38,179.016c.065.064-.163.4-.51.752s-.682.582-.748.518.164-.4.511-.753S307.315,178.951,307.38,179.016Z" transform="translate(-306.111 -179.005)" fill="#e0e0e0"/>
        </g>
      </g>
      <g id="Group_312" data-name="Group 312" transform="translate(2.817 2.244)">
        <g id="Group_311" data-name="Group 311">
          <path id="Path_187" data-name="Path 187" d="M303.71,180.335c-.06.07-.375-.1-.705-.371s-.552-.557-.493-.627.375.095.705.371S303.769,180.264,303.71,180.335Z" transform="translate(-302.502 -179.321)" fill="#e0e0e0"/>
        </g>
      </g>
      <g id="Group_314" data-name="Group 314" transform="translate(2.717 5.568)">
        <g id="Group_313" data-name="Group 313">
          <path id="Path_188" data-name="Path 188" d="M303.563,182.447c.068.063-.133.394-.449.74s-.625.577-.694.515.132-.394.447-.74S303.495,182.385,303.563,182.447Z" transform="translate(-302.408 -182.437)" fill="#e0e0e0"/>
        </g>
      </g>
    </g>
    <g id="Group_334" data-name="Group 334" transform="translate(213.336 169.532)">
      <g id="Group_320" data-name="Group 320">
        <g id="Group_317" data-name="Group 317" transform="translate(0 4.475)">
          <g id="Group_316" data-name="Group 316">
            <path id="Path_189" data-name="Path 189" d="M216.152,172.664a8.756,8.756,0,0,1-3.409,0,8.811,8.811,0,0,1,3.409,0Z" transform="translate(-212.743 -172.498)" fill="#39b136"/>
          </g>
        </g>
        <g id="Group_319" data-name="Group 319" transform="translate(5.052)">
          <g id="Group_318" data-name="Group 318">
            <path id="Path_190" data-name="Path 190" d="M217.65,168.3a9.041,9.041,0,0,1,0,3.462,9.1,9.1,0,0,1,0-3.462Z" transform="translate(-217.484 -168.303)" fill="#39b136"/>
          </g>
        </g>
      </g>
      <g id="Group_325" data-name="Group 325" transform="translate(5.17 4.364)">
        <g id="Group_322" data-name="Group 322" transform="translate(1.977)">
          <g id="Group_321" data-name="Group 321">
            <path id="Path_191" data-name="Path 191" d="M219.45,172.56a8.812,8.812,0,0,1,3.409,0,8.811,8.811,0,0,1-3.409,0Z" transform="translate(-219.45 -172.394)" fill="#39b136"/>
          </g>
        </g>
        <g id="Group_324" data-name="Group 324" transform="translate(0 1.345)">
          <g id="Group_323" data-name="Group 323">
            <path id="Path_192" data-name="Path 192" d="M217.761,177.117a9.1,9.1,0,0,1,0-3.462,9.1,9.1,0,0,1,0,3.462Z" transform="translate(-217.595 -173.655)" fill="#39b136"/>
          </g>
        </g>
      </g>
      <g id="Group_327" data-name="Group 327" transform="translate(6.866 5.72)">
        <g id="Group_326" data-name="Group 326">
          <path id="Path_193" data-name="Path 193" d="M220.411,175.126c-.07.059-.4-.219-.733-.62s-.549-.774-.478-.833.4.219.734.62S220.482,175.068,220.411,175.126Z" transform="translate(-219.186 -173.666)" fill="#39b136"/>
        </g>
      </g>
      <g id="Group_329" data-name="Group 329" transform="translate(6.662 1.907)">
        <g id="Group_328" data-name="Group 328">
          <path id="Path_194" data-name="Path 194" d="M220.265,170.1c.065.064-.164.4-.511.752s-.682.582-.747.518.163-.4.51-.753S220.2,170.037,220.265,170.1Z" transform="translate(-218.996 -170.091)" fill="#39b136"/>
        </g>
      </g>
      <g id="Group_331" data-name="Group 331" transform="translate(2.817 2.244)">
        <g id="Group_330" data-name="Group 330">
          <path id="Path_195" data-name="Path 195" d="M216.594,171.421c-.059.07-.374-.1-.705-.371s-.551-.556-.492-.627.375.1.705.371S216.653,171.35,216.594,171.421Z" transform="translate(-215.387 -170.407)" fill="#39b136"/>
        </g>
      </g>
      <g id="Group_333" data-name="Group 333" transform="translate(2.716 5.568)">
        <g id="Group_332" data-name="Group 332">
          <path id="Path_196" data-name="Path 196" d="M216.447,173.533c.068.063-.132.394-.448.74s-.627.577-.695.515.133-.394.449-.74S216.38,173.471,216.447,173.533Z" transform="translate(-215.292 -173.523)" fill="#39b136"/>
        </g>
      </g>
    </g>
  </g>
</svg>
