<svg width="16" height="16" viewBox="0 0 16 16" fill="none" xmlns="http://www.w3.org/2000/svg">
<path d="M0.781274 16C0.62676 16 0.475709 15.9542 0.347226 15.8684C0.218744 15.7825 0.118602 15.6605 0.0594683 15.5177C0.000334609 15.375 -0.0151346 15.2179 0.0150175 15.0663C0.0451695 14.9147 0.119588 14.7755 0.22886 14.6663L14.6641 0.228852C14.8106 0.0823204 15.0093 0 15.2165 0C15.4237 0 15.6224 0.0823204 15.7689 0.228852C15.9154 0.375383 15.9977 0.574122 15.9977 0.781348C15.9977 0.988574 15.9154 1.18731 15.7689 1.33384L1.33369 15.7713C1.26121 15.8439 1.1751 15.9015 1.0803 15.9407C0.985498 15.98 0.883878 16.0001 0.781274 16Z" fill="#555555"/>
<path d="M15.2165 16C15.1139 16.0001 15.0122 15.98 14.9174 15.9407C14.8226 15.9015 14.7365 15.8439 14.6641 15.7713L0.228817 1.33384C0.082308 1.18731 0 0.988574 0 0.781348C0 0.574122 0.082308 0.375383 0.228817 0.228852C0.375326 0.0823204 0.574036 0 0.781231 0C0.988426 0 1.18714 0.0823204 1.33364 0.228852L15.7689 14.6663C15.8782 14.7755 15.9526 14.9147 15.9827 15.0663C16.0129 15.2179 15.9974 15.375 15.9383 15.5177C15.8791 15.6605 15.779 15.7825 15.6505 15.8684C15.522 15.9542 15.371 16 15.2165 16Z" fill="#555555"/>
</svg>
