<svg xmlns="http://www.w3.org/2000/svg" xmlns:xlink="http://www.w3.org/1999/xlink" width="24" height="24" viewBox="0 0 24 24">
  <defs>
    <clipPath id="clip-path">
      <rect id="Rectangle_2118" data-name="Rectangle 2118" width="24" height="24" transform="translate(592 97)" fill="#555" stroke="#707070" stroke-width="1"/>
    </clipPath>
  </defs>
  <g id="Mask_Group_80" data-name="Mask Group 80" transform="translate(-592 -97)" clip-path="url(#clip-path)">
    <path id="computer" d="M22.266,18.408H1.734a.61.61,0,0,1-.609-.609V16.661h21.75V17.8A.61.61,0,0,1,22.266,18.408Zm-9.219,2.659H10.953V19.533h2.094ZM1.734,2.933H22.266a.61.61,0,0,1,.609.609V15.536H1.125V3.542a.61.61,0,0,1,.609-.609ZM22.266,1.808H1.734A1.736,1.736,0,0,0,0,3.542V17.8a1.736,1.736,0,0,0,1.734,1.734H9.828v1.534H8.717a.563.563,0,0,0,0,1.125h6.566a.562.562,0,1,0,0-1.125H14.172V19.533h8.094A1.736,1.736,0,0,0,24,17.8V3.542a1.736,1.736,0,0,0-1.734-1.734Z" transform="translate(592 97)" fill="#555" fill-rule="evenodd"/>
  </g>
</svg>
