<svg xmlns="http://www.w3.org/2000/svg" xmlns:xlink="http://www.w3.org/1999/xlink" width="24.186" height="24" viewBox="0 0 24.186 24">
  <defs>
    <clipPath id="clip-path">
      <rect id="Rectangle_2118" data-name="Rectangle 2118" width="24" height="24" transform="translate(592 97)" fill="#555" stroke="#707070" stroke-width="1"/>
    </clipPath>
  </defs>
  <g id="Group_349" data-name="Group 349" transform="translate(-592 -97)">
    <path id="Path_5507" data-name="Path 5507" d="M53.487,77.114c-1.226.151-2.453.189-3.686.377-3,.458-6.765,3.214-6.782,6.521-.021,4.319,4.9,7.123,7.647,8,1.751.561,2.776,2.243,4.343,3.105a4.537,4.537,0,0,0,3.893-.093,5.582,5.582,0,0,0,2.9-6.8c-1.136-3.779,2.542-5.1,1.037-8.36-1.436-3.107-4.611-3.824-7.683-3.056A13.751,13.751,0,0,1,53.487,77.114Z" transform="translate(552.98 25.469)" fill="rgba(56,128,255,0.16)" style="mix-blend-mode: multiply;isolation: isolate"/>
    <g id="Mask_Group_80" data-name="Mask Group 80" clip-path="url(#clip-path)">
      <path id="computer" d="M22.266,18.408H1.734a.61.61,0,0,1-.609-.609V16.661h21.75V17.8A.61.61,0,0,1,22.266,18.408Zm-9.219,2.659H10.953V19.533h2.094ZM1.734,2.933H22.266a.61.61,0,0,1,.609.609V15.536H1.125V3.542a.61.61,0,0,1,.609-.609ZM22.266,1.808H1.734A1.736,1.736,0,0,0,0,3.542V17.8a1.736,1.736,0,0,0,1.734,1.734H9.828v1.534H8.717a.563.563,0,0,0,0,1.125h6.566a.562.562,0,1,0,0-1.125H14.172V19.533h8.094A1.736,1.736,0,0,0,24,17.8V3.542a1.736,1.736,0,0,0-1.734-1.734Z" transform="translate(592 97)" fill="#555" fill-rule="evenodd"/>
    </g>
  </g>
</svg>
