<svg width="16" height="11" viewBox="0 0 16 11" fill="none" xmlns="http://www.w3.org/2000/svg">
<path d="M15.6331 3.86476C15.8221 3.83965 15.9633 3.67816 15.9633 3.48711V0.857143C15.9633 0.384508 15.5796 0 15.1081 0H0.855175C0.383625 0 0 0.384508 0 0.857143V3.48711C0 3.67816 0.141199 3.83965 0.330129 3.86476C0.997324 3.9534 1.50045 4.53 1.50045 5.206C1.50045 5.882 0.997324 6.45857 0.330129 6.54721C0.141199 6.57232 0 6.73381 0 6.92486V9.55483C0 10.0275 0.383625 10.412 0.855175 10.412H15.1081C15.5796 10.412 15.9633 10.0275 15.9633 9.55483V6.92486C15.9633 6.73381 15.8221 6.57232 15.6331 6.54721C14.9659 6.45857 14.4628 5.88197 14.4628 5.206C14.4628 4.53003 14.9659 3.9534 15.6331 3.86476ZM15.2031 7.23117V9.55483C15.2031 9.60644 15.1596 9.65006 15.1081 9.65006H5.56842V8.89841C5.56842 8.68803 5.39824 8.51746 5.18834 8.51746C4.97845 8.51746 4.80827 8.68803 4.80827 8.89841V9.65006H0.855175C0.803674 9.65006 0.760155 9.60644 0.760155 9.55483V7.23117C1.63519 6.96632 2.26061 6.14784 2.26061 5.206C2.26061 4.26416 1.63519 3.44565 0.760155 3.18083V0.857175C0.760155 0.805556 0.803674 0.761937 0.855175 0.761937H4.80827V1.51362C4.80827 1.724 4.97845 1.89457 5.18834 1.89457C5.39824 1.89457 5.56842 1.724 5.56842 1.51362V0.761937H15.1081C15.1596 0.761937 15.2031 0.805556 15.2031 0.857175V3.18083C14.3281 3.44568 13.7027 4.26416 13.7027 5.206C13.7027 6.14784 14.3281 6.96632 15.2031 7.23117ZM5.56842 3.22013V4.35273C5.56842 4.56311 5.39824 4.73368 5.18834 4.73368C4.97845 4.73368 4.80827 4.56311 4.80827 4.35273V3.22013C4.80827 3.00975 4.97845 2.83917 5.18834 2.83917C5.39824 2.83917 5.56842 3.00971 5.56842 3.22013ZM5.56842 6.05927V7.19187C5.56842 7.40225 5.39824 7.57283 5.18834 7.57283C4.97845 7.57283 4.80827 7.40225 4.80827 7.19187V6.05927C4.80827 5.84889 4.97845 5.67832 5.18834 5.67832C5.39824 5.67832 5.56842 5.84886 5.56842 6.05927ZM9.61615 3.76362C9.61615 3.0826 9.06339 2.52857 8.38394 2.52857C7.70449 2.52857 7.15173 3.0826 7.15173 3.76362C7.15173 4.44464 7.70449 4.99867 8.38394 4.99867C9.06339 4.99867 9.61615 4.44464 9.61615 3.76362ZM7.91189 3.76362C7.91189 3.50273 8.12365 3.29048 8.38394 3.29048C8.64423 3.29048 8.856 3.50273 8.856 3.76362C8.856 4.02451 8.64423 4.23676 8.38394 4.23676C8.12365 4.23676 7.91189 4.02451 7.91189 3.76362ZM11.8118 3.2599L8.93569 7.52114C8.86224 7.62997 8.74245 7.68867 8.62054 7.68867C8.54725 7.68867 8.4732 7.66746 8.40792 7.62321C8.23407 7.5053 8.18845 7.26848 8.30609 7.09419L11.1822 2.83295C11.2998 2.6587 11.5361 2.61298 11.71 2.73089C11.8838 2.84879 11.9294 3.08562 11.8118 3.2599ZM11.7474 5.41333C11.0679 5.41333 10.5152 5.96737 10.5152 6.64838C10.5152 7.3294 11.0679 7.88343 11.7474 7.88343C12.4268 7.88343 12.9796 7.3294 12.9796 6.64838C12.9796 5.96737 12.4268 5.41333 11.7474 5.41333ZM11.7474 7.12152C11.4871 7.12152 11.2753 6.90927 11.2753 6.64838C11.2753 6.38749 11.4871 6.17524 11.7474 6.17524C12.0077 6.17524 12.2194 6.38749 12.2194 6.64838C12.2194 6.90927 12.0077 7.12152 11.7474 7.12152Z" fill="black"/>
</svg>
