<svg xmlns="http://www.w3.org/2000/svg" width="152" height="152" viewBox="0 0 152 152">
  <g id="Group_16395" data-name="Group 16395" transform="translate(-17967 -6485)">
    <g id="Group_16392" data-name="Group 16392" transform="translate(17967 6485)">
      <rect id="Rectangle_2464" data-name="Rectangle 2464" width="120.416" height="29.61" rx="14.805" transform="translate(0 85.147) rotate(-45)" fill="#f7f7f7"/>
      <path id="Path_39108" data-name="Path 39108" d="M16.344,1.359,106.719,0c8.873-.133,15.944,6.082,15.792,13.883s-7.468,14.232-16.341,14.366L15.795,29.608C6.921,29.742-.149,23.526,0,15.725S7.47,1.493,16.344,1.359Z" transform="matrix(0.719, -0.695, 0.695, 0.719, 2.99, 126.548)" fill="#f7f7f7"/>
      <rect id="Rectangle_2466" data-name="Rectangle 2466" width="120.416" height="29.61" rx="14.805" transform="translate(45.915 131.062) rotate(-45)" fill="#f7f7f7"/>
    </g>
    <g id="building" transform="translate(17996.609 6513.623)">
      <path id="Path_5687" data-name="Path 5687" d="M70.164,191.37H39.371l2.967-8.481a3.624,3.624,0,0,1,3.421-2.428H63.777a3.624,3.624,0,0,1,3.421,2.428Z" transform="translate(-33.183 -147.064)" fill="none" stroke="#000" stroke-width="1"/>
      <path id="Path_5689" data-name="Path 5689" d="M9.557,289.855h26.2V264.549s-1.425-7.244,1.074-10S49.1,249.178,49.1,249.178v-9.77H9.557a3.624,3.624,0,0,0-3.624,3.624v43.2a3.624,3.624,0,0,0,3.624,3.624Z" transform="translate(-5.933 -195.102)" fill="none" stroke="#000" stroke-width="1"/>
      <path id="Path_5691" data-name="Path 5691" d="M226.444,0H205.454a3.624,3.624,0,0,0-3.128,1.795l-5.8,9.913H184.3a3.624,3.624,0,0,0-3.624,3.624V54.119s-8.945,1.517-12.281,5.424-1.065,10.2-1.065,10.2V94.753H195.3l11.411-2.487,8.76,2.487h10.97a3.624,3.624,0,0,0,3.624-3.624V3.624A3.624,3.624,0,0,0,226.444,0Z" transform="translate(-137.511 0)" fill="none" stroke="#000" stroke-width="1"/>
      <g id="Group_367" data-name="Group 367" transform="translate(50.824 23.37)">
        <path id="Path_5693" data-name="Path 5693" d="M286.4,133.247h-4.721a1.123,1.123,0,0,1-1.124-1.124V127.4a1.123,1.123,0,0,1,1.124-1.124H286.4a1.123,1.123,0,0,1,1.124,1.124v4.721A1.123,1.123,0,0,1,286.4,133.247Z" transform="translate(-280.559 -126.279)" fill="#333"/>
        <path id="Path_5694" data-name="Path 5694" d="M359.729,133.247h-4.721a1.123,1.123,0,0,1-1.123-1.124V127.4a1.123,1.123,0,0,1,1.123-1.124h4.721a1.124,1.124,0,0,1,1.124,1.124v4.721A1.124,1.124,0,0,1,359.729,133.247Z" transform="translate(-340.314 -126.279)" fill="#333"/>
        <path id="Path_5695" data-name="Path 5695" d="M433.053,133.247h-4.721a1.123,1.123,0,0,1-1.124-1.124V127.4a1.123,1.123,0,0,1,1.124-1.124h4.721a1.124,1.124,0,0,1,1.124,1.124v4.721A1.124,1.124,0,0,1,433.053,133.247Z" transform="translate(-400.069 -126.279)" fill="#333"/>
      </g>
      <g id="Group_368" data-name="Group 368" transform="translate(50.824 36.816)">
        <path id="Path_5696" data-name="Path 5696" d="M286.4,205.9h-4.721a1.124,1.124,0,0,1-1.124-1.124V200.06a1.123,1.123,0,0,1,1.124-1.124H286.4a1.123,1.123,0,0,1,1.124,1.124v4.721A1.124,1.124,0,0,1,286.4,205.9Z" transform="translate(-280.559 -198.936)" fill="#333"/>
        <path id="Path_5697" data-name="Path 5697" d="M359.729,205.9h-4.721a1.123,1.123,0,0,1-1.123-1.124V200.06a1.123,1.123,0,0,1,1.123-1.124h4.721a1.124,1.124,0,0,1,1.124,1.124v4.721A1.124,1.124,0,0,1,359.729,205.9Z" transform="translate(-340.314 -198.936)" fill="#333"/>
        <path id="Path_5698" data-name="Path 5698" d="M433.053,205.9h-4.721a1.123,1.123,0,0,1-1.124-1.124V200.06a1.123,1.123,0,0,1,1.124-1.124h4.721a1.124,1.124,0,0,1,1.124,1.124v4.721A1.124,1.124,0,0,1,433.053,205.9Z" transform="translate(-400.069 -198.936)" fill="#333"/>
      </g>
      <g id="Group_370" data-name="Group 370" transform="translate(50.824 50.262)">
        <path id="Path_5699" data-name="Path 5699" d="M286.4,278.56h-4.721a1.123,1.123,0,0,1-1.124-1.124v-4.721a1.124,1.124,0,0,1,1.124-1.124H286.4a1.124,1.124,0,0,1,1.124,1.124v4.721A1.123,1.123,0,0,1,286.4,278.56Z" transform="translate(-280.559 -271.592)" fill="#333"/>
        <g id="Group_369" data-name="Group 369" transform="translate(13.57)">
          <path id="Path_5700" data-name="Path 5700" d="M359.729,278.56h-4.721a1.123,1.123,0,0,1-1.123-1.124v-4.721a1.123,1.123,0,0,1,1.123-1.124h4.721a1.124,1.124,0,0,1,1.124,1.124v4.721A1.123,1.123,0,0,1,359.729,278.56Z" transform="translate(-353.884 -271.592)" fill="#333"/>
          <path id="Path_5701" data-name="Path 5701" d="M433.053,278.56h-4.721a1.123,1.123,0,0,1-1.124-1.124v-4.721a1.123,1.123,0,0,1,1.124-1.124h4.721a1.124,1.124,0,0,1,1.124,1.124v4.721A1.123,1.123,0,0,1,433.053,278.56Z" transform="translate(-413.639 -271.592)" fill="#333"/>
        </g>
      </g>
      <g id="Group_371" data-name="Group 371" transform="translate(37.496 63.708)">
        <path id="Path_5702" data-name="Path 5702" d="M286.4,351.217h-4.721a1.124,1.124,0,0,1-1.124-1.124v-4.721a1.123,1.123,0,0,1,1.124-1.124H286.4a1.123,1.123,0,0,1,1.124,1.124v4.721A1.123,1.123,0,0,1,286.4,351.217Z" transform="translate(-267.231 -344.249)" fill="#333"/>
        <path id="Path_5703" data-name="Path 5703" d="M214.387,351.217h-4.721a1.124,1.124,0,0,1-1.123-1.124v-4.721a1.123,1.123,0,0,1,1.123-1.124h4.721a1.123,1.123,0,0,1,1.124,1.124v4.721A1.124,1.124,0,0,1,214.387,351.217Z" transform="translate(-208.543 -344.249)" fill="#333"/>
        <path id="Path_5704" data-name="Path 5704" d="M359.729,351.217h-4.721a1.123,1.123,0,0,1-1.123-1.124v-4.721a1.123,1.123,0,0,1,1.123-1.124h4.721a1.124,1.124,0,0,1,1.124,1.124v4.721A1.124,1.124,0,0,1,359.729,351.217Z" transform="translate(-326.987 -344.249)" fill="#333"/>
        <path id="Path_5705" data-name="Path 5705" d="M433.053,351.217h-4.721a1.123,1.123,0,0,1-1.124-1.124v-4.721a1.123,1.123,0,0,1,1.124-1.124h4.721a1.124,1.124,0,0,1,1.124,1.124v4.721A1.124,1.124,0,0,1,433.053,351.217Z" transform="translate(-386.742 -344.249)" fill="#333"/>
      </g>
      <path id="Path_5706" data-name="Path 5706" d="M41.289,310.1a2.919,2.919,0,0,1-2.919-2.919V274.512a2.919,2.919,0,0,1,5.838,0v32.667A2.919,2.919,0,0,1,41.289,310.1Z" transform="translate(-32.367 -221.331)" fill="#333"/>
      <path id="Path_5707" data-name="Path 5707" d="M105.189,310.1a2.919,2.919,0,0,1-2.919-2.919V274.512a2.919,2.919,0,0,1,5.838,0v32.667A2.919,2.919,0,0,1,105.189,310.1Z" transform="translate(-84.441 -221.331)" fill="#333"/>
      <path id="Path_5708" data-name="Path 5708" d="M338.384,424.313v14.245H318.213V424.313a2.432,2.432,0,0,1,2.433-2.433h15.305A2.432,2.432,0,0,1,338.384,424.313Z" transform="translate(-260.421 -343.805)" fill="#333"/>
      <g id="Group_372" data-name="Group 372" transform="translate(66.448 78.075)">
        <path id="Path_5710" data-name="Path 5710" d="M364.983,421.88h2.86v16.678h-2.86Z" transform="translate(-364.983 -421.88)" fill="#b6c4cf"/>
      </g>
      <g id="Group_373" data-name="Group 373" transform="translate(36.066 76.645)">
        <path id="Path_5711" data-name="Path 5711" d="M215.575,417.012H202.247a1.43,1.43,0,0,1,0-2.86h13.328a1.43,1.43,0,1,1,0,2.86Z" transform="translate(-200.817 -414.152)" fill="#333"/>
      </g>
      <g id="Group_374" data-name="Group 374" transform="translate(36.066 82.31)">
        <path id="Path_5712" data-name="Path 5712" d="M215.575,447.623H202.247a1.43,1.43,0,0,1,0-2.86h13.328a1.43,1.43,0,0,1,0,2.86Z" transform="translate(-200.817 -444.763)" fill="#333"/>
      </g>
      <g id="Group_375" data-name="Group 375" transform="translate(69.932 5.542)">
        <path id="Path_5713" data-name="Path 5713" d="M398.81,32.807H385.24a1.43,1.43,0,1,1,0-2.86h13.57a1.43,1.43,0,1,1,0,2.86Z" transform="translate(-383.81 -29.947)" fill="#333"/>
      </g>
    </g>
    <g id="Group_16394" data-name="Group 16394" transform="translate(17988.691 6493.883)">
      <path id="Path_39112" data-name="Path 39112" d="M317.144,382.232l-3.175,1.736-1.736,3.175-1.736-3.175-3.175-1.736L310.5,380.5l1.736-3.175,1.736,3.175Z" transform="translate(-223.081 -248.571)" fill="#d3d3d3"/>
      <path id="Path_39114" data-name="Path 39114" d="M317.144,382.232l-3.175,1.736-1.736,3.175-1.736-3.175-3.175-1.736L310.5,380.5l1.736-3.175,1.736,3.175Z" transform="translate(-291.753 -258.395)" fill="#d3d3d3"/>
      <path id="Path_39115" data-name="Path 39115" d="M313.516,380.418l-2,1.1-1.1,2-1.1-2-2-1.1,2-1.1,1.1-2,1.1,2Z" transform="translate(-307.32 -294.649)" fill="#d3d3d3"/>
      <path id="Path_39116" data-name="Path 39116" d="M313.516,380.418l-2,1.1-1.1,2-1.1-2-2-1.1,2-1.1,1.1-2,1.1,2Z" transform="translate(-293.037 -332.346)" fill="#d3d3d3"/>
      <path id="Path_39117" data-name="Path 39117" d="M317.577,382.449l-3.315,1.813-1.813,3.315-1.813-3.315-3.316-1.813,3.316-1.813,1.813-3.316,1.813,3.316Z" transform="translate(-236.633 -377.32)" fill="#d3d3d3"/>
      <path id="Path_39118" data-name="Path 39118" d="M321.353,384.336l-4.536,2.48-2.48,4.536-2.48-4.536-4.536-2.48,4.536-2.48,2.48-4.536,2.48,4.536Z" transform="translate(-200.121 -343.281)" fill="#d3d3d3"/>
    </g>
  </g>
</svg>
