<svg xmlns="http://www.w3.org/2000/svg" width="128" height="128" viewBox="0 0 128 128">
  <g id="Group_16455" data-name="Group 16455" transform="translate(-17967 -6485)">
    <g id="Group_16392" data-name="Group 16392" transform="translate(17967 6485)">
      <rect id="Rectangle_2464" data-name="Rectangle 2464" width="101.403" height="24.935" rx="12.468" transform="translate(0 71.702) rotate(-45)" fill="#121a21"/>
      <path id="Path_39108" data-name="Path 39108" d="M13.763,1.145,89.868,0c7.472-.112,13.426,5.122,13.3,11.691s-6.289,11.985-13.761,12.1L13.3,24.933C5.828,25.046-.126,19.811,0,13.242S6.291,1.257,13.763,1.145Z" transform="matrix(0.719, -0.695, 0.695, 0.719, 2.518, 106.567)" fill="#121a21"/>
      <rect id="Rectangle_2466" data-name="Rectangle 2466" width="101.403" height="24.935" rx="12.468" transform="translate(38.666 110.368) rotate(-45)" fill="#121a21"/>
    </g>
    <g id="building" transform="translate(17991.934 6509.104)">
      <path id="Path_5687" data-name="Path 5687" d="M65.3,189.648H39.371l2.5-7.142a3.052,3.052,0,0,1,2.881-2.044H59.923a3.052,3.052,0,0,1,2.881,2.044Z" transform="translate(-34.16 -152.337)" fill="none" stroke="#848d97" stroke-width="1"/>
      <path id="Path_5689" data-name="Path 5689" d="M8.985,281.89H31.048V260.579s-1.2-6.1.9-8.423,10.334-4.52,10.334-4.52v-8.228H8.985a3.052,3.052,0,0,0-3.052,3.052v36.378a3.052,3.052,0,0,0,3.052,3.052Z" transform="translate(-5.933 -202.098)" fill="none" stroke="#848d97" stroke-width="1"/>
      <path id="Path_5691" data-name="Path 5691" d="M216.992,0H199.316a3.052,3.052,0,0,0-2.635,1.511L191.8,9.859H181.506a3.052,3.052,0,0,0-3.052,3.052V45.574s-7.532,1.278-10.342,4.568-.9,8.592-.9,8.592V79.792h23.552l9.609-2.095,7.377,2.095h9.238a3.052,3.052,0,0,0,3.052-3.052V3.052A3.052,3.052,0,0,0,216.992,0Z" transform="translate(-142.1 0)" fill="none" stroke="#848d97" stroke-width="1"/>
      <g id="Group_367" data-name="Group 367" transform="translate(42.799 19.68)">
        <path id="Path_5693" data-name="Path 5693" d="M285.481,132.147h-3.976a.946.946,0,0,1-.946-.946v-3.976a.946.946,0,0,1,.946-.946h3.976a.946.946,0,0,1,.946.946V131.2A.946.946,0,0,1,285.481,132.147Z" transform="translate(-280.559 -126.279)" fill="#848d97"/>
        <path id="Path_5694" data-name="Path 5694" d="M358.806,132.147H354.83a.946.946,0,0,1-.946-.946v-3.976a.946.946,0,0,1,.946-.946h3.976a.946.946,0,0,1,.946.946V131.2A.946.946,0,0,1,358.806,132.147Z" transform="translate(-342.457 -126.279)" fill="#848d97"/>
        <path id="Path_5695" data-name="Path 5695" d="M432.131,132.147h-3.975a.946.946,0,0,1-.946-.946v-3.976a.946.946,0,0,1,.946-.946h3.975a.946.946,0,0,1,.946.946V131.2A.946.946,0,0,1,432.131,132.147Z" transform="translate(-404.354 -126.279)" fill="#848d97"/>
      </g>
      <g id="Group_368" data-name="Group 368" transform="translate(42.799 31.003)">
        <path id="Path_5696" data-name="Path 5696" d="M285.481,204.8h-3.976a.946.946,0,0,1-.946-.946v-3.976a.946.946,0,0,1,.946-.946h3.976a.946.946,0,0,1,.946.946v3.976A.946.946,0,0,1,285.481,204.8Z" transform="translate(-280.559 -198.936)" fill="#848d97"/>
        <path id="Path_5697" data-name="Path 5697" d="M358.806,204.8H354.83a.946.946,0,0,1-.946-.946v-3.976a.946.946,0,0,1,.946-.946h3.976a.946.946,0,0,1,.946.946v3.976A.946.946,0,0,1,358.806,204.8Z" transform="translate(-342.457 -198.936)" fill="#848d97"/>
        <path id="Path_5698" data-name="Path 5698" d="M432.131,204.8h-3.975a.946.946,0,0,1-.946-.946v-3.976a.946.946,0,0,1,.946-.946h3.975a.946.946,0,0,1,.946.946v3.976A.946.946,0,0,1,432.131,204.8Z" transform="translate(-404.354 -198.936)" fill="#848d97"/>
      </g>
      <g id="Group_370" data-name="Group 370" transform="translate(42.799 42.326)">
        <path id="Path_5699" data-name="Path 5699" d="M285.481,277.46h-3.976a.946.946,0,0,1-.946-.946v-3.976a.946.946,0,0,1,.946-.946h3.976a.946.946,0,0,1,.946.946v3.976A.946.946,0,0,1,285.481,277.46Z" transform="translate(-280.559 -271.592)" fill="#848d97"/>
        <g id="Group_369" data-name="Group 369" transform="translate(11.427)">
          <path id="Path_5700" data-name="Path 5700" d="M358.806,277.46H354.83a.946.946,0,0,1-.946-.946v-3.976a.946.946,0,0,1,.946-.946h3.976a.946.946,0,0,1,.946.946v3.976A.946.946,0,0,1,358.806,277.46Z" transform="translate(-353.884 -271.592)" fill="#848d97"/>
          <path id="Path_5701" data-name="Path 5701" d="M432.131,277.46h-3.975a.946.946,0,0,1-.946-.946v-3.976a.946.946,0,0,1,.946-.946h3.975a.946.946,0,0,1,.946.946v3.976A.946.946,0,0,1,432.131,277.46Z" transform="translate(-415.782 -271.592)" fill="#848d97"/>
        </g>
      </g>
      <g id="Group_371" data-name="Group 371" transform="translate(31.576 53.649)">
        <path id="Path_5702" data-name="Path 5702" d="M285.481,350.117h-3.976a.946.946,0,0,1-.946-.946V345.2a.946.946,0,0,1,.946-.946h3.976a.946.946,0,0,1,.946.946v3.976A.946.946,0,0,1,285.481,350.117Z" transform="translate(-269.336 -344.249)" fill="#848d97"/>
        <path id="Path_5703" data-name="Path 5703" d="M213.465,350.117h-3.976a.946.946,0,0,1-.946-.946V345.2a.946.946,0,0,1,.946-.946h3.976a.946.946,0,0,1,.946.946v3.976A.946.946,0,0,1,213.465,350.117Z" transform="translate(-208.543 -344.249)" fill="#848d97"/>
        <path id="Path_5704" data-name="Path 5704" d="M358.806,350.117H354.83a.946.946,0,0,1-.946-.946V345.2a.946.946,0,0,1,.946-.946h3.976a.946.946,0,0,1,.946.946v3.976A.946.946,0,0,1,358.806,350.117Z" transform="translate(-331.233 -344.249)" fill="#848d97"/>
        <path id="Path_5705" data-name="Path 5705" d="M432.131,350.117h-3.975a.946.946,0,0,1-.946-.946V345.2a.946.946,0,0,1,.946-.946h3.975a.946.946,0,0,1,.946.946v3.976A.946.946,0,0,1,432.131,350.117Z" transform="translate(-393.131 -344.249)" fill="#848d97"/>
      </g>
      <path id="Path_5706" data-name="Path 5706" d="M40.828,304.019a2.458,2.458,0,0,1-2.458-2.458V274.051a2.458,2.458,0,0,1,4.916,0V301.56A2.458,2.458,0,0,1,40.828,304.019Z" transform="translate(-33.315 -229.267)" fill="#848d97"/>
      <path id="Path_5707" data-name="Path 5707" d="M104.728,304.019a2.458,2.458,0,0,1-2.458-2.458V274.051a2.458,2.458,0,0,1,4.916,0V301.56A2.458,2.458,0,0,1,104.728,304.019Z" transform="translate(-87.256 -229.267)" fill="#848d97"/>
      <path id="Path_5708" data-name="Path 5708" d="M335.2,423.929v12H318.213v-12a2.048,2.048,0,0,1,2.049-2.048H333.15A2.048,2.048,0,0,1,335.2,423.929Z" transform="translate(-269.546 -356.132)" fill="#848d97"/>
      <g id="Group_372" data-name="Group 372" transform="translate(55.956 65.748)">
        <path id="Path_5710" data-name="Path 5710" d="M364.983,421.88h2.408v14.045h-2.408Z" transform="translate(-364.983 -421.88)" fill="#b6c4cf"/>
      </g>
      <g id="Group_373" data-name="Group 373" transform="translate(30.372 64.543)">
        <path id="Path_5711" data-name="Path 5711" d="M213.245,416.56H202.021a1.2,1.2,0,0,1,0-2.408h11.223a1.2,1.2,0,0,1,0,2.408Z" transform="translate(-200.817 -414.152)" fill="#848d97"/>
      </g>
      <g id="Group_374" data-name="Group 374" transform="translate(30.372 69.314)">
        <path id="Path_5712" data-name="Path 5712" d="M213.245,447.171H202.021a1.2,1.2,0,0,1,0-2.408h11.223a1.2,1.2,0,0,1,0,2.408Z" transform="translate(-200.817 -444.763)" fill="#848d97"/>
      </g>
      <g id="Group_375" data-name="Group 375" transform="translate(58.89 4.667)">
        <path id="Path_5713" data-name="Path 5713" d="M396.441,32.355H385.014a1.2,1.2,0,1,1,0-2.408h11.427a1.2,1.2,0,1,1,0,2.408Z" transform="translate(-383.81 -29.947)" fill="#848d97"/>
      </g>
    </g>
    <g id="Group_16394" data-name="Group 16394" transform="translate(17985.266 6492.48)">
      <path id="Path_39112" data-name="Path 39112" d="M315.593,381.456l-2.674,1.462-1.462,2.674-1.462-2.674-2.674-1.462,2.674-1.462,1.462-2.674,1.462,2.674Z" transform="translate(-236.382 -268.9)" fill="#848d97"/>
      <path id="Path_39114" data-name="Path 39114" d="M315.593,381.456l-2.674,1.462-1.462,2.674-1.462-2.674-2.674-1.462,2.674-1.462,1.462-2.674,1.462,2.674Z" transform="translate(-294.211 -277.173)" fill="#848d97"/>
      <path id="Path_39115" data-name="Path 39115" d="M312.538,379.929l-1.687.922-.922,1.687-.922-1.687-1.687-.922,1.687-.922.922-1.687.922,1.687Z" transform="translate(-307.32 -307.703)" fill="#848d97"/>
      <path id="Path_39116" data-name="Path 39116" d="M312.538,379.929l-1.687.922-.922,1.687-.922-1.687-1.687-.922,1.687-.922.922-1.687.922,1.687Z" transform="translate(-295.292 -339.447)" fill="#848d97"/>
      <path id="Path_39117" data-name="Path 39117" d="M315.958,381.639l-2.792,1.527-1.527,2.792-1.527-2.792-2.792-1.527,2.792-1.527,1.527-2.792,1.527,2.792Z" transform="translate(-247.794 -377.32)" fill="#848d97"/>
      <path id="Path_39118" data-name="Path 39118" d="M319.137,383.228l-3.82,2.089-2.089,3.82-2.089-3.82-3.82-2.089,3.82-2.089,2.089-3.82,2.089,3.82Z" transform="translate(-217.047 -348.655)" fill="#848d97"/>
    </g>
  </g>
</svg>
