<svg xmlns="http://www.w3.org/2000/svg" xmlns:xlink="http://www.w3.org/1999/xlink" width="10" height="10" viewBox="0 0 10 10">
  <defs>
    <clipPath id="clip-path">
      <rect id="Rectangle_2293" data-name="Rectangle 2293" width="10" height="10" transform="translate(363 1783)" fill="#eb5f5f" stroke="#707070" stroke-width="1"/>
    </clipPath>
  </defs>
  <g id="Mask_Group_92" data-name="Mask Group 92" transform="translate(-363 -1783)" clip-path="url(#clip-path)">
    <g id="close_2_" data-name="close (2)" transform="translate(363 1783)">
      <path id="Path_5538" data-name="Path 5538" d="M7.29,16.632a.658.658,0,0,1-.465-1.124l8.684-8.684a.658.658,0,0,1,.931.931L7.755,16.439a.656.656,0,0,1-.465.193Z" transform="translate(-6.632 -6.632)" fill="#eb5f5f"/>
      <path id="Path_5539" data-name="Path 5539" d="M15.974,16.632a.653.653,0,0,1-.465-.193L6.825,7.755a.658.658,0,1,1,.931-.931l8.684,8.684a.658.658,0,0,1-.465,1.124Z" transform="translate(-6.632 -6.632)" fill="#eb5f5f"/>
    </g>
  </g>
</svg>
