<svg width="26" height="26" viewBox="0 0 26 26" fill="none" xmlns="http://www.w3.org/2000/svg">
<circle cx="13" cy="13" r="12.6" stroke="#222222" stroke-width="0.8"/>
<path d="M13 20.5C12.7722 20.5 12.5526 20.4159 12.3815 20.2632C11.7351 19.6875 11.1119 19.1465 10.5621 18.6693L10.5593 18.6668C8.94739 17.2676 7.55542 16.0592 6.58691 14.8688C5.50427 13.5381 5 12.2764 5 10.898C5 9.55885 5.45081 8.32337 6.26929 7.41901C7.09753 6.50397 8.23401 6 9.46973 6C10.3933 6 11.2391 6.29743 11.9836 6.88396C12.3594 7.18002 12.7 7.54236 13 7.96501C13.3002 7.54236 13.6406 7.18002 14.0165 6.88396C14.761 6.29743 15.6068 6 16.5304 6C17.766 6 18.9026 6.50397 19.7308 7.41901C20.5493 8.32337 21 9.55885 21 10.898C21 12.2764 20.4958 13.5381 19.4132 14.8687C18.4447 16.0592 17.0529 17.2674 15.4412 18.6665C14.8904 19.1445 14.2662 19.6864 13.6184 20.2635C13.4474 20.4159 13.2277 20.5 13 20.5ZM9.46973 6.95471C8.4989 6.95471 7.60706 7.34938 6.95825 8.0661C6.2998 8.79364 5.93713 9.79933 5.93713 10.898C5.93713 12.0573 6.36011 13.0941 7.30847 14.2597C8.2251 15.3864 9.5885 16.5699 11.1671 17.9403L11.17 17.9427C11.7219 18.4218 12.3475 18.965 12.9987 19.5449C13.6537 18.9639 14.2803 18.4198 14.8333 17.94C16.4117 16.5696 17.775 15.3864 18.6917 14.2597C19.6399 13.0941 20.0629 12.0573 20.0629 10.898C20.0629 9.79933 19.7002 8.79364 19.0417 8.0661C18.3931 7.34938 17.5011 6.95471 16.5304 6.95471C15.8192 6.95471 15.1663 7.185 14.5897 7.6391C14.0759 8.04397 13.718 8.55577 13.5082 8.91388C13.4003 9.09803 13.2103 9.20795 13 9.20795C12.7897 9.20795 12.5997 9.09803 12.4918 8.91388C12.2821 8.55577 11.9242 8.04397 11.4103 7.6391C10.8337 7.185 10.1808 6.95471 9.46973 6.95471Z" fill="black"/>
</svg>
