<svg xmlns="http://www.w3.org/2000/svg" xmlns:xlink="http://www.w3.org/1999/xlink" width="14" height="14" viewBox="0 0 14 14">
  <defs>
    <clipPath id="clip-path">
      <rect id="Rectangle_2328" data-name="Rectangle 2328" width="14" height="14" transform="translate(1298 271)" stroke="#707070" stroke-width="1"/>
    </clipPath>
  </defs>
  <g id="Mask_Group_115" data-name="Mask Group 115" transform="translate(-1298 -271)" clip-path="url(#clip-path)">
    <path id="save" d="M4.8,3.8a1,1,0,0,0-1,1v9.6a1,1,0,0,0,1,1H6.6V12a.6.6,0,0,1,.6-.6H12a.6.6,0,0,1,.6.6v3.4h1.8a1,1,0,0,0,1-1V7.863a1,1,0,0,0-.293-.707L12.044,4.093a1,1,0,0,0-.707-.293Zm9.6,12.8a2.2,2.2,0,0,0,2.2-2.2V7.863a2.2,2.2,0,0,0-.644-1.556L12.893,3.244A2.2,2.2,0,0,0,11.337,2.6H4.8A2.2,2.2,0,0,0,2.6,4.8v9.6a2.2,2.2,0,0,0,2.2,2.2Zm-3-1.2V12.6H7.8v2.8Z" transform="translate(1295.4 268.4)" fill-rule="evenodd"/>
  </g>
</svg>
