<svg xmlns="http://www.w3.org/2000/svg" xmlns:xlink="http://www.w3.org/1999/xlink" width="24" height="24" viewBox="0 0 24 24">
  <defs>
    <clipPath id="clip-path">
      <rect id="Rectangle_2277" data-name="Rectangle 2277" width="24" height="24" transform="translate(394 97)" fill="#555" stroke="#0f1116" stroke-width="0.3"/>
    </clipPath>
  </defs>
  <g id="Mask_Group_79" data-name="Mask Group 79" transform="translate(-394 -97)" clip-path="url(#clip-path)">
    <g id="Layer_2" data-name="Layer 2" transform="translate(392.046 95.27)">
      <path id="Path_5502" data-name="Path 5502" d="M21.542,18.017H12.677a.651.651,0,1,1,0-1.3h8.865a1.523,1.523,0,0,0,1.489-1.2l1.607-7.59a.655.655,0,0,0-.137-.546.639.639,0,0,0-.5-.24H7.893a.651.651,0,0,1,0-1.3H24a1.961,1.961,0,0,1,1.914,2.354l-1.607,7.592a2.831,2.831,0,0,1-2.764,2.236Z" fill="#555" stroke="#0f1116" stroke-width="0.3"/>
      <path id="Path_5503" data-name="Path 5503" d="M23.305,20.941H12.078a2.394,2.394,0,0,1-2.341-1.92L6.845,4.563A1.087,1.087,0,0,0,5.781,3.69H2.6a.651.651,0,1,1,0-1.3H5.781a2.393,2.393,0,0,1,2.341,1.92l2.892,14.457a1.088,1.088,0,0,0,1.064.873H23.305a.651.651,0,1,1,0,1.3Z" fill="#555" stroke="#0f1116" stroke-width="0.3"/>
      <circle id="Ellipse_49" data-name="Ellipse 49" cx="1.302" cy="1.302" r="1.302" transform="translate(11.396 22.467)" fill="#555" stroke="#0f1116" stroke-width="0.3"/>
      <circle id="Ellipse_50" data-name="Ellipse 50" cx="1.302" cy="1.302" r="1.302" transform="translate(18.343 22.467)" fill="#555" stroke="#0f1116" stroke-width="0.3"/>
      <g id="Group_158" data-name="Group 158">
        <path id="Path_5504" data-name="Path 5504" d="M14.327,14.11a.651.651,0,0,1-.651-.651V9.985a.651.651,0,1,1,1.3,0v3.473A.651.651,0,0,1,14.327,14.11Z" fill="#555" stroke="#0f1116" stroke-width="0.3"/>
        <path id="Path_5505" data-name="Path 5505" d="M18.668,14.11a.651.651,0,0,1-.651-.651V9.985a.651.651,0,1,1,1.3,0v3.473A.651.651,0,0,1,18.668,14.11Z" fill="#555" stroke="#0f1116" stroke-width="0.3"/>
      </g>
    </g>
  </g>
</svg>
