<svg xmlns="http://www.w3.org/2000/svg" xmlns:xlink="http://www.w3.org/1999/xlink" width="24.186" height="24" viewBox="0 0 24.186 24">
  <defs>
    <clipPath id="clip-path">
      <rect id="Rectangle_2115" data-name="Rectangle 2115" width="24" height="24" transform="translate(308 97)" fill="#555" stroke="#707070" stroke-width="1"/>
    </clipPath>
  </defs>
  <g id="Group_346" data-name="Group 346" transform="translate(-308 -97)">
    <path id="Path_5500" data-name="Path 5500" d="M53.487,77.114c-1.226.151-2.453.189-3.686.377-3,.458-6.765,3.214-6.782,6.521-.021,4.319,4.9,7.123,7.647,8,1.751.561,2.776,2.243,4.343,3.105a4.537,4.537,0,0,0,3.893-.093,5.582,5.582,0,0,0,2.9-6.8c-1.136-3.779,2.542-5.1,1.037-8.36-1.436-3.107-4.611-3.824-7.683-3.056A13.751,13.751,0,0,1,53.487,77.114Z" transform="translate(268.98 25.469)" fill="rgba(56,128,255,0.16)" style="mix-blend-mode: multiply;isolation: isolate"/>
    <g id="Mask_Group_65" data-name="Mask Group 65" clip-path="url(#clip-path)">
      <g id="mortarboard" transform="translate(308 97)">
        <path id="Path_5454" data-name="Path 5454" d="M24,22.444l-.367-4.769a2.071,2.071,0,0,0-1.538-1.835V6.282a.516.516,0,0,0-.516-.516H11.047a.516.516,0,0,0,0,1.031H21.062V15.84a2.071,2.071,0,0,0-1.538,1.835l-.367,4.769a.519.519,0,0,0,.514.555h3.812A.519.519,0,0,0,24,22.444Zm-3.769-.476.324-4.214a1.028,1.028,0,0,1,2.05,0l.324,4.214h-2.7Z" fill="#555"/>
        <path id="Path_5455" data-name="Path 5455" d="M19.187,6.8l-8.141,3.684-9.28-4.2,9.28-4.2,8.141,3.684h2.39a.513.513,0,0,1,.238.059c0-.012-10.55-4.766-10.557-4.778a.516.516,0,0,0-.425,0L.3,5.812a.516.516,0,0,0,0,.94l3.08,1.394v5.969c0,.585.427,1.413,2.459,2.031a21.025,21.025,0,0,0,10.409,0c2.032-.618,2.459-1.446,2.459-2.031V8.145l2.352-1.064V6.8Zm-1.509,7.317c0,.208-.46.659-1.728,1.044a17.591,17.591,0,0,1-4.9.615,17.591,17.591,0,0,1-4.9-.615c-1.268-.386-1.728-.836-1.728-1.044v-5.5l6.42,2.9a.516.516,0,0,0,.425,0l6.42-2.9Z" fill="#555"/>
      </g>
    </g>
  </g>
</svg>
