<svg width="16" height="12" viewBox="0 0 16 12" fill="none" xmlns="http://www.w3.org/2000/svg">
<path d="M12.8 6.3998H3.20002C2.72002 6.3998 2.40002 6.0798 2.40002 5.5998C2.40002 5.1198 2.72002 4.7998 3.20002 4.7998H12.8C13.28 4.7998 13.6 5.1198 13.6 5.5998C13.6 6.0798 13.28 6.3998 12.8 6.3998Z" fill="#222222"/>
<path d="M10.4 11.1996H5.60005C5.12005 11.1996 4.80005 10.8796 4.80005 10.3996C4.80005 9.91961 5.12005 9.59961 5.60005 9.59961H10.4C10.88 9.59961 11.2 9.91961 11.2 10.3996C11.2 10.8796 10.88 11.1996 10.4 11.1996Z" fill="#222222"/>
<path d="M15.2 1.6H0.8C0.32 1.6 0 1.28 0 0.8C0 0.32 0.32 0 0.8 0H15.2C15.68 0 16 0.32 16 0.8C16 1.28 15.68 1.6 15.2 1.6Z" fill="#222222"/>
</svg>
