<svg xmlns="http://www.w3.org/2000/svg" xmlns:xlink="http://www.w3.org/1999/xlink" width="24" height="24" viewBox="0 0 24 24">
  <defs>
    <clipPath id="clip-path">
      <rect id="Rectangle_2117" data-name="Rectangle 2117" width="24" height="24" transform="translate(482 97)" fill="#555"/>
    </clipPath>
  </defs>
  <g id="Mask_Group_67" data-name="Mask Group 67" transform="translate(-482 -97)" clip-path="url(#clip-path)">
    <g id="money-bag" transform="translate(482 97)">
      <path id="Path_5460" data-name="Path 5460" d="M12.726,16.057a5.053,5.053,0,0,1-1.284-.6.436.436,0,0,1-.1-.414.591.591,0,0,1,.391-.468,1.216,1.216,0,0,1,.292-.052h.006a1.128,1.128,0,0,1,.672.213.516.516,0,1,0,.667-.786,1.943,1.943,0,0,0-.854-.407v-.022a.516.516,0,0,0-1.031,0v.053l-.049.013a1.613,1.613,0,0,0-1.107,1.264,1.439,1.439,0,0,0,.477,1.417,5.489,5.489,0,0,0,1.577.758.675.675,0,0,1,.488.791.881.881,0,0,1-.874.743,1.457,1.457,0,0,1-1.048-.275.516.516,0,1,0-.565.863,2.31,2.31,0,0,0,1.1.423v.05a.516.516,0,0,0,1.031,0v-.1a1.939,1.939,0,0,0,1.372-1.533,1.709,1.709,0,0,0-1.162-1.934Z" fill="#555"/>
      <path id="Path_5461" data-name="Path 5461" d="M17.052,11.272l-1.4-1.6a1.861,1.861,0,0,0,.91-.944l.027.02a3.622,3.622,0,0,0,2.16.72h.5a.516.516,0,1,0,0-1.031h-.5a2.585,2.585,0,0,1-1.541-.514l-.358-.269.1-.2a2.554,2.554,0,0,1,2.3-1.42.516.516,0,1,0,0-1.031,3.577,3.577,0,0,0-3.06,1.7,1.85,1.85,0,0,0-.87-.5l1.16-4.677A1.23,1.23,0,0,0,15.28,0H11.952a1.232,1.232,0,0,0-1.23,1.23V2.716H9.18A1.23,1.23,0,0,0,8.012,4.336l.627,1.881a1.849,1.849,0,0,0-.289,3.452l-1.4,1.6a14.018,14.018,0,0,0-3.469,9.234A3.5,3.5,0,0,0,6.973,24H17.027a3.5,3.5,0,0,0,3.494-3.494,14.018,14.018,0,0,0-3.469-9.234Zm-5.1-10.241H15.28a.2.2,0,0,1,.193.247L14.265,6.147H13.134l-.863-2.59a1.228,1.228,0,0,0-.518-.656V1.23a.2.2,0,0,1,.2-.2ZM9.018,3.83a.2.2,0,0,1,.162-.083H11.1a.2.2,0,0,1,.189.136l.755,2.264H9.7L8.991,4.01a.2.2,0,0,1,.027-.179Zm.123,3.348h5.718a.819.819,0,0,1,0,1.637H9.141a.819.819,0,0,1,0-1.637Zm7.886,15.79H6.973A2.466,2.466,0,0,1,4.51,20.506a12.987,12.987,0,0,1,3.214-8.555l1.841-2.1h4.869l1.841,2.1a12.987,12.987,0,0,1,3.214,8.555,2.466,2.466,0,0,1-2.463,2.463Z" fill="#555"/>
    </g>
  </g>
</svg>
