<svg id="user_7_" data-name="user (7)" xmlns="http://www.w3.org/2000/svg" width="334" height="400" viewBox="0 0 334 400">
  <path id="Path_5599" data-name="Path 5599" d="M184.338,194.607c26.735,0,49.886-9.589,68.8-28.508s28.5-42.06,28.5-68.8-9.589-49.877-28.508-68.8S211.07,0,184.338,0s-49.883,9.589-68.8,28.5S87.031,70.568,87.031,97.3s9.592,49.886,28.511,68.8S157.609,194.607,184.338,194.607Zm0,0" transform="translate(-19.832 0)" fill="#f5f8ff"/>
  <path id="Path_5600" data-name="Path 5600" d="M333.191,362.824a242.44,242.44,0,0,0-3.244-25.527,202.655,202.655,0,0,0-6.222-25.666,127.368,127.368,0,0,0-10.455-23.937A90.242,90.242,0,0,0,297.5,266.96a69.429,69.429,0,0,0-22.648-14.36,77.641,77.641,0,0,0-28.912-5.28c-4.087,0-8.039,1.692-15.672,6.707-4.7,3.092-10.192,6.667-16.325,10.621-5.244,3.372-12.349,6.531-21.124,9.392a81.319,81.319,0,0,1-51.673,0c-8.766-2.857-15.87-6.017-21.108-9.389-6.075-3.918-11.573-7.493-16.34-10.628-7.624-5.015-11.579-6.707-15.666-6.707A77.543,77.543,0,0,0,59.128,252.6a69.37,69.37,0,0,0-22.651,14.36,90.247,90.247,0,0,0-15.76,20.731,127.614,127.614,0,0,0-10.455,23.94A203.13,203.13,0,0,0,4.044,337.3,241.575,241.575,0,0,0,.8,362.833c-.531,7.73-.8,15.753-.8,23.857,0,21.089,6.643,38.161,19.743,50.752C32.681,449.867,49.8,456.17,70.618,456.17H263.382c20.818,0,37.931-6.3,50.872-18.728C327.357,424.86,334,407.785,334,386.687,334,378.546,333.725,370.517,333.191,362.824Zm0,0" transform="translate(0 -56.17)" fill="#f5f8ff"/>
</svg>
