<svg xmlns="http://www.w3.org/2000/svg" xmlns:xlink="http://www.w3.org/1999/xlink" width="24" height="24" viewBox="0 0 24 24">
  <defs>
    <clipPath id="clip-path">
      <rect id="Rectangle_2229" data-name="Rectangle 2229" width="24" height="24" transform="translate(872 980)" fill="#fff" stroke="#555" stroke-width="1.5"/>
    </clipPath>
  </defs>
  <g id="Mask_Group_71" data-name="Mask Group 71" transform="translate(-872 -980)" clip-path="url(#clip-path)">
    <g id="building-svgrepo-com" transform="translate(870.651 978.628)">
      <path id="Path_5473" data-name="Path 5473" d="M13.94,24.535H4.55A2.337,2.337,0,0,1,2.2,22.227V5.677c0-2.922,2.175-4.249,4.84-2.944l4.952,2.431a3.8,3.8,0,0,1,1.952,3.1Z" fill="none" stroke="#555" stroke-linecap="round" stroke-linejoin="round" stroke-width="1.5"/>
      <path id="Path_5474" data-name="Path 5474" d="M24.5,16.8v4.216c0,2.409-1.115,3.524-3.524,3.524H13.94V11.621l.524.112,5.019,1.126,2.264.5a3.064,3.064,0,0,1,2.743,3.223A1.281,1.281,0,0,1,24.5,16.8Z" fill="none" stroke="#555" stroke-linecap="round" stroke-linejoin="round" stroke-width="1.5"/>
      <path id="Path_5475" data-name="Path 5475" d="M6.134,10.038H10" fill="none" stroke="#555" stroke-linecap="round" stroke-linejoin="round" stroke-width="1.5"/>
      <path id="Path_5476" data-name="Path 5476" d="M6.134,14.5H10" fill="none" stroke="#555" stroke-linecap="round" stroke-linejoin="round" stroke-width="1.5"/>
      <path id="Path_5477" data-name="Path 5477" d="M19.483,12.859V16.45a2.509,2.509,0,1,1-5.019,0V11.733Z" fill="none" stroke="#555" stroke-linecap="round" stroke-linejoin="round" stroke-width="1.5"/>
      <path id="Path_5478" data-name="Path 5478" d="M24.49,16.584a2.505,2.505,0,0,1-5.007-.134V12.859l2.264.5A3.064,3.064,0,0,1,24.49,16.584Z" fill="none" stroke="#555" stroke-linecap="round" stroke-linejoin="round" stroke-width="1.5"/>
    </g>
  </g>
</svg>
