<svg xmlns="http://www.w3.org/2000/svg" xmlns:xlink="http://www.w3.org/1999/xlink" width="24" height="24" viewBox="0 0 24 24">
  <defs>
    <clipPath id="clip-path">
      <rect id="Rectangle_2224" data-name="Rectangle 2224" width="24" height="24" transform="translate(104 980)" fill="#555" stroke="#707070" stroke-width="0.4"/>
    </clipPath>
  </defs>
  <g id="Mask_Group_68" data-name="Mask Group 68" transform="translate(-104 -980)" clip-path="url(#clip-path)">
    <g id="calendar_3_" data-name="calendar (3)" transform="translate(103.2 979.2)">
      <path id="Path_5462" data-name="Path 5462" d="M5.6,8.4a.8.8,0,0,1,.8-.8H19.2a.8.8,0,0,1,0,1.6H6.4A.8.8,0,0,1,5.6,8.4Z" fill="#555" stroke="#707070" stroke-width="0.4"/>
      <path id="Path_5463" data-name="Path 5463" d="M7.6.8a.8.8,0,0,1,.8.8H18a.8.8,0,0,1,1.6,0v.2A6.4,6.4,0,0,1,24.4,8V18.4A6.4,6.4,0,0,1,18,24.8H7.6a6.4,6.4,0,0,1-6.4-6.4V8A6.4,6.4,0,0,1,6.8,1.65V1.6A.8.8,0,0,1,7.6.8ZM18,3.2v.4a.8.8,0,0,0,1.6,0V3.473A4.8,4.8,0,0,1,22.8,8V18.4A4.8,4.8,0,0,1,18,23.2H7.6a4.8,4.8,0,0,1-4.8-4.8V8a4.8,4.8,0,0,1,4-4.734V3.6a.8.8,0,0,0,1.6,0V3.2Z" fill="#555" stroke="#707070" stroke-width="0.4" fill-rule="evenodd"/>
      <path id="Path_5464" data-name="Path 5464" d="M15.2,18a.8.8,0,0,1,.8-.8h3.2a.8.8,0,0,1,0,1.6H16A.8.8,0,0,1,15.2,18Z" fill="#555" stroke="#707070" stroke-width="0.4"/>
    </g>
  </g>
</svg>
