<svg xmlns="http://www.w3.org/2000/svg" xmlns:xlink="http://www.w3.org/1999/xlink" width="24" height="24" viewBox="0 0 24 24">
  <defs>
    <clipPath id="clip-path">
      <rect id="Rectangle_2225" data-name="Rectangle 2225" width="24" height="24" transform="translate(360 980)" fill="#555" stroke="#555" stroke-width="0.5"/>
    </clipPath>
  </defs>
  <g id="Mask_Group_69" data-name="Mask Group 69" transform="translate(-360 -980)" clip-path="url(#clip-path)">
    <path id="gps" d="M12.464,24.179a2.564,2.564,0,0,1-1.864-.795l-.152-.158C7.782,20.45,3.321,15.8,3.321,9.772A9.141,9.141,0,0,1,12.679.634,8.891,8.891,0,0,1,19.208,3.7a9.648,9.648,0,0,1,2.331,7.361c-.564,5.4-4.629,9.637-7.057,12.167l-.153.159A2.564,2.564,0,0,1,12.464,24.179Zm0-22.426A8.02,8.02,0,0,0,4.443,9.772c0,5.581,4.265,10.024,6.814,12.678l.152.158a1.463,1.463,0,0,0,2.111,0l.152-.159c2.48-2.583,6.227-6.487,6.751-11.507a8.524,8.524,0,0,0-2.057-6.5,7.782,7.782,0,0,0-5.713-2.683h0l-.192,0Zm0,11.759a3.739,3.739,0,1,1,3.74-3.74A3.744,3.744,0,0,1,12.464,13.512Zm0-6.357a2.618,2.618,0,1,0,2.619,2.616A2.621,2.621,0,0,0,12.464,7.155Z" transform="translate(359.544 979.595)" fill="#555" stroke="#555" stroke-width="0.5"/>
  </g>
</svg>
