<svg xmlns="http://www.w3.org/2000/svg" xmlns:xlink="http://www.w3.org/1999/xlink" width="24" height="24" viewBox="0 0 24 24">
  <defs>
    <clipPath id="clip-path">
      <rect id="Rectangle_2226" data-name="Rectangle 2226" width="24" height="24" transform="translate(616 980)" fill="#555" stroke="#545554" stroke-width="1"/>
    </clipPath>
  </defs>
  <g id="Mask_Group_70" data-name="Mask Group 70" transform="translate(-616 -980)" clip-path="url(#clip-path)">
    <g id="human-resources_1_" data-name="human-resources (1)" transform="translate(613.339 973.477)">
      <g id="Group_137" data-name="Group 137" transform="translate(4.908 6.523)">
        <g id="Group_127" data-name="Group 127" transform="translate(0 13.247)">
          <path id="Path_5466" data-name="Path 5466" d="M24.03,26.92H5.408a.529.529,0,0,1-.36-.149.5.5,0,0,1-.139-.36l.124-4.64a5.732,5.732,0,0,1,5.758-5.6.512.512,0,0,1,.33.124l.783.685a4.238,4.238,0,0,0,5.608-.015l.747-.664a.5.5,0,0,1,.33-.129,5.792,5.792,0,0,1,5.742,5.294l.191,4.944a.509.509,0,0,1-.139.366A.469.469,0,0,1,24.03,26.92Zm-18.112-1H23.51l-.17-4.4a4.789,4.789,0,0,0-4.563-4.352l-.6.536a5.243,5.243,0,0,1-6.937.021l-.633-.556A4.741,4.741,0,0,0,6.026,21.8Z" transform="translate(-4.908 -16.167)" fill="#555" stroke="#545554" stroke-width="0.375"/>
        </g>
        <g id="Group_130" data-name="Group 130" transform="translate(4.718 6.521)">
          <g id="Group_128" data-name="Group 128" transform="translate(8.496 0.002)">
            <path id="Path_5467" data-name="Path 5467" d="M15.029,14.407a.5.5,0,0,1-.036-1,.531.531,0,0,0,.433-.566.583.583,0,0,0-.263-.51A.4.4,0,0,0,15,12.269a.5.5,0,0,1-.433-.556.5.5,0,0,1,.556-.438,1.41,1.41,0,0,1,.577.206,1.6,1.6,0,0,1,.731,1.36,1.522,1.522,0,0,1-1.365,1.56.1.1,0,0,1-.036.005Z" transform="translate(-14.528 -11.272)" fill="#555" stroke="#545554" stroke-width="0.375"/>
          </g>
          <g id="Group_129" data-name="Group 129">
            <path id="Path_5468" data-name="Path 5468" d="M9.692,14.4A.365.365,0,0,1,9.62,14.4a1.546,1.546,0,0,1-1.277-1.555,1.617,1.617,0,0,1,.546-1.226,1.4,1.4,0,0,1,.922-.345.5.5,0,0,1,.5.5.5.5,0,0,1-.494.5.422.422,0,0,0-.278.1.628.628,0,0,0-.2.469.556.556,0,0,0,.417.566.5.5,0,0,1-.067.994Z" transform="translate(-8.342 -11.271)" fill="#555" stroke="#545554" stroke-width="0.375"/>
          </g>
        </g>
        <g id="Group_136" data-name="Group 136" transform="translate(4.528)">
          <g id="Group_132" data-name="Group 132" transform="translate(1.039 8.658)">
            <g id="Group_131" data-name="Group 131">
              <path id="Path_5469" data-name="Path 5469" d="M13.287,17.529c-2.142,0-3.878-2.086-4.316-4.1a.5.5,0,1,1,.973-.211c.345,1.6,1.72,3.317,3.337,3.317,1.442,0,2.951-1.756,3.337-3.322a.5.5,0,0,1,.968.237c-.479,1.967-2.328,4.079-4.3,4.079Z" transform="translate(-8.961 -12.826)" fill="#555" stroke="#545554" stroke-width="0.375"/>
            </g>
          </g>
          <g id="Group_133" data-name="Group 133">
            <path id="Path_5470" data-name="Path 5470" d="M18,14.357a.574.574,0,0,1-.16-.026.5.5,0,0,1-.314-.633,6.3,6.3,0,0,0,.314-3.224,3.618,3.618,0,0,0-1.586-2.328,3.84,3.84,0,0,0-2.9-.546,6.449,6.449,0,0,0-2.6,1.287.5.5,0,0,1-.376.124.88.88,0,0,0-.86.263c-.489.592-.4,2.225.227,4.357a.5.5,0,0,1-.958.288c-.767-2.6-.783-4.377-.041-5.279a1.766,1.766,0,0,1,1.514-.633,7.442,7.442,0,0,1,2.884-1.38,4.852,4.852,0,0,1,3.656.69,4.606,4.606,0,0,1,2.019,2.971,7.239,7.239,0,0,1-.345,3.734A.517.517,0,0,1,18,14.357Z" transform="translate(-8.204 -6.523)" fill="#555" stroke="#545554" stroke-width="0.375"/>
          </g>
          <g id="Group_134" data-name="Group 134" transform="translate(6.629 4.495)">
            <path id="Path_5471" data-name="Path 5471" d="M15.619,12.826a.5.5,0,0,1-.494-.417,1.933,1.933,0,0,0-.417-1.025,2.309,2.309,0,0,0-1.267-.6.5.5,0,1,1,.18-.984,3.224,3.224,0,0,1,1.828.912,2.882,2.882,0,0,1,.659,1.53.493.493,0,0,1-.412.572A.2.2,0,0,1,15.619,12.826Z" transform="translate(-13.03 -9.796)" fill="#555" stroke="#545554" stroke-width="0.375"/>
          </g>
          <g id="Group_135" data-name="Group 135" transform="translate(1.167 4.499)">
            <path id="Path_5472" data-name="Path 5472" d="M9.555,12.82a.471.471,0,0,1-.082-.005.5.5,0,0,1-.412-.572,3.878,3.878,0,0,1,.968-2.287.5.5,0,0,1,.613.041c1.864,1.658,3.971-.015,4.063-.088a.5.5,0,1,1,.628.772,4.207,4.207,0,0,1-4.923.4,5.3,5.3,0,0,0-.36,1.324.5.5,0,0,1-.494.417Z" transform="translate(-9.053 -9.798)" fill="#555" stroke="#545554" stroke-width="0.375"/>
          </g>
        </g>
      </g>
    </g>
  </g>
</svg>
