<svg width="32" height="32" viewBox="0 0 32 32" fill="none" xmlns="http://www.w3.org/2000/svg">
<mask id="path-1-inside-1_0_1" fill="white">
<path d="M19.8499 12.1506C18.8638 11.165 17.5028 10.5556 15.9998 10.5556C12.9936 10.5556 10.5556 12.9931 10.5556 15.9998C10.5556 19.0064 12.9936 21.4444 15.9998 21.4444C18.7409 21.4444 21.0034 19.4152 21.3817 16.7777H15.9998V15.2221H21.3817H22.9995V15.9998C22.9995 16.263 22.982 16.5219 22.954 16.7777C22.5667 20.2778 19.6028 23 15.9998 23C12.1338 23 9 19.8662 9 15.9998C9 12.1343 12.1338 9 15.9998 9C17.9326 9 19.6826 9.78374 20.9495 11.0507L19.8499 12.1506Z"/>
</mask>
<path d="M19.8499 12.1506L18.436 13.5651L19.8504 14.9788L21.2642 13.5647L19.8499 12.1506ZM21.3817 16.7777L23.3614 17.0616L23.6889 14.7777H21.3817V16.7777ZM15.9998 16.7777H13.9998V18.7777H15.9998V16.7777ZM15.9998 15.2221V13.2221H13.9998V15.2221H15.9998ZM22.9995 15.2221H24.9995V13.2221H22.9995V15.2221ZM22.954 16.7777L24.9419 16.9977L24.9422 16.9954L22.954 16.7777ZM20.9495 11.0507L22.3639 12.4648L23.7778 11.0505L22.3637 9.63648L20.9495 11.0507ZM21.2638 10.736C19.9184 9.39131 18.0549 8.55558 15.9998 8.55558V12.5556C16.9508 12.5556 17.8093 12.9387 18.436 13.5651L21.2638 10.736ZM15.9998 8.55558C11.8891 8.55558 8.55558 11.8885 8.55558 15.9998H12.5556C12.5556 14.0978 14.0981 12.5556 15.9998 12.5556V8.55558ZM8.55558 15.9998C8.55558 20.1109 11.8889 23.4444 15.9998 23.4444V19.4444C14.0983 19.4444 12.5556 17.9019 12.5556 15.9998H8.55558ZM15.9998 23.4444C19.754 23.4444 22.8446 20.6658 23.3614 17.0616L19.4019 16.4938C19.1623 18.1646 17.7278 19.4444 15.9998 19.4444V23.4444ZM21.3817 14.7777H15.9998V18.7777H21.3817V14.7777ZM17.9998 16.7777V15.2221H13.9998V16.7777H17.9998ZM15.9998 17.2221H21.3817V13.2221H15.9998V17.2221ZM21.3817 17.2221H22.9995V13.2221H21.3817V17.2221ZM20.9995 15.2221V15.9998H24.9995V15.2221H20.9995ZM20.9995 15.9998C20.9995 16.1747 20.9879 16.3593 20.9659 16.56L24.9422 16.9954C24.9762 16.6846 24.9995 16.3512 24.9995 15.9998H20.9995ZM20.9662 16.5577C20.6896 19.0572 18.5707 21 15.9998 21V25C20.6348 25 24.4438 21.4984 24.9419 16.9976L20.9662 16.5577ZM15.9998 21C13.2385 21 11 18.7617 11 15.9998H7C7 20.9707 11.0291 25 15.9998 25V21ZM11 15.9998C11 13.2387 13.2385 11 15.9998 11V7C11.0291 7 7 11.0298 7 15.9998H11ZM15.9998 11C17.3807 11 18.6279 11.5575 19.5353 12.4649L22.3637 9.63648C20.7372 8.00997 18.4846 7 15.9998 7V11ZM19.5352 9.63663L18.4355 10.7365L21.2642 13.5647L22.3639 12.4648L19.5352 9.63663Z" fill="#222222" mask="url(#path-1-inside-1_0_1)"/>
<circle cx="16" cy="16" r="15.5" stroke="#222222"/>
</svg>
