<svg xmlns="http://www.w3.org/2000/svg" xmlns:xlink="http://www.w3.org/1999/xlink" width="24.186" height="24" viewBox="0 0 24.186 24">
  <defs>
    <clipPath id="clip-path">
      <rect id="Rectangle_2119" data-name="Rectangle 2119" width="24" height="24" transform="translate(716 97)" fill="#555" stroke="#707070" stroke-width="1"/>
    </clipPath>
  </defs>
  <g id="Group_350" data-name="Group 350" transform="translate(-716 -97)">
    <path id="Path_5510" data-name="Path 5510" d="M53.487,77.114c-1.226.151-2.453.189-3.686.377-3,.458-6.765,3.214-6.782,6.521-.021,4.319,4.9,7.123,7.647,8,1.751.561,2.776,2.243,4.343,3.105a4.537,4.537,0,0,0,3.893-.093,5.582,5.582,0,0,0,2.9-6.8c-1.136-3.779,2.542-5.1,1.037-8.36-1.436-3.107-4.611-3.824-7.683-3.056A13.751,13.751,0,0,1,53.487,77.114Z" transform="translate(676.98 25.469)" fill="rgba(56,128,255,0.16)" style="mix-blend-mode: multiply;isolation: isolate"/>
    <g id="Mask_Group_81" data-name="Mask Group 81" clip-path="url(#clip-path)">
      <g id="heartbeat" transform="translate(716 97)">
        <path id="Path_5508" data-name="Path 5508" d="M11.982,22.431a.516.516,0,0,1-.373-.159L6.182,16.6,2.624,12.88l-.015-.017A6.729,6.729,0,0,1,.833,7.787,6.847,6.847,0,0,1,2.946,3.451,6.589,6.589,0,0,1,7.3,1.572a6.84,6.84,0,0,1,4.68,1.775,6.585,6.585,0,0,1,4.566-1.753,6.814,6.814,0,0,1,4.438,1.822,6.622,6.622,0,0,1,2.165,4.242,7.016,7.016,0,0,1-1.766,5.179.514.514,0,0,1-.037.044l-7.9,8.26-1.083,1.132a.516.516,0,0,1-.372.159Zm-8.6-10.255,3.549,3.71,5.055,5.284.71-.742,7.886-8.243c2.525-3.034,1.671-6.208-.3-8.009a5.551,5.551,0,0,0-7.937.237.516.516,0,0,1-.719.009C8.779,1.716,5.573,2.358,3.66,4.2a5.587,5.587,0,0,0-.282,7.98Z" fill="#555"/>
        <path id="Path_5509" data-name="Path 5509" d="M13.566,16.689a.516.516,0,0,1-.493-.363l-1.462-4.721H9.685a.516.516,0,0,1-.491-.357L8.144,8,6.991,11.391a.516.516,0,0,1-.488.35H.516a.516.516,0,1,1,0-1.031H6.134L7.668,6.2a.516.516,0,0,1,.488-.35h0a.516.516,0,0,1,.487.357l1.413,4.371h1.931a.516.516,0,0,1,.493.363l1.067,3.444,2.271-7.808a.516.516,0,0,1,.994.013l1.2,4.555h5.469a.516.516,0,0,1,0,1.031H17.618a.516.516,0,0,1-.5-.384l-.828-3.141-2.231,7.67a.516.516,0,0,1-.491.372h0Z" fill="#555"/>
      </g>
    </g>
  </g>
</svg>
