<svg xmlns="http://www.w3.org/2000/svg" xmlns:xlink="http://www.w3.org/1999/xlink" width="14" height="14" viewBox="0 0 14 14">
  <defs>
    <clipPath id="clip-path">
      <rect id="Rectangle_2355" data-name="Rectangle 2355" width="14" height="14" transform="translate(365 984)" fill="#fff"/>
    </clipPath>
  </defs>
  <g id="Mask_Group_124" data-name="Mask Group 124" transform="translate(-365 -984)" clip-path="url(#clip-path)">
    <path id="edit-svgrepo-com_1_" data-name="edit-svgrepo-com (1)" d="M2.957,12.491l-.974,2.6A.556.556,0,0,0,2.7,15.8l2.6-.974a2.223,2.223,0,0,0,.792-.509l7.52-7.52a4.5,4.5,0,0,0-1.048-1.573,4.5,4.5,0,0,0-1.573-1.048L3.466,11.7A2.223,2.223,0,0,0,2.957,12.491Zm9.078-9.361L13.06,2.106a.8.8,0,0,1,.686-.258,2.626,2.626,0,0,1,1.433.76,2.628,2.628,0,0,1,.76,1.433.8.8,0,0,1-.258.686L14.655,5.751A4.487,4.487,0,0,0,13.607,4.18a4.482,4.482,0,0,0-1.572-1.049Z" transform="translate(363.052 982.161)" fill="#fff" fill-rule="evenodd"/>
  </g>
</svg>
