<svg xmlns="http://www.w3.org/2000/svg" xmlns:xlink="http://www.w3.org/1999/xlink" width="20" height="20" viewBox="0 0 20 20">
  <defs>
    <clipPath id="clip-path">
      <rect id="Rectangle_2359" data-name="Rectangle 2359" width="20" height="20" transform="translate(1316 327)" fill="#fff" stroke="#707070" stroke-width="1"/>
    </clipPath>
  </defs>
  <g id="Mask_Group_125" data-name="Mask Group 125" transform="translate(-1316 -327)" clip-path="url(#clip-path)">
    <g id="trash" transform="translate(1314.474 325.78)">
      <path id="Path_5599" data-name="Path 5599" d="M9.922,1.22H9.877a3.642,3.642,0,0,0-.569.027A2.2,2.2,0,0,0,7.707,2.4a3.644,3.644,0,0,0-.206.531l-.014.043-.095.284-.028.083a1.22,1.22,0,0,1-1.116.8H3.234a.732.732,0,1,0,0,1.463H19.819a.732.732,0,1,0,0-1.463H16.8a1.219,1.219,0,0,1-1.116-.8l-.028-.083-.095-.284-.014-.043a3.639,3.639,0,0,0-.206-.531,2.195,2.195,0,0,0-1.6-1.154,3.642,3.642,0,0,0-.569-.027H9.922ZM8.741,3.839a2.689,2.689,0,0,1-.133.307h5.838a2.679,2.679,0,0,1-.133-.307l-.038-.111-.1-.292a3.047,3.047,0,0,0-.13-.36.732.732,0,0,0-.534-.385,3.04,3.04,0,0,0-.383-.009H9.922a3.038,3.038,0,0,0-.383.009.732.732,0,0,0-.534.385,3.04,3.04,0,0,0-.13.36l-.1.292c-.015.044-.026.078-.038.11Z" fill="#fff" fill-rule="evenodd"/>
      <path id="Path_5600" data-name="Path 5600" d="M4.992,7.563a.732.732,0,0,1,.779.681l.449,6.731a25.287,25.287,0,0,0,.287,2.918,2.194,2.194,0,0,0,.585,1.271,2.194,2.194,0,0,0,1.307.5,25.291,25.291,0,0,0,2.931.092h.754a25.291,25.291,0,0,0,2.931-.092,2.194,2.194,0,0,0,1.307-.5,2.194,2.194,0,0,0,.585-1.271,25.289,25.289,0,0,0,.287-2.918l.449-6.731a.732.732,0,1,1,1.46.1l-.452,6.782a25.86,25.86,0,0,1-.309,3.056,3.622,3.622,0,0,1-1.021,2.053,3.622,3.622,0,0,1-2.117.882,25.853,25.853,0,0,1-3.069.1h-.857a25.852,25.852,0,0,1-3.069-.1,3.622,3.622,0,0,1-2.117-.882,3.622,3.622,0,0,1-1.021-2.053,25.844,25.844,0,0,1-.309-3.056L4.31,8.341a.732.732,0,0,1,.681-.779Z" fill="#fff" fill-rule="evenodd"/>
    </g>
  </g>
</svg>
