<svg xmlns="http://www.w3.org/2000/svg" xmlns:xlink="http://www.w3.org/1999/xlink" width="12" height="12" viewBox="0 0 12 12">
  <defs>
    <clipPath id="clip-path">
      <rect id="Rectangle_2459" data-name="Rectangle 2459" width="12" height="12" transform="translate(1385 1777)" fill="#fff"/>
    </clipPath>
  </defs>
  <g id="Mask_Group_159" data-name="Mask Group 159" transform="translate(-1385 -1777)" clip-path="url(#clip-path)">
    <g id="instagram_2_" data-name="instagram (2)" transform="translate(1385 1777)">
      <path id="Path_5665" data-name="Path 5665" d="M8.752,0h-5.5A3.252,3.252,0,0,0,0,3.248v5.5A3.252,3.252,0,0,0,3.248,12h5.5A3.252,3.252,0,0,0,12,8.752v-5.5A3.252,3.252,0,0,0,8.752,0ZM11.3,8.752A2.548,2.548,0,0,1,8.752,11.3h-5.5A2.548,2.548,0,0,1,.7,8.752v-5.5A2.548,2.548,0,0,1,3.248.7h5.5A2.548,2.548,0,0,1,11.3,3.248Zm0,0" fill="#fff"/>
      <path id="Path_5666" data-name="Path 5666" d="M6,2.719A3.281,3.281,0,1,0,9.281,6,3.285,3.285,0,0,0,6,2.719ZM6,8.578A2.578,2.578,0,1,1,8.578,6,2.581,2.581,0,0,1,6,8.578Zm0,0" fill="#fff"/>
      <path id="Path_5667" data-name="Path 5667" d="M9.36,1.554a.97.97,0,1,0,.97.97A.971.971,0,0,0,9.36,1.554Zm0,1.236a.266.266,0,1,1,.266-.266A.266.266,0,0,1,9.36,2.789Zm0,0" fill="#fff"/>
    </g>
  </g>
</svg>
