<svg xmlns="http://www.w3.org/2000/svg" xmlns:xlink="http://www.w3.org/1999/xlink" width="24.186" height="24" viewBox="0 0 24.186 24">
  <defs>
    <clipPath id="clip-path">
      <rect id="Rectangle_2113" data-name="Rectangle 2113" width="24" height="24" transform="translate(151 97)" fill="#fff" stroke="#555" stroke-width="1"/>
    </clipPath>
  </defs>
  <g id="Group_344" data-name="Group 344" transform="translate(-151 -97)">
    <path id="Path_5441" data-name="Path 5441" d="M53.487,77.114c-1.226.151-2.453.189-3.686.377-3,.458-6.765,3.214-6.782,6.521-.021,4.319,4.9,7.123,7.647,8,1.751.561,2.776,2.243,4.343,3.105a4.537,4.537,0,0,0,3.893-.093,5.582,5.582,0,0,0,2.9-6.8c-1.136-3.779,2.542-5.1,1.037-8.36-1.436-3.107-4.611-3.824-7.683-3.056A13.751,13.751,0,0,1,53.487,77.114Z" transform="translate(111.98 25.469)" fill="rgba(56,128,255,0.16)" style="mix-blend-mode: multiply;isolation: isolate"/>
    <g id="Mask_Group_63" data-name="Mask Group 63" clip-path="url(#clip-path)">
      <g id="tshirt" transform="translate(151 98.459)">
        <g id="Group_114" data-name="Group 114">
          <path id="Path_5438" data-name="Path 5438" d="M18.974,11.746l4.008-1.493s-.4-2.814-.685-5.011a3.211,3.211,0,0,0-1.974-2.566L15.047.516H8.953L3.581,2.676A3.211,3.211,0,0,0,1.608,5.242c-.281,2.2-.59,5.011-.59,5.011L5.03,11.76" fill="none" stroke="#555" stroke-linejoin="round" stroke-width="1.031"/>
          <path id="Path_5439" data-name="Path 5439" d="M18.97,20.567H5.03V7.977" fill="none" stroke="#555" stroke-linecap="round" stroke-linejoin="round" stroke-width="1.031"/>
          <line id="Line_8" data-name="Line 8" y2="12.523" transform="translate(18.97 7.977)" fill="none" stroke="#555" stroke-linecap="round" stroke-linejoin="round" stroke-width="1.031"/>
          <path id="Path_5440" data-name="Path 5440" d="M15.047.516a3.047,3.047,0,0,1-6.095,0" fill="none" stroke="#555" stroke-linejoin="round" stroke-width="1.031"/>
        </g>
      </g>
    </g>
  </g>
</svg>
