<svg xmlns="http://www.w3.org/2000/svg" xmlns:xlink="http://www.w3.org/1999/xlink" width="24" height="24" viewBox="0 0 24 24">
  <defs>
    <clipPath id="clip-path">
      <rect id="Rectangle_2113" data-name="Rectangle 2113" width="24" height="24" transform="translate(151 97)" fill="#fff" stroke="#555" stroke-width="1"/>
    </clipPath>
  </defs>
  <g id="Mask_Group_63" data-name="Mask Group 63" transform="translate(-151 -97)" clip-path="url(#clip-path)">
    <g id="tshirt" transform="translate(151 98.459)">
      <g id="Group_114" data-name="Group 114">
        <path id="Path_5438" data-name="Path 5438" d="M18.974,11.746l4.008-1.493s-.4-2.814-.685-5.011a3.211,3.211,0,0,0-1.974-2.566L15.047.516H8.953L3.581,2.676A3.211,3.211,0,0,0,1.608,5.242c-.281,2.2-.59,5.011-.59,5.011L5.03,11.76" fill="none" stroke="#555" stroke-linejoin="round" stroke-miterlimit="10" stroke-width="1.031"/>
        <path id="Path_5439" data-name="Path 5439" d="M18.97,20.567H5.03V7.977" fill="none" stroke="#555" stroke-linecap="round" stroke-linejoin="round" stroke-miterlimit="10" stroke-width="1.031"/>
        <line id="Line_8" data-name="Line 8" y2="12.523" transform="translate(18.97 7.977)" fill="none" stroke="#555" stroke-linecap="round" stroke-linejoin="round" stroke-miterlimit="10" stroke-width="1.031"/>
        <path id="Path_5440" data-name="Path 5440" d="M15.047.516a3.047,3.047,0,0,1-6.095,0" fill="none" stroke="#555" stroke-linejoin="round" stroke-miterlimit="10" stroke-width="1.031"/>
      </g>
    </g>
  </g>
</svg>
