<svg xmlns="http://www.w3.org/2000/svg" xmlns:xlink="http://www.w3.org/1999/xlink" width="20" height="20" viewBox="0 0 20 20">
  <defs>
    <clipPath id="clip-path">
      <rect id="Rectangle_5258" data-name="Rectangle 5258" width="20" height="20" transform="translate(1276 32)" fill="#fff" stroke="#fff" stroke-width="0.3"/>
    </clipPath>
  </defs>
  <g id="Light_mode" data-name="Light mode" transform="translate(-1276 -32)" clip-path="url(#clip-path)">
    <g id="brightness" transform="translate(1276.439 32.439)">
      <path id="Path_39255" data-name="Path 39255" d="M8.092,2.924a.561.561,0,0,0,.561-.561V.561a.561.561,0,1,0-1.122,0v1.8A.561.561,0,0,0,8.092,2.924Z" transform="translate(1.481)" fill="#fff" stroke="#fff" stroke-width="0.3"/>
      <path id="Path_39256" data-name="Path 39256" d="M8.092,13.556a.561.561,0,0,0-.561.561v1.8a.561.561,0,1,0,1.122,0v-1.8A.561.561,0,0,0,8.092,13.556Z" transform="translate(1.481 2.666)" fill="#fff" stroke="#fff" stroke-width="0.3"/>
      <path id="Path_39257" data-name="Path 39257" d="M15.92,7.531h-1.8a.561.561,0,1,0,0,1.122h1.8a.561.561,0,1,0,0-1.122Z" transform="translate(2.666 1.481)" fill="#fff" stroke="#fff" stroke-width="0.3"/>
      <path id="Path_39258" data-name="Path 39258" d="M2.924,8.092a.561.561,0,0,0-.561-.561H.561a.561.561,0,1,0,0,1.122h1.8A.561.561,0,0,0,2.924,8.092Z" transform="translate(0 1.481)" fill="#fff" stroke="#fff" stroke-width="0.3"/>
      <path id="Path_39259" data-name="Path 39259" d="M12.749,4.438l1.274-1.274a.561.561,0,1,0-.793-.793L11.956,3.645a.561.561,0,1,0,.793.793Z" transform="translate(2.319 0.434)" fill="#fff" stroke="#fff" stroke-width="0.3"/>
      <path id="Path_39260" data-name="Path 39260" d="M3.645,11.956,2.37,13.23a.561.561,0,0,0,.793.793l1.274-1.274a.561.561,0,0,0-.793-.793Z" transform="translate(0.434 2.319)" fill="#fff" stroke="#fff" stroke-width="0.3"/>
      <path id="Path_39261" data-name="Path 39261" d="M12.749,11.956a.561.561,0,1,0-.793.793l1.274,1.274a.561.561,0,0,0,.793-.793Z" transform="translate(2.319 2.319)" fill="#fff" stroke="#fff" stroke-width="0.3"/>
      <path id="Path_39262" data-name="Path 39262" d="M3.645,4.438a.561.561,0,1,0,.793-.793L3.163,2.37a.561.561,0,1,0-.793.793Z" transform="translate(0.434 0.434)" fill="#fff" stroke="#fff" stroke-width="0.3"/>
      <path id="Path_39263" data-name="Path 39263" d="M8.783,4.017A4.767,4.767,0,1,0,13.55,8.783,4.772,4.772,0,0,0,8.783,4.017Zm0,8.412a3.645,3.645,0,1,1,3.645-3.645A3.649,3.649,0,0,1,8.783,12.428Z" transform="translate(0.79 0.79)" fill="#fff" stroke="#fff" stroke-width="0.3"/>
    </g>
  </g>
</svg>
