<svg id="_x31_0.Linkedin" xmlns="http://www.w3.org/2000/svg" width="13" height="13" viewBox="0 0 13 13">
  <path id="Path_419" data-name="Path 419" d="M19.891,19.479V14.718c0-2.34-.5-4.127-3.234-4.127a2.822,2.822,0,0,0-2.551,1.4h-.033V10.8H11.49v8.677h2.7V15.173c0-1.137.211-2.226,1.609-2.226,1.381,0,1.4,1.284,1.4,2.291v4.225h2.7Z" transform="translate(-6.891 -6.479)" fill="#fff"/>
  <path id="Path_420" data-name="Path 420" d="M3.39,10.98h2.7v8.678H3.39Z" transform="translate(-3.179 -6.657)" fill="#fff"/>
  <path id="Path_421" data-name="Path 421" d="M4.56,3A1.568,1.568,0,1,0,6.12,4.56,1.56,1.56,0,0,0,4.56,3Z" transform="translate(-3 -3)" fill="#fff"/>
</svg>
