<svg width="15" height="16" viewBox="0 0 15 16" fill="none" xmlns="http://www.w3.org/2000/svg">
<path d="M7.52511 0.916808H11.6887C12.8202 0.916808 13.7383 1.84041 13.7383 2.97114L13.7383 13.0289C13.7383 14.163 12.8168 15.0832 11.6887 15.0832H7.45735C7.20327 15.0832 7 15.2869 7 15.5416C7 15.7963 7.20327 16 7.45735 16H11.6887C13.325 16 14.653 14.6655 14.653 13.0289L14.653 2.97114C14.653 1.33107 13.3216 -3.07212e-07 11.6887 -3.07212e-07H7.52511C7.27102 -3.07212e-07 7.06776 0.203735 7.06776 0.458404C7.06776 0.713073 7.27441 0.916808 7.52511 0.916808Z" fill="#000302"/>
<path d="M11.1628 8.04839L8.25604 5.13497C8.07649 4.95501 7.78853 4.95501 7.60897 5.13497C7.42942 5.31494 7.42942 5.60357 7.60897 5.78353L9.7365 7.91596H0.457351C0.203267 7.91596 0 8.11969 0 8.37436C0 8.62903 0.203267 8.83277 0.457351 8.83277H9.7365L7.60897 10.9652C7.42942 11.1452 7.42942 11.4338 7.60897 11.6138C7.69705 11.702 7.81563 11.7496 7.93081 11.7496C8.046 11.7496 8.16457 11.7054 8.25265 11.6138L11.1594 8.70034C11.3423 8.51698 11.3423 8.22496 11.1628 8.04839Z" fill="#000302"/>
</svg>
