<svg width="15" height="16" viewBox="0 0 15 16" fill="none" xmlns="http://www.w3.org/2000/svg">
<path d="M7.12547 15.0832H2.96187C1.83035 15.0832 0.912262 14.1596 0.912262 13.0289V2.97114C0.912262 1.83701 1.83374 0.916808 2.96187 0.916808H7.19322C7.44731 0.916808 7.65057 0.713073 7.65057 0.458404C7.65057 0.203735 7.44731 0 7.19322 0H2.96187C1.32557 0 -0.00244141 1.33447 -0.00244141 2.97114V13.0289C-0.00244141 14.6689 1.32896 16 2.96187 16H7.12547C7.37955 16 7.58282 15.7963 7.58282 15.5416C7.58282 15.2869 7.37616 15.0832 7.12547 15.0832Z" fill="black"/>
<path d="M14.6601 7.67742L11.7534 4.764C11.5738 4.58404 11.2858 4.58404 11.1063 4.764C10.9267 4.94397 10.9267 5.23259 11.1063 5.41256L13.2338 7.54499H3.95467C3.70058 7.54499 3.49731 7.74872 3.49731 8.00339C3.49731 8.25806 3.70058 8.4618 3.95467 8.4618H13.2338L11.1063 10.5942C10.9267 10.7742 10.9267 11.0628 11.1063 11.2428C11.1944 11.3311 11.3129 11.3786 11.4281 11.3786C11.5433 11.3786 11.6619 11.3345 11.75 11.2428L14.6567 8.32937C14.8396 8.14601 14.8396 7.85399 14.6601 7.67742Z" fill="black"/>
</svg>
