<svg width="157" height="20" viewBox="0 0 157 20" fill="none" xmlns="http://www.w3.org/2000/svg">
<path d="M25.7544 19.9901C28.8328 20.1553 31.6059 18.1684 32.397 15.232C33.0909 12.0685 31.5495 9.94249 28.0322 7.91732C26.9315 7.28429 26.8768 6.72778 26.9792 6.27214C27.0312 5.86693 27.4415 5.4878 28.2369 5.4878C29.1475 5.61206 29.9754 6.08323 30.5485 6.80343L34.0919 3.71654C33.3399 2.81414 32.3965 2.09139 31.3305 1.60098C30.2644 1.11057 29.1027 0.864871 27.9299 0.881811C25.0561 0.707032 22.4479 2.5296 21.6646 5.25998C20.9967 8.22079 22.5121 10.5494 25.8498 12.4911C27.0815 13.225 27.2108 13.8329 27.1076 14.3894C27.0352 14.6893 26.8585 14.9535 26.6091 15.1344C26.3598 15.3153 26.0543 15.4011 25.7475 15.3763C23.9502 15.3763 22.5381 13.3268 22.5381 13.3268L18.8403 16.118C20.2837 18.5275 22.9154 20.0023 25.7544 19.9901ZM44.6629 0.875724C45.4749 0.836386 46.2852 0.981792 47.0332 1.30104C47.7811 1.6203 48.4473 2.10512 48.9817 2.71916C49.5074 3.32412 49.884 4.04432 50.0814 4.8218C50.2787 5.59929 50.2913 6.41236 50.118 7.19559C49.5542 10.4268 46.5625 12.6998 43.2256 12.4329H41.091L39.6216 19.1301H34.0919L38.1036 0.875724H44.6629ZM43.7886 5.39998H42.6375L42.072 8.0434H43.3323C44.093 8.07819 44.7583 7.54776 44.8754 6.81039L44.8676 6.81734C44.9119 6.64311 44.9137 6.46076 44.8729 6.28567C44.8322 6.11058 44.75 5.94788 44.6334 5.81128C44.5148 5.67263 44.3657 5.56342 44.1979 5.49222C44.0301 5.42101 43.8482 5.38973 43.6663 5.40085L43.7886 5.39998ZM56.5038 19.9875C60.5668 20.2153 64.1162 17.2832 64.6358 13.2703L67.2857 0.869638H61.6996L59.1798 12.6503C58.9456 13.8129 58.3748 14.4068 57.3869 14.4068C56.0623 14.4068 55.7171 13.6068 55.9583 12.5981L58.452 0.869638H52.866L50.4546 12.2885C49.392 17.3267 52.4244 19.9875 56.5038 19.9875ZM78.9019 0.874855C79.6925 0.837875 80.4812 0.980751 81.2089 1.29277C81.9365 1.6048 82.5843 2.07788 83.1036 2.67656C83.6154 3.26734 83.9824 3.96984 84.1753 4.72802C84.3682 5.4862 84.3818 6.27908 84.2148 7.04342C83.8591 9.07469 82.4774 10.7912 80.5465 11.5999L83.6466 19.1301H77.8021L75.2189 12.1807L73.6984 19.1301H68.1834L72.1223 0.874855H78.9019ZM77.7769 5.40694H77.0813L76.363 8.706H77.3155C78.2618 8.76165 79.1006 8.1121 79.2654 7.19473C79.33 6.97627 79.3396 6.74517 79.2932 6.5221C79.2469 6.29903 79.1461 6.09095 79 5.91649C78.7024 5.55998 78.2453 5.36868 77.7769 5.40694Z" fill="#2FACD6"/>
<path d="M99.5831 0.869751H85.4618L84.3315 5.98269H88.6191L85.7697 19.1302H91.2899L94.1393 5.98269H98.4529L99.5831 0.869751Z" fill="#2FACD6"/>
<path d="M109.498 19.9857C112.551 20.1483 115.494 18.8474 117.402 16.4936L113.399 13.3293C112.969 13.8098 112.443 14.1936 111.855 14.4554C111.267 14.7173 110.63 14.8512 109.986 14.8484C109.368 14.8418 108.759 14.6949 108.206 14.4187C107.652 14.1425 107.168 13.7442 106.79 13.2536C106.417 12.7679 106.161 12.202 106.043 11.6004C105.925 10.9988 105.948 10.378 106.11 9.78676C106.472 7.60854 108.382 6.01118 110.62 6.01553C112.32 6.02857 113.828 7.09116 114.393 8.67287L119.32 6.52161C118.074 3.11211 114.782 0.849548 111.107 0.878243C106.006 0.678247 101.547 4.24165 100.687 9.20416C100.4 10.5039 100.412 11.8521 100.722 13.1466C101.031 14.4412 101.631 15.6481 102.474 16.6762C103.328 17.7145 104.4 18.5499 105.615 19.1222C106.829 19.6945 108.155 19.9894 109.498 19.9857ZM119.32 19.9996H124.577L126.416 13.2197L129.295 19.504L134.678 13.8197L133.771 19.9996H139.002L141.748 0L130.844 10.8737L125.04 0L119.32 19.9996ZM148.651 19.99C151.734 20.1587 154.512 18.1709 155.304 15.2319C155.998 12.0676 154.457 9.94154 150.938 7.91723C149.836 7.2842 149.781 6.72769 149.885 6.27205C149.936 5.86684 150.347 5.48771 151.142 5.48771C152.053 5.61193 152.881 6.08309 153.455 6.80334L157 3.71645C156.247 2.81388 155.303 2.09105 154.237 1.60064C153.17 1.11024 152.008 0.864632 150.834 0.881721C147.961 0.706942 145.351 2.52951 144.567 5.25989C143.899 8.2207 145.415 10.5494 148.754 12.4911C149.987 13.2249 150.116 13.8319 150.012 14.3893C149.94 14.6893 149.763 14.9537 149.513 15.1346C149.264 15.3155 148.958 15.4012 148.651 15.3762C146.853 15.3762 145.44 13.3258 145.44 13.3258L141.748 16.1171C143.189 18.5231 145.817 19.9961 148.651 19.99Z" fill="#2FACD6"/>
<path d="M16.452 11.113H6.80305C6.63201 11.0862 6.4761 10.9991 6.36325 10.8675C6.2504 10.7359 6.18799 10.5683 6.18719 10.3948C6.18719 10.0391 6.44741 9.73565 6.80305 9.67739H16.452C16.6229 9.70422 16.7787 9.79113 16.8916 9.92256C17.0044 10.054 17.0669 10.2214 17.0679 10.3948C17.0669 10.5682 17.0044 10.7355 16.8916 10.867C16.7787 10.9984 16.6229 11.0862 16.452 11.113ZM18.075 2.49667H6.9028C6.77162 2.50355 6.64101 2.47489 6.5247 2.41368C6.4084 2.35248 6.31068 2.261 6.24184 2.14885C6.174 2.03758 6.13811 1.9097 6.13811 1.77929C6.13811 1.64889 6.174 1.52101 6.24184 1.40973C6.31068 1.29759 6.4084 1.20611 6.5247 1.1449C6.64101 1.0837 6.77162 1.05503 6.9028 1.06192H18.075C18.2061 1.05503 18.3367 1.0837 18.453 1.1449C18.5694 1.20611 18.6671 1.29759 18.7359 1.40973C18.8747 1.63756 18.8747 1.92103 18.7359 2.14885C18.6671 2.261 18.5694 2.35248 18.453 2.41368C18.3367 2.47489 18.2061 2.50355 18.075 2.49667ZM15.2481 6.80441H0.692188C0.506989 6.79682 0.331803 6.71809 0.202937 6.58453C0.0740704 6.45098 0.00140485 6.27284 0 6.08703C0 5.70443 0.303591 5.38878 0.692188 5.36965H15.2472C15.4324 5.37724 15.6076 5.45597 15.7365 5.58953C15.8653 5.72308 15.938 5.90122 15.9394 6.08703C15.9394 6.46963 15.6358 6.78528 15.2481 6.80441Z" fill="#2FACD6"/>
</svg>
