<svg width="19" height="11" viewBox="0 0 19 11" fill="none" xmlns="http://www.w3.org/2000/svg">
<path d="M16.452 10.113H6.80305C6.63201 10.0862 6.4761 9.99913 6.36325 9.86752C6.2504 9.73591 6.18799 9.56832 6.18719 9.39477C6.18719 9.03912 6.44741 8.73565 6.80305 8.67739H16.452C16.6229 8.70422 16.7787 8.79113 16.8916 8.92256C17.0044 9.05399 17.0669 9.22137 17.0679 9.39477C17.0669 9.56817 17.0044 9.73555 16.8916 9.86698C16.7787 9.99841 16.6229 10.0862 16.452 10.113ZM18.075 1.49667H6.9028C6.77162 1.50355 6.64101 1.47489 6.5247 1.41368C6.4084 1.35248 6.31068 1.261 6.24184 1.14885C6.174 1.03758 6.13811 0.909699 6.13811 0.779292C6.13811 0.648885 6.174 0.521007 6.24184 0.409735C6.31068 0.297589 6.4084 0.206107 6.5247 0.144902C6.64101 0.0836978 6.77162 0.0550313 6.9028 0.0619157H18.075C18.2061 0.0550313 18.3367 0.0836978 18.453 0.144902C18.5694 0.206107 18.6671 0.297589 18.7359 0.409735C18.8747 0.637556 18.8747 0.921029 18.7359 1.14885C18.6671 1.261 18.5694 1.35248 18.453 1.41368C18.3367 1.47489 18.2061 1.50355 18.075 1.49667ZM15.2481 5.80441H0.692188C0.506989 5.79682 0.331803 5.71809 0.202937 5.58453C0.0740704 5.45098 0.00140485 5.27284 0 5.08703C0 4.70443 0.303591 4.38878 0.692188 4.36965H15.2472C15.4324 4.37724 15.6076 4.45597 15.7365 4.58953C15.8653 4.72308 15.938 4.90122 15.9394 5.08703C15.9394 5.46963 15.6358 5.78528 15.2481 5.80441Z" fill="#2FACD6"/>
</svg>
