<svg xmlns="http://www.w3.org/2000/svg" xmlns:xlink="http://www.w3.org/1999/xlink" width="24" height="24" viewBox="0 0 24 24">
  <defs>
    <clipPath id="clip-path">
      <rect id="Rectangle_2337" data-name="Rectangle 2337" width="24" height="24" transform="translate(284 490)" fill="#222" stroke="#707070" stroke-width="1"/>
    </clipPath>
  </defs>
  <g id="Mask_Group_120" data-name="Mask Group 120" transform="translate(-284 -490)" clip-path="url(#clip-path)">
    <g id="copy_3_" data-name="copy (3)" transform="translate(276.772 484.227)">
      <path id="Path_5587" data-name="Path 5587" d="M12.227,29.773h10a3,3,0,0,0,3-3v-14a3,3,0,0,0-3-3h-10a3,3,0,0,0-3,3v14A3,3,0,0,0,12.227,29.773Zm-1-17a1,1,0,0,1,1-1h10a1,1,0,0,1,1,1v14a1,1,0,0,1-1,1h-10a1,1,0,0,1-1-1Z" fill="#222"/>
      <path id="Path_5588" data-name="Path 5588" d="M29.227,18.773v-10a3,3,0,0,0-3-3h-10a1,1,0,0,0,0,2h10a1,1,0,0,1,1,1v10a1,1,0,0,0,2,0Z" fill="#222"/>
    </g>
  </g>
</svg>
