<svg xmlns="http://www.w3.org/2000/svg" xmlns:xlink="http://www.w3.org/1999/xlink" width="24" height="24" viewBox="0 0 24 24">
  <defs>
    <clipPath id="clip-path">
      <rect id="Rectangle_2335" data-name="Rectangle 2335" width="24" height="24" transform="translate(500 362)" fill="#fff" stroke="#707070" stroke-width="1"/>
    </clipPath>
    <radialGradient id="radial-gradient" cx="-0.167" cy="1.618" r="4.136" gradientUnits="objectBoundingBox">
      <stop offset="0" stop-color="#fed576"/>
      <stop offset="0.263" stop-color="#f47133"/>
      <stop offset="0.609" stop-color="#bc3081"/>
      <stop offset="1" stop-color="#4c63d2"/>
    </radialGradient>
    <radialGradient id="radial-gradient-2" cx="-2.854" cy="4.183" r="14.387" xlink:href="#radial-gradient"/>
    <radialGradient id="radial-gradient-3" cx="0.159" cy="1.073" r="2.117" xlink:href="#radial-gradient"/>
  </defs>
  <g id="Mask_Group_117" data-name="Mask Group 117" transform="translate(-500 -362)" clip-path="url(#clip-path)">
    <g id="instagram-icon" transform="translate(497.571 382.941)">
      <path id="Path_5582" data-name="Path 5582" d="M14.439-15.056a6.138,6.138,0,0,0-.625.032,6.112,6.112,0,0,0-.608.093q-.3.061-.587.152l-.563.207-.536.259-.506.308-.473.354-.436.4-.4.436-.354.472-.308.506-.259.536q-.117.275-.207.563t-.152.587a6.1,6.1,0,0,0-.093.607,6.105,6.105,0,0,0-.032.625,6.15,6.15,0,0,0,.032.625,6.074,6.074,0,0,0,.093.607,6.017,6.017,0,0,0,.152.587q.09.288.207.563l.259.536.308.506.354.472.4.436.436.4.473.354.506.308.536.259.563.207.587.152a6.09,6.09,0,0,0,.608.093,6.153,6.153,0,0,0,.625.032,6.158,6.158,0,0,0,.625-.032,6.09,6.09,0,0,0,.608-.093l.587-.152.563-.207.536-.259.506-.308.473-.354.436-.4.4-.436.354-.472.308-.506.259-.536.207-.563q.09-.288.152-.587l.093-.607a6.128,6.128,0,0,0,.032-.625,6.128,6.128,0,0,0-.032-.625,6.072,6.072,0,0,0-.093-.607,6.024,6.024,0,0,0-.152-.587l-.207-.563-.259-.536-.308-.506-.354-.472-.4-.436-.436-.4-.473-.354-.506-.308-.536-.259-.563-.207-.587-.152-.608-.093a6.151,6.151,0,0,0-.625-.032Zm0,2.116a4.111,4.111,0,0,1,.413.021l.4.061.386.1.37.134.352.168.331.2.309.23.285.258.259.285.231.309.2.331.168.351q.076.18.135.37a3.945,3.945,0,0,1,.1.386c.027.131.046.265.061.4l.021.413a4.109,4.109,0,0,1-.021.413,4.04,4.04,0,0,1-.061.4q-.04.2-.1.386l-.135.37L17.974-7l-.2.331-.231.309-.259.285L17-5.821l-.309.23-.331.2-.352.168-.37.134-.386.1-.4.06q-.206.021-.413.021a4.14,4.14,0,0,1-.414-.021l-.4-.06q-.2-.04-.386-.1l-.37-.134-.352-.168-.331-.2-.309-.23-.285-.258-.259-.285L11.1-6.673,10.9-7l-.168-.351-.135-.37-.1-.386-.061-.4a4.123,4.123,0,0,1-.021-.413,4.127,4.127,0,0,1,.021-.414,4.015,4.015,0,0,1,.06-.4q.04-.2.1-.386l.135-.37.168-.351.2-.331.231-.309.259-.285.285-.258.309-.23.331-.2.352-.168q.182-.076.37-.134l.386-.1c.131-.027.265-.047.4-.061s.275-.021.413-.021Z" fill="url(#radial-gradient)"/>
      <path id="Path_5583" data-name="Path 5583" d="M20.826-16.8a1.451,1.451,0,0,0-.146.007,1.453,1.453,0,0,0-.145.022,1.454,1.454,0,0,0-.142.036,1.455,1.455,0,0,0-.137.05,1.457,1.457,0,0,0-.132.064,1.46,1.46,0,0,0-.125.077,1.463,1.463,0,0,0-.116.089q-.056.047-.107.1t-.1.11q-.045.058-.085.12T19.523-16q-.033.066-.06.134t-.046.14q-.02.071-.032.143t-.018.146q0,.052,0,.1,0,.074.007.147t.022.145q.015.072.036.142t.05.138q.028.068.064.132t.076.125q.041.061.088.117t.1.108a1.464,1.464,0,0,0,.11.1,1.462,1.462,0,0,0,.119.086,1.46,1.46,0,0,0,.127.073,1.457,1.457,0,0,0,.133.06,1.455,1.455,0,0,0,.139.046,1.454,1.454,0,0,0,.143.032,1.453,1.453,0,0,0,.145.018q.052,0,.1,0a1.452,1.452,0,0,0,.146-.007,1.453,1.453,0,0,0,.144-.022,1.453,1.453,0,0,0,.142-.036,1.456,1.456,0,0,0,.137-.05,1.458,1.458,0,0,0,.132-.064,1.46,1.46,0,0,0,.125-.077,1.463,1.463,0,0,0,.116-.089,1.465,1.465,0,0,0,.107-.1q.051-.053.1-.11t.085-.12q.039-.062.073-.128t.06-.134q.026-.069.046-.14t.032-.143q.012-.072.018-.146,0-.052,0-.1,0-.073-.007-.147t-.022-.145q-.015-.072-.036-.142t-.05-.138q-.028-.068-.064-.132t-.076-.125q-.041-.061-.088-.117t-.1-.108a1.465,1.465,0,0,0-.11-.1,1.462,1.462,0,0,0-.119-.085,1.458,1.458,0,0,0-.127-.073,1.457,1.457,0,0,0-.133-.06,1.454,1.454,0,0,0-.139-.046,1.452,1.452,0,0,0-.143-.032,1.452,1.452,0,0,0-.145-.018q-.052,0-.1,0Z" fill="url(#radial-gradient-2)"/>
      <path id="Path_5584" data-name="Path 5584" d="M13.275-20.92c-.668,0-1.263,0-1.8.009l-1.435.038c-.425.018-.8.043-1.138.074-.169.016-.328.033-.478.052s-.286.039-.429.063-.264.048-.388.075-.241.056-.355.088-.222.064-.331.1-.212.074-.315.115c-.207.082-.408.174-.615.276-.16.079-.307.159-.447.244a4.848,4.848,0,0,0-.4.272q-.2.152-.387.322c-.129.118-.261.247-.4.392-.172.181-.322.35-.455.515-.067.083-.129.165-.187.247s-.113.164-.166.249-.1.169-.149.257-.094.18-.136.272c-.087.188-.169.39-.251.616q-.091.25-.162.507c-.049.175-.092.358-.131.556s-.072.411-.1.646q-.048.387-.076.776c-.022.285-.039.6-.054.947l-.035,1.16-.019,1.415-.005,1.71.016,2.486.049,1.884.038.736.047.61q.023.247.057.492c.021.145.043.272.067.382q.073.335.173.664t.218.62q.12.3.263.576t.309.533a5.859,5.859,0,0,0,.356.491,5.819,5.819,0,0,0,.4.449,5.923,5.923,0,0,0,.45.408q.24.2.5.368c.159.107.317.2.476.294s.319.171.484.245.334.14.51.2.36.113.554.16.4.089.617.125.45.067.7.094.514.049.8.067.589.033.917.045c.505.018,1.27.029,2.153.033l2.856-.006,2.7-.038,1.028-.029.67-.034c.144-.012.284-.026.42-.042s.27-.035.4-.056.258-.045.383-.071.247-.055.369-.086.241-.066.359-.1.235-.077.352-.12.233-.09.348-.138.231-.1.347-.158c.178-.086.321-.157.447-.227a3.1,3.1,0,0,0,.341-.217,3.963,3.963,0,0,0,.337-.282c.123-.113.262-.25.435-.423.152-.152.28-.283.39-.4s.2-.228.285-.332a3.528,3.528,0,0,0,.217-.308c.065-.1.125-.212.186-.331.092-.18.174-.347.247-.507s.136-.313.195-.473.108-.32.15-.484.081-.346.113-.541.06-.407.083-.644.044-.5.062-.793l.047-.988.04-1.228.029-1.369.011-1.431L26.4-11.636l-.034-1.259-.047-1.081-.058-.843c-.021-.235-.044-.419-.068-.544s-.057-.275-.09-.412-.068-.265-.106-.4-.079-.255-.123-.38-.09-.246-.138-.365-.1-.235-.155-.349-.112-.225-.172-.333-.123-.214-.188-.317-.134-.2-.2-.3-.144-.193-.221-.286-.155-.182-.237-.27-.166-.172-.253-.254-.177-.161-.269-.238-.188-.151-.286-.222-.2-.141-.3-.206-.21-.13-.318-.19S22.91-20,22.8-20.056c-.188-.091-.361-.172-.532-.244s-.338-.135-.512-.19a5.45,5.45,0,0,0-.556-.143c-.2-.041-.418-.075-.665-.1s-.522-.052-.837-.072-.669-.035-1.074-.047l-1.375-.031L15.5-20.906l-2.229-.014Zm1.158,2.115,3.214.018,1.213.023c.334.009.589.02.738.033.195.016.38.037.557.062s.339.053.507.088.315.072.463.116.288.092.423.146a4.206,4.206,0,0,1,.389.178,3.958,3.958,0,0,1,.359.212,4.046,4.046,0,0,1,.334.248q.162.133.315.286a4.23,4.23,0,0,1,.3.33,3.606,3.606,0,0,1,.253.352,3.564,3.564,0,0,1,.211.386,4.067,4.067,0,0,1,.172.43c.051.152.1.314.138.486s.078.368.107.553.057.407.079.631.041.464.056.721c.012.206.023.477.032.8l.023,1.093.017,2.677-.02,2.675-.024,1.09-.032.793c-.022.371-.046.683-.074.955-.014.136-.03.261-.047.379s-.035.222-.057.333-.043.2-.07.3-.054.188-.085.281-.066.185-.1.276-.081.191-.125.286-.08.166-.123.246-.088.156-.137.232-.1.148-.15.219-.107.139-.163.205-.116.13-.177.192-.125.122-.191.179-.135.113-.206.166-.144.1-.22.154-.154.1-.235.141-.164.088-.25.129-.176.08-.265.116-.186.072-.281.1a6.319,6.319,0,0,1-.608.173q-.334.077-.673.126c-.087.013-.287.025-.573.036l-1.09.03-3.09.04L12.027.921,10.757.908,9.932.882,9.324.839C9.135.823,8.96.805,8.8.785S8.478.743,8.333.718,8.061.666,7.926.633s-.244-.065-.364-.1S7.335.448,7.228.4,7.016.3,6.912.248,6.706.132,6.6.066c-.078-.05-.154-.1-.227-.153s-.143-.106-.211-.162-.133-.113-.2-.172S5.847-.541,5.79-.6,5.677-.732,5.624-.8s-.1-.137-.152-.208-.095-.146-.138-.221-.085-.155-.125-.236S5.131-1.63,5.1-1.716s-.069-.176-.1-.269a5.961,5.961,0,0,1-.167-.592c-.048-.21-.089-.433-.124-.67S4.643-3.736,4.62-4c-.016-.2-.03-.5-.04-.892L4.56-6.274l.008-3.513.061-3.357.046-1.183.026-.391a2.236,2.236,0,0,1,.028-.228c.032-.153.064-.295.1-.428s.065-.25.1-.374.074-.226.114-.33.082-.2.13-.3.1-.184.151-.271.113-.172.177-.257.133-.168.208-.252.156-.17.244-.258q.153-.154.319-.3a4.021,4.021,0,0,1,.326-.25,3.387,3.387,0,0,1,.343-.208,3.637,3.637,0,0,1,.371-.171c.13-.051.266-.1.41-.138s.3-.079.459-.109.335-.06.519-.084.38-.045.589-.063c.146-.013.4-.024.729-.033l1.206-.024,3.209-.02Z" fill="url(#radial-gradient-3)"/>
    </g>
  </g>
</svg>
