<svg xmlns="http://www.w3.org/2000/svg" xmlns:xlink="http://www.w3.org/1999/xlink" width="24" height="24" viewBox="0 0 24 24">
  <defs>
    <clipPath id="clip-path">
      <rect id="Rectangle_2340" data-name="Rectangle 2340" width="24" height="24" transform="translate(500 490)" fill="#222" stroke="#707070" stroke-width="1"/>
    </clipPath>
  </defs>
  <g id="Mask_Group_121" data-name="Mask Group 121" transform="translate(-500 -490)" clip-path="url(#clip-path)">
    <g id="code" transform="translate(500 491)">
      <path id="Path_5589" data-name="Path 5589" d="M0,11a.908.908,0,0,1,.3-.7l6-6A.99.99,0,0,1,7.7,5.7L2.4,11l5.3,5.3a.99.99,0,0,1-1.4,1.4l-6-6A.908.908,0,0,1,0,11Z" fill="#222"/>
      <path id="Path_5590" data-name="Path 5590" d="M9,20v-.2l4-18A1.1,1.1,0,0,1,14.2,1,1.1,1.1,0,0,1,15,2.2l-4,18a1.1,1.1,0,0,1-1.2.8A.974.974,0,0,1,9,20Z" fill="#222"/>
      <path id="Path_5591" data-name="Path 5591" d="M24,11a.908.908,0,0,0-.3-.7l-6-6a.99.99,0,0,0-1.4,1.4L21.6,11l-5.3,5.3a.99.99,0,0,0,1.4,1.4l6-6A.908.908,0,0,0,24,11Z" fill="#222"/>
    </g>
  </g>
</svg>
