<svg width="10" height="10" viewBox="0 0 10 10" fill="none" xmlns="http://www.w3.org/2000/svg">
<path d="M1.09032 9.05892C1.17918 9.11828 1.28363 9.14997 1.39049 9.15L1.77312 8.99158L8.99171 1.77299C9.09311 1.67159 9.15007 1.53407 9.15007 1.39067C9.15007 1.24728 9.09311 1.10976 8.99171 1.00836C8.89032 0.906964 8.75279 0.85 8.6094 0.85C8.466 0.85 8.32848 0.906964 8.22708 1.00836L1.0084 8.22705C1.00839 8.22705 1.00839 8.22706 1.00838 8.22706C0.932761 8.30267 0.881261 8.399 0.860394 8.50388C0.839525 8.60876 0.850231 8.71748 0.891158 8.81628C0.932085 8.91508 1.00139 8.99952 1.09032 9.05892Z" fill="#000302" stroke="#000302" stroke-width="0.3"/>
<path d="M8.60958 9.15C8.53851 9.1501 8.46812 9.13615 8.40246 9.10896C8.33685 9.0818 8.27724 9.04194 8.22706 8.99169L8.60958 9.15ZM8.60958 9.15C8.71644 9.14997 8.8209 9.11828 8.90976 9.05892C8.99868 8.99952 9.06799 8.91508 9.10891 8.81628C9.14984 8.71748 9.16055 8.60876 9.13968 8.50388C9.11881 8.399 9.06731 8.30267 8.99169 8.22706C8.99169 8.22706 8.99168 8.22705 8.99168 8.22705L1.77299 1.00836C1.67159 0.906964 1.53407 0.85 1.39067 0.85C1.24728 0.85 1.10976 0.906964 1.00836 1.00836C0.906964 1.10976 0.85 1.24728 0.85 1.39067C0.85 1.53407 0.906964 1.67159 1.00836 1.77299L8.22695 8.99158L8.60938 9L8.60935 9.15C8.60943 9.15 8.6095 9.15 8.60958 9.15Z" fill="#000302" stroke="#000302" stroke-width="0.3"/>
</svg>
