<svg width="160" height="137" viewBox="0 0 160 137" fill="none" xmlns="http://www.w3.org/2000/svg">
<path d="M49.4978 43.7373L59.7686 105.868H131.779L136.633 53.05L49.4978 43.7373Z" fill="#F5F5F5"/>
<path d="M120.927 63.3418C121.428 63.386 121.916 63.5289 122.362 63.7621C122.807 63.9954 123.201 64.3143 123.522 64.7005C123.843 65.0866 124.083 65.5323 124.229 66.0116C124.375 66.4909 124.424 66.9943 124.373 67.4926L121.781 93.0587C121.714 93.684 121.408 94.2599 120.928 94.6685C120.447 95.077 119.828 95.2873 119.196 95.2563C118.565 95.2252 117.97 94.9552 117.532 94.5015C117.094 94.0478 116.847 93.4447 116.842 92.8158L116.788 67.1211C116.787 66.5952 116.896 66.0749 117.108 65.5933C117.32 65.1116 117.631 64.6793 118.02 64.3237C118.41 63.9682 118.869 63.6972 119.37 63.5282C119.87 63.3591 120.401 63.2956 120.927 63.3418Z" fill="#A9AFC4"/>
<path style="mix-blend-mode:multiply" d="M135.089 69.8682L131.779 105.872H112.789C106.51 89.508 117.671 71.6471 135.089 69.8682Z" fill="url(#paint0_linear_505_957)"/>
<path d="M100.755 135.925C104.32 135.925 107.21 133.049 107.21 129.502C107.21 125.955 104.32 123.079 100.755 123.079C97.1902 123.079 94.3003 125.955 94.3003 129.502C94.3003 133.049 97.1902 135.925 100.755 135.925Z" fill="#5E6175"/>
<path d="M100.755 131.817C102.04 131.817 103.081 130.781 103.081 129.502C103.081 128.224 102.04 127.188 100.755 127.188C99.4702 127.188 98.4287 128.224 98.4287 129.502C98.4287 130.781 99.4702 131.817 100.755 131.817Z" fill="#F5F5F5"/>
<path d="M37.2023 135.925C40.7671 135.925 43.657 133.049 43.657 129.502C43.657 125.955 40.7671 123.079 37.2023 123.079C33.6374 123.079 30.7476 125.955 30.7476 129.502C30.7476 133.049 33.6374 135.925 37.2023 135.925Z" fill="#5E6175"/>
<path d="M37.2023 131.817C38.487 131.817 39.5285 130.781 39.5285 129.502C39.5285 128.224 38.487 127.188 37.2023 127.188C35.9175 127.188 34.876 128.224 34.876 129.502C34.876 130.781 35.9175 131.817 37.2023 131.817Z" fill="#F5F5F5"/>
<path d="M37.2025 136.999C35.7114 136.999 34.2538 136.559 33.0141 135.735C31.7743 134.911 30.808 133.739 30.2374 132.368C29.6668 130.998 29.5175 129.489 29.8084 128.034C30.0993 126.579 30.8173 125.242 31.8717 124.193C32.926 123.144 34.2693 122.43 35.7317 122.14C37.1941 121.851 38.7099 121.999 40.0875 122.567C41.465 123.135 42.6424 124.096 43.4708 125.33C44.2992 126.564 44.7414 128.014 44.7414 129.498C44.7414 131.487 43.9471 133.395 42.5333 134.802C41.1195 136.209 39.2019 136.999 37.2025 136.999ZM37.2025 124.139C36.1374 124.139 35.0963 124.454 34.2108 125.042C33.3252 125.631 32.635 126.468 32.2275 127.447C31.8199 128.426 31.7132 129.504 31.921 130.543C32.1288 131.582 32.6417 132.537 33.3948 133.287C34.1478 134.036 35.1073 134.546 36.1519 134.753C37.1965 134.96 38.2792 134.854 39.2632 134.448C40.2472 134.042 41.0882 133.356 41.6799 132.475C42.2716 131.593 42.5874 130.557 42.5874 129.498C42.5845 128.078 42.0159 126.718 41.0064 125.716C39.9968 124.713 38.6288 124.15 37.2025 124.15V124.139Z" fill="#5E6175"/>
<path d="M100.766 136.999C99.2749 136.999 97.8173 136.559 96.5776 135.735C95.3378 134.911 94.3715 133.739 93.8009 132.368C93.2303 130.998 93.081 129.489 93.3719 128.034C93.6628 126.579 94.3808 125.242 95.4351 124.193C96.4895 123.144 97.8328 122.43 99.2952 122.14C100.758 121.851 102.273 121.999 103.651 122.567C105.028 123.135 106.206 124.096 107.034 125.33C107.863 126.564 108.305 128.014 108.305 129.498C108.305 131.487 107.511 133.395 106.097 134.802C104.683 136.209 102.765 136.999 100.766 136.999ZM100.766 124.139C99.7009 124.139 98.6598 124.454 97.7742 125.042C96.8887 125.631 96.1985 126.468 95.7909 127.447C95.3834 128.426 95.2767 129.504 95.4845 130.543C95.6923 131.582 96.2051 132.537 96.9582 133.287C97.7113 134.036 98.6708 134.546 99.7154 134.753C100.76 134.96 101.843 134.854 102.827 134.448C103.811 134.042 104.652 133.356 105.243 132.475C105.835 131.593 106.151 130.557 106.151 129.498C106.148 128.078 105.579 126.718 104.57 125.716C103.56 124.713 102.192 124.15 100.766 124.15V124.139Z" fill="#5E6175"/>
<path d="M40.3911 23.417L44.9622 18.8685L46.4851 20.3838L41.914 24.9323L40.3911 23.417Z" fill="#5E6175"/>
<path d="M34.7576 14.3711H36.9115V20.8046H34.7576V14.3711Z" fill="#5E6175"/>
<path d="M44.7268 28.0127H51.1923V30.156H44.7268V28.0127Z" fill="#5E6175"/>
<path d="M49.4977 43.7373H21.4136L38.2648 105.868H59.7686L49.4977 43.7373Z" fill="#F5F5F5"/>
<path d="M132.763 106.944H58.8533L48.2056 42.5234L137.803 52.0969L132.763 106.944ZM60.6842 104.801H130.796L135.463 54.0044L50.7903 44.9525L60.6842 104.801Z" fill="#5E6175"/>
<path d="M61.036 106.944H37.4393L19.9922 42.666H50.399L61.036 106.944ZM39.0907 104.8H58.5015L48.5825 44.8093H22.8211L39.0907 104.8Z" fill="#5E6175"/>
<path d="M51.9929 44.8098H20.9542L7.28369 30.6211H38.5521L51.9929 44.8098ZM21.8732 42.6665H47.0029L37.6223 32.7644H12.3347L21.8732 42.6665Z" fill="#5E6175"/>
<path d="M35.4576 35.3688H3.58244C2.62218 35.339 1.71127 34.9385 1.0426 34.2521C0.373927 33.5656 0 32.6472 0 31.6912C0 30.7353 0.373927 29.8168 1.0426 29.1304C1.71127 28.444 2.62218 28.0435 3.58244 28.0137H35.4576C36.4178 28.0435 37.3288 28.444 37.9974 29.1304C38.6661 29.8168 39.04 30.7353 39.04 31.6912C39.04 32.6472 38.6661 33.5656 37.9974 34.2521C37.3288 34.9385 36.4178 35.339 35.4576 35.3688ZM3.58244 30.1427C3.18638 30.1617 2.81286 30.3317 2.53932 30.6173C2.26578 30.9029 2.11319 31.2824 2.11319 31.6769C2.11319 32.0715 2.26578 32.4509 2.53932 32.7366C2.81286 33.0222 3.18638 33.1922 3.58244 33.2112H35.4576C35.8536 33.1922 36.2272 33.0222 36.5007 32.7366C36.7743 32.4509 36.9268 32.0715 36.9268 31.6769C36.9268 31.2824 36.7743 30.9029 36.5007 30.6173C36.2272 30.3317 35.8536 30.1617 35.4576 30.1427H3.58244Z" fill="#5E6175"/>
<path d="M35.4574 29.0713H3.58228C2.90449 29.0963 2.26283 29.3817 1.79219 29.8677C1.32155 30.3537 1.05859 31.0023 1.05859 31.6772C1.05859 32.3521 1.32155 33.0007 1.79219 33.4867C2.26283 33.9726 2.90449 34.2581 3.58228 34.2831H35.4574C36.1352 34.2581 36.7769 33.9726 37.2475 33.4867C37.7181 33.0007 37.9811 32.3521 37.9811 31.6772C37.9811 31.0023 37.7181 30.3537 37.2475 29.8677C36.7769 29.3817 36.1352 29.0963 35.4574 29.0713Z" fill="#5E6175"/>
<path d="M60.8457 130.574H37.188V105.869H39.342V128.431H58.6918V105.869H60.8457V130.574Z" fill="#5E6175"/>
<path d="M122.672 130.574H58.6919V105.869H60.8459V128.431H122.672V130.574Z" fill="#5E6175"/>
<path d="M59.7687 135.926C63.3335 135.926 66.2234 133.05 66.2234 129.503C66.2234 125.956 63.3335 123.08 59.7687 123.08C56.2038 123.08 53.314 125.956 53.314 129.503C53.314 133.05 56.2038 135.926 59.7687 135.926Z" fill="#5E6175"/>
<path d="M122.675 135.926C126.24 135.926 129.13 133.05 129.13 129.503C129.13 125.956 126.24 123.08 122.675 123.08C119.111 123.08 116.221 125.956 116.221 129.503C116.221 133.05 119.111 135.926 122.675 135.926Z" fill="#5E6175"/>
<path d="M59.7689 137C58.2778 137 56.8203 136.56 55.5805 135.736C54.3407 134.912 53.3744 133.74 52.8038 132.369C52.2332 130.999 52.084 129.49 52.3748 128.035C52.6657 126.58 53.3837 125.243 54.4381 124.194C55.4924 123.145 56.8357 122.431 58.2981 122.141C59.7605 121.852 61.2763 122 62.6539 122.568C64.0314 123.136 65.2088 124.097 66.0372 125.331C66.8656 126.565 67.3078 128.015 67.3078 129.499C67.3078 131.488 66.5135 133.396 65.0997 134.803C63.6859 136.21 61.7683 137 59.7689 137ZM59.7689 124.14C58.7038 124.14 57.6627 124.455 56.7772 125.043C55.8916 125.632 55.2014 126.469 54.7939 127.448C54.3863 128.427 54.2796 129.505 54.4874 130.544C54.6952 131.583 55.2081 132.538 55.9612 133.288C56.7143 134.037 57.6738 134.547 58.7183 134.754C59.7629 134.961 60.8456 134.855 61.8296 134.449C62.8136 134.043 63.6546 133.357 64.2463 132.476C64.838 131.594 65.1538 130.558 65.1538 129.499C65.1509 128.079 64.5823 126.719 63.5728 125.717C62.5632 124.714 61.1952 124.151 59.7689 124.151V124.14Z" fill="#5E6175"/>
<path d="M122.665 137C121.174 137 119.716 136.56 118.476 135.736C117.236 134.912 116.27 133.74 115.7 132.369C115.129 130.999 114.98 129.49 115.271 128.035C115.561 126.58 116.279 125.243 117.334 124.194C118.388 123.145 119.731 122.431 121.194 122.141C122.656 121.852 124.172 122 125.55 122.568C126.927 123.136 128.105 124.097 128.933 125.331C129.761 126.565 130.204 128.015 130.204 129.499C130.204 131.488 129.409 133.396 127.995 134.803C126.582 136.21 124.664 137 122.665 137ZM122.665 124.14C121.6 124.14 120.558 124.455 119.673 125.043C118.787 125.632 118.097 126.469 117.69 127.448C117.282 128.427 117.175 129.505 117.383 130.544C117.591 131.583 118.104 132.538 118.857 133.288C119.61 134.037 120.57 134.547 121.614 134.754C122.659 134.961 123.741 134.855 124.725 134.449C125.709 134.043 126.55 133.357 127.142 132.476C127.734 131.594 128.05 130.558 128.05 129.499C128.047 128.079 127.478 126.719 126.469 125.717C125.459 124.714 124.091 124.151 122.665 124.151V124.14Z" fill="#5E6175"/>
<path d="M59.7472 131.817C61.032 131.817 62.0735 130.781 62.0735 129.502C62.0735 128.224 61.032 127.188 59.7472 127.188C58.4624 127.188 57.4209 128.224 57.4209 129.502C57.4209 130.781 58.4624 131.817 59.7472 131.817Z" fill="#F5F5F5"/>
<path d="M122.675 131.817C123.96 131.817 125.002 130.781 125.002 129.502C125.002 128.224 123.96 127.188 122.675 127.188C121.391 127.188 120.349 128.224 120.349 129.502C120.349 130.781 121.391 131.817 122.675 131.817Z" fill="#F5F5F5"/>
<path d="M72.5058 58.68C73.5974 58.7765 74.6131 59.2763 75.3527 60.081C76.0923 60.8857 76.5021 61.9369 76.5014 63.0274V92.7836C76.4728 93.3991 76.2168 93.9824 75.7825 94.4216C75.3482 94.8609 74.7662 95.1251 74.1482 95.1636C73.5302 95.2021 72.9196 95.0122 72.4337 94.6304C71.9477 94.2485 71.6206 93.7015 71.515 93.0944L67.7671 63.5739C67.6852 62.9273 67.7499 62.2706 67.9564 61.6521C68.1629 61.0335 68.506 60.4689 68.9604 59.9995C69.4149 59.5302 69.9692 59.168 70.5827 58.9397C71.1962 58.7114 71.8533 58.6227 72.5058 58.68Z" fill="#A9AFC4"/>
<path d="M97.9728 61.2812C98.5491 61.3324 99.1096 61.4961 99.6222 61.763C100.135 62.0299 100.589 62.3948 100.96 62.8367C101.331 63.2786 101.611 63.7889 101.783 64.3385C101.955 64.888 102.017 65.466 101.965 66.0393L99.495 92.9914C99.4807 93.6546 99.2022 94.2849 98.7209 94.7438C98.2395 95.2027 97.5946 95.4525 96.9281 95.4383C96.2617 95.4241 95.6282 95.147 95.167 94.668C94.7058 94.1891 94.4548 93.5474 94.469 92.8842L93.1838 65.8643C93.152 65.2383 93.2556 64.6129 93.4876 64.0302C93.7196 63.4475 94.0746 62.9211 94.5286 62.4866C94.9825 62.0522 95.5249 61.7197 96.1191 61.5118C96.7133 61.3038 97.3455 61.2252 97.9728 61.2812Z" fill="#A9AFC4"/>
<path d="M4.35791 134.856H122.675V137H4.35791V134.856Z" fill="#5E6175"/>
<path d="M77.8622 40.109V37.9657C78.4905 38.0101 79.122 37.9704 79.7397 37.8478L80.2674 39.9232C79.4786 40.0983 78.6687 40.1608 77.8622 40.109ZM74.2722 40.109H72.1183V37.9657H74.2722V40.109ZM83.7712 37.5013L82.0014 36.2832C82.3244 35.821 82.5424 35.2945 82.6404 34.74L84.7621 35.0972C84.6134 35.9613 84.2751 36.7822 83.7712 37.5013ZM82.1342 32.043C81.8398 31.5622 81.4457 31.1493 80.9782 30.8321L82.1916 29.046C82.9181 29.5359 83.5302 30.1755 83.9866 30.9214L82.1342 32.043ZM78.1853 30.1569H76.0313V28.0136H78.1853V30.1569ZM72.4414 30.1569C71.6595 30.1976 70.8755 30.1617 70.1007 30.0498L70.4848 27.9386C71.1332 28.0245 71.7883 28.0496 72.4414 28.0136V30.1569ZM66.4066 28.0779C65.8129 27.467 65.3393 26.751 65.0102 25.9668L66.9954 25.1416C67.2209 25.6794 67.546 26.1702 67.9539 26.5883L66.4066 28.0779ZM66.7656 22.291L64.6655 21.8159C64.8545 20.9864 65.1992 20.1998 65.6815 19.4976L67.4765 20.705C67.1321 21.1801 66.8811 21.7158 66.7369 22.2839L66.7656 22.291ZM69.7273 18.9439L68.9555 16.9256C69.7506 16.6352 70.5929 16.4935 71.4398 16.5076V18.651C70.846 18.6385 70.2553 18.7379 69.6986 18.9439H69.7273ZM92.2902 18.6581V16.5148C92.9339 16.5568 93.5802 16.5293 94.218 16.4326L94.6559 18.5331C93.8651 18.6646 93.0618 18.7066 92.2614 18.6581H92.2902ZM88.7002 18.6581H86.5463V16.5148H88.7002V18.6581ZM82.9563 18.6581H80.8023V16.5148H82.9563V18.6581ZM77.2124 18.6581H75.0584V16.5148H77.2124V18.6581ZM98.2531 16.2576L96.5335 14.9645C96.8805 14.5188 97.1255 14.0031 97.2515 13.4534L99.3552 13.9107C99.1632 14.7633 98.7872 15.5641 98.2531 16.2576ZM97.3269 10.117C97.3269 10.0813 97.1581 10.0956 99.4808 10.0956L97.3269 10.117Z" fill="#A9AFC4"/>
<path style="mix-blend-mode:multiply" d="M98.3857 8.87301C98.3857 8.21064 98.5169 7.55475 98.7716 6.94279C99.0263 6.33084 99.3997 5.7748 99.8704 5.30643C100.341 4.83806 100.9 4.46653 101.515 4.21305C102.13 3.95957 102.789 3.8291 103.455 3.8291H107.357C107.357 4.49178 107.226 5.14796 106.971 5.76015C106.716 6.37234 106.342 6.92853 105.871 7.39695C105.4 7.86537 104.841 8.23682 104.225 8.49009C103.61 8.74336 102.95 8.87348 102.284 8.87301H98.3857Z" fill="url(#paint1_linear_505_957)"/>
<path style="mix-blend-mode:multiply" d="M98.3858 8.87301C98.3858 8.21064 98.2547 7.55475 98 6.94279C97.7452 6.33084 97.3718 5.7748 96.9011 5.30643C96.4304 4.83806 95.8716 4.46653 95.2566 4.21305C94.6416 3.95957 93.9825 3.8291 93.3168 3.8291H89.4146C89.4146 4.49178 89.5458 5.14796 89.8007 5.76015C90.0557 6.37234 90.4294 6.92853 90.9005 7.39695C91.3716 7.86537 91.9308 8.23682 92.5462 8.49009C93.1616 8.74336 93.8212 8.87348 94.4871 8.87301H98.3858Z" fill="url(#paint2_linear_505_957)"/>
<path d="M102.284 9.94503H97.3086V8.87337C97.3105 7.25201 97.9586 5.69759 99.1108 4.55111C100.263 3.40463 101.825 2.7597 103.455 2.75781H108.434V3.82946C108.432 5.45145 107.783 7.00641 106.63 8.15299C105.477 9.29958 103.914 9.94408 102.284 9.94503ZM99.6098 7.80172H102.284C103.159 7.80481 104.01 7.52291 104.708 6.99912C105.406 6.47532 105.913 5.73845 106.151 4.90112H103.473C102.599 4.89822 101.748 5.18025 101.05 5.70408C100.353 6.2279 99.8467 6.96468 99.6098 7.80172Z" fill="#5E6175"/>
<path d="M99.4626 9.94503H94.487C92.8569 9.94408 91.2938 9.29958 90.1409 8.15299C88.9879 7.00641 88.3393 5.45145 88.3374 3.82946V2.75781H93.3167C94.9461 2.7597 96.5082 3.40463 97.6604 4.55111C98.8126 5.69759 99.4607 7.25201 99.4626 8.87337V9.94503ZM90.6386 4.90112C90.8753 5.7355 91.3793 6.47022 92.0738 6.99372C92.7684 7.51722 93.6157 7.80091 94.487 7.80172H97.1758C96.9398 6.96763 96.4365 6.23301 95.7426 5.70948C95.0486 5.18594 94.2019 4.90212 93.331 4.90112H90.6386Z" fill="#5E6175"/>
<path style="mix-blend-mode:multiply" d="M125.178 11.3953C124.706 10.9264 124.331 10.3696 124.076 9.75667C123.82 9.14372 123.689 8.48665 123.689 7.82308C123.689 7.1595 123.82 6.50244 124.076 5.88949C124.331 5.27654 124.706 4.71972 125.178 4.25091L127.938 1.50391C128.41 1.97296 128.784 2.52985 129.039 3.14277C129.294 3.75569 129.426 4.41264 129.426 5.07608C129.426 5.73952 129.294 6.39647 129.039 7.00939C128.784 7.62231 128.41 8.1792 127.938 8.64825L125.178 11.3953Z" fill="url(#paint3_linear_505_957)"/>
<path style="mix-blend-mode:multiply" d="M125.178 11.395C124.707 10.925 124.147 10.552 123.531 10.2976C122.915 10.0431 122.255 9.91211 121.588 9.91211C120.921 9.91211 120.26 10.0431 119.644 10.2976C119.028 10.552 118.469 10.925 117.998 11.395L115.241 14.1385C115.711 14.6089 116.271 14.9823 116.887 15.237C117.503 15.4917 118.164 15.6229 118.831 15.6229C119.498 15.6229 120.158 15.4917 120.774 15.237C121.391 14.9823 121.95 14.6089 122.421 14.1385L125.178 11.395Z" fill="url(#paint4_linear_505_957)"/>
<path d="M125.177 12.9098L124.416 12.1525C123.845 11.5846 123.392 10.9102 123.083 10.168C122.774 9.42571 122.615 8.63011 122.615 7.82663C122.615 7.02316 122.774 6.22756 123.083 5.4853C123.392 4.74304 123.845 4.06867 124.416 3.50073L127.938 0L128.699 0.7573C129.27 1.32524 129.724 1.99961 130.033 2.74187C130.342 3.48413 130.501 4.27973 130.501 5.0832C130.501 5.88668 130.342 6.68228 130.033 7.42454C129.724 8.1668 129.27 8.84117 128.699 9.40911L125.177 12.9098ZM127.834 3.1328L125.942 5.0189C125.326 5.63302 124.929 6.43102 124.812 7.2909C124.694 8.15078 124.863 9.02524 125.292 9.78061L127.184 7.89808C127.801 7.28392 128.2 6.48577 128.318 5.62538C128.437 4.76499 128.269 3.88961 127.841 3.1328H127.834Z" fill="#5E6175"/>
<path d="M114.497 14.8965L113.736 14.1392L117.254 10.6385C117.825 10.0701 118.503 9.61925 119.249 9.31164C119.995 9.00403 120.794 8.8457 121.602 8.8457C122.409 8.8457 123.209 9.00403 123.955 9.31164C124.701 9.61925 125.379 10.0701 125.949 10.6385L126.71 11.3958L123.189 14.8965C122.619 15.4656 121.941 15.9171 121.196 16.2252C120.45 16.5333 119.65 16.6919 118.843 16.6919C118.036 16.6919 117.236 16.5333 116.49 16.2252C115.745 15.9171 115.067 15.4656 114.497 14.8965ZM116.885 14.0392C117.644 14.4647 118.523 14.6308 119.387 14.5121C120.25 14.3934 121.051 13.9964 121.667 13.3819L123.558 11.4994C122.799 11.0746 121.92 10.9085 121.057 11.0266C120.194 11.1446 119.393 11.5402 118.777 12.1531L116.885 14.0392Z" fill="#5E6175"/>
<path d="M137.811 44.8093L137.764 42.666C138.345 42.6559 138.919 42.5346 139.455 42.3088L140.306 44.2771C139.516 44.6124 138.669 44.7931 137.811 44.8093ZM104.155 43.7377H102.001V41.5944H104.155V43.7377ZM133.794 43.5841C133.094 43.0907 132.496 42.4686 132.031 41.7516L133.826 40.5906C134.143 41.0776 134.55 41.5006 135.025 41.8373L133.794 43.5841ZM143.454 41.4979L141.594 40.4263C141.887 39.9271 142.079 39.3764 142.162 38.8045L144.294 39.1081C144.172 39.9514 143.887 40.763 143.454 41.4979ZM104.155 38.0222H102.001C101.955 37.2184 102.026 36.4122 102.213 35.6288L104.299 36.1611C104.162 36.7716 104.114 37.3982 104.155 38.0222ZM133.119 37.7686H130.965C131.001 37.1666 130.936 36.5628 130.771 35.9825L132.831 35.3574C133.061 36.1397 133.158 36.9546 133.119 37.7686ZM144.362 35.3788H142.208V33.2355H144.362V35.3788ZM105.839 33.7713L104.482 32.1067C105.148 31.5688 105.912 31.1638 106.732 30.9136L107.364 32.9604C106.808 33.131 106.29 33.4063 105.839 33.7713ZM129.119 33.6463C128.653 33.3012 128.124 33.05 127.561 32.9069L128.1 30.8314C128.932 31.0415 129.714 31.413 130.401 31.9245L129.119 33.6463ZM124.255 32.764H122.101V30.6207H124.255V32.764ZM118.511 32.764H116.357V30.6207H118.511V32.764ZM112.767 32.764H110.613V30.6207H112.767V32.764ZM144.359 29.6633H142.205V27.52H144.359V29.6633ZM144.359 23.9478H142.205V21.8045H144.359V23.9478ZM141.989 18.5896C141.813 18.0385 141.532 17.5266 141.16 17.0821L142.815 15.7104C143.365 16.3678 143.782 17.1247 144.043 17.9394L141.989 18.5896ZM138.758 15.5747C138.138 15.4475 137.502 15.4043 136.87 15.4461V13.3028C137.674 13.2564 138.481 13.3201 139.268 13.4921L138.758 15.5747ZM133.28 15.4461H131.126V13.3028H133.28V15.4461Z" fill="#A9AFC4"/>
<path d="M26.3787 103.779C25.8407 103.779 25.3108 103.647 24.836 103.395C24.3612 103.143 23.9561 102.779 23.6563 102.334C23.3566 101.89 23.1714 101.378 23.1172 100.846C23.0631 100.313 23.1415 99.7751 23.3457 99.2798C23.5499 98.7844 23.8735 98.3466 24.2879 98.0052C24.7024 97.6637 25.1949 97.429 25.7221 97.3219C26.2493 97.2147 26.7949 97.2383 27.3108 97.3906C27.8266 97.543 28.2968 97.8194 28.6799 98.1953C29.1445 98.6489 29.4627 99.23 29.5939 99.8644C29.725 100.499 29.6632 101.158 29.4162 101.757C29.1692 102.356 28.7483 102.869 28.2073 103.229C27.6663 103.589 27.0296 103.78 26.3787 103.779ZM26.3787 99.3992C26.1562 99.3992 25.9387 99.4649 25.7537 99.5881C25.5688 99.7113 25.4248 99.8863 25.3399 100.091C25.2551 100.296 25.2333 100.521 25.2772 100.738C25.3212 100.955 25.4289 101.154 25.5868 101.31C25.7446 101.466 25.9455 101.572 26.164 101.615C26.3824 101.657 26.6085 101.634 26.8137 101.548C27.0189 101.462 27.1939 101.318 27.3165 101.133C27.4391 100.948 27.5038 100.732 27.5024 100.51C27.5005 100.215 27.3813 99.9323 27.1707 99.7241C26.9602 99.516 26.6755 99.3992 26.3787 99.3992Z" fill="#5E6175"/>
<path d="M14.9842 120.717C14.101 120.717 13.2376 120.457 12.5028 119.97C11.768 119.482 11.1947 118.789 10.8551 117.978C10.5155 117.167 10.4249 116.273 10.5946 115.411C10.7643 114.549 11.1868 113.756 11.8087 113.132C12.4307 112.508 13.2244 112.081 14.0897 111.905C14.955 111.73 15.8533 111.813 16.6712 112.144C17.4891 112.475 18.1902 113.04 18.686 113.768C19.1818 114.495 19.4501 115.352 19.4572 116.231C19.4615 116.818 19.349 117.4 19.1261 117.944C18.9033 118.488 18.5745 118.983 18.1588 119.4C17.7431 119.817 17.2485 120.148 16.7037 120.374C16.1589 120.6 15.5745 120.717 14.9842 120.717ZM14.9842 113.962C14.5247 113.962 14.0756 114.098 13.6939 114.352C13.3121 114.607 13.0149 114.968 12.8399 115.391C12.6649 115.814 12.6201 116.279 12.711 116.727C12.802 117.175 13.0246 117.586 13.3508 117.908C13.6769 118.23 14.0918 118.448 14.5428 118.535C14.9939 118.622 15.4607 118.574 15.8842 118.397C16.3076 118.219 16.6685 117.921 16.9212 117.539C17.1738 117.157 17.3068 116.709 17.3033 116.252C17.2976 115.643 17.0509 115.062 16.6167 114.633C16.1825 114.204 15.5958 113.963 14.9842 113.962Z" fill="#5E6175"/>
<path d="M137.857 117.364C149.492 117.364 158.923 107.98 158.923 96.4029C158.923 84.8262 149.492 75.4414 137.857 75.4414C126.223 75.4414 116.792 84.8262 116.792 96.4029C116.792 107.98 126.223 117.364 137.857 117.364Z" fill="#F5F5F5"/>
<path d="M137.857 118.439C133.477 118.439 129.195 117.148 125.552 114.727C121.91 112.306 119.071 108.864 117.394 104.838C115.717 100.811 115.278 96.38 116.132 92.105C116.987 87.8301 119.095 83.9032 122.193 80.8209C125.29 77.7387 129.236 75.6395 133.532 74.7889C137.828 73.9384 142.281 74.3745 146.328 76.0423C150.375 77.7102 153.834 80.5347 156.267 84.1587C158.701 87.7827 160 92.0434 160 96.402C159.994 102.244 157.66 107.845 153.508 111.977C149.357 116.108 143.728 118.432 137.857 118.439ZM137.857 76.5121C133.903 76.5114 130.037 77.6776 126.749 79.8633C123.46 82.0489 120.897 85.1558 119.384 88.791C117.87 92.4262 117.474 96.4264 118.245 100.286C119.017 104.145 120.921 107.69 123.717 110.472C126.513 113.255 130.076 115.149 133.954 115.917C137.833 116.684 141.853 116.29 145.506 114.784C149.159 113.278 152.282 110.728 154.478 107.456C156.675 104.184 157.847 100.337 157.846 96.402C157.839 91.1289 155.731 86.0737 151.984 82.345C148.237 78.6164 143.157 76.5187 137.857 76.5121Z" fill="#5E6175"/>
<path d="M131.148 95.1702C131.354 95.375 131.611 95.4672 131.879 95.4672C132.147 95.4672 132.404 95.3648 132.61 95.1702C133.011 94.7707 133.011 94.1255 132.61 93.7261L130.551 91.6777L132.61 89.6294C133.011 89.23 133.011 88.5847 132.61 88.1853C132.208 87.7859 131.56 87.7859 131.158 88.1853L129.1 90.2337L127.041 88.1853C126.64 87.7859 125.992 87.7859 125.59 88.1853C125.189 88.5847 125.189 89.23 125.59 89.6294L127.649 91.6777L125.59 93.7261C125.189 94.1255 125.189 94.7707 125.59 95.1702C125.796 95.375 126.053 95.4672 126.321 95.4672C126.589 95.4672 126.846 95.3648 127.052 95.1702L129.11 93.1218L131.169 95.1702H131.148Z" fill="#5E6175"/>
<path d="M150.097 88.1746C149.696 87.7751 149.047 87.7751 148.646 88.1746L146.587 90.2229L144.529 88.1746C144.127 87.7751 143.479 87.7751 143.077 88.1746C142.676 88.574 142.676 89.2192 143.077 89.6187L145.136 91.667L143.077 93.7154C142.676 94.1148 142.676 94.76 143.077 95.1594C143.283 95.3643 143.541 95.4564 143.808 95.4564C144.076 95.4564 144.333 95.354 144.539 95.1594L146.598 93.1111L148.656 95.1594C148.862 95.3643 149.119 95.4564 149.387 95.4564C149.654 95.4564 149.912 95.354 150.118 95.1594C150.519 94.76 150.519 94.1148 150.118 93.7154L148.059 91.667L150.118 89.6187C150.519 89.2192 150.519 88.574 150.118 88.1746H150.097Z" fill="#5E6175"/>
<path d="M131.045 102.842C130.592 103.18 130.489 103.825 130.829 104.275C131.169 104.726 131.817 104.829 132.27 104.491C136.017 101.725 139.65 101.725 143.396 104.491C143.582 104.624 143.798 104.695 144.014 104.695C144.333 104.695 144.642 104.552 144.837 104.286C145.177 103.835 145.084 103.19 144.621 102.852C140.113 99.5233 135.543 99.5233 131.045 102.852V102.842Z" fill="#5E6175"/>
<defs>
<linearGradient id="paint0_linear_505_957" x1="111.022" y1="87.8683" x2="135.089" y2="87.8683" gradientUnits="userSpaceOnUse">
<stop stop-color="#CACFDD"/>
<stop offset="1" stop-color="#EEF0F1"/>
</linearGradient>
<linearGradient id="paint1_linear_505_957" x1="98.3857" y1="6.35106" x2="107.357" y2="6.35106" gradientUnits="userSpaceOnUse">
<stop stop-color="#CACFDD"/>
<stop offset="1" stop-color="#EEF0F1"/>
</linearGradient>
<linearGradient id="paint2_linear_505_957" x1="89.4146" y1="6.35106" x2="98.3858" y2="6.35106" gradientUnits="userSpaceOnUse">
<stop stop-color="#CACFDD"/>
<stop offset="1" stop-color="#EEF0F1"/>
</linearGradient>
<linearGradient id="paint3_linear_505_957" x1="123.846" y1="9.2821" x2="130.184" y2="2.91258" gradientUnits="userSpaceOnUse">
<stop stop-color="#CACFDD"/>
<stop offset="1" stop-color="#EEF0F1"/>
</linearGradient>
<linearGradient id="paint4_linear_505_957" x1="117.476" y1="15.62" x2="123.814" y2="9.25043" gradientUnits="userSpaceOnUse">
<stop stop-color="#CACFDD"/>
<stop offset="1" stop-color="#EEF0F1"/>
</linearGradient>
</defs>
</svg>
