<svg xmlns="http://www.w3.org/2000/svg" width="78.644" height="80" viewBox="0 0 78.644 80">
  <g id="jigsaw" transform="translate(-4.338)">
    <path id="Path_39125" data-name="Path 39125" d="M383.186,349.56V333.4a5.426,5.426,0,0,0-2.313-4.443l-10.2-7.138a4.068,4.068,0,0,0-2.334-.735h-8.209l.136,23.2a5.663,5.663,0,0,0,3.932,5.275Z" transform="translate(-300.204 -270.915)" fill="#3e342d"/>
    <path id="Path_39126" data-name="Path 39126" d="M375.05,444.745h-9.492a5.424,5.424,0,0,1-5.424-5.424V433.9h9.492Z" transform="translate(-300.204 -366.101)" fill="#3e332c"/>
    <path id="Path_39127" data-name="Path 39127" d="M39.593,9.492a6.763,6.763,0,0,0-2.712.572V0H12.475A8.135,8.135,0,0,0,4.339,8.136V32.542H14.4a6.779,6.779,0,1,1,12.415,0H36.881V22.48A6.779,6.779,0,1,0,39.593,9.492Z" transform="translate(-0.001)" fill="#24426c"/>
    <path id="Path_39128" data-name="Path 39128" d="M245.145,8.136A8.135,8.135,0,0,0,237.009,0H212.6V10.064a6.779,6.779,0,1,1,0,12.415V32.542h10.064a6.779,6.779,0,1,0,12.415,0h10.065Z" transform="translate(-175.722)" fill="#625737"/>
    <path id="Path_39129" data-name="Path 39129" d="M245.152,57.023c-7.75,10.782-21.742,16.907-32.542,20.2v3.429h10.064a6.779,6.779,0,1,0,12.415,0h10.064Z" transform="translate(-175.73 -48.113)" fill="#fff" opacity="0.242" style="mix-blend-mode: overlay;isolation: isolate"/>
    <path id="Path_39130" data-name="Path 39130" d="M34.169,167.783a6.763,6.763,0,0,1,2.712.572v-11.42H26.818a6.779,6.779,0,1,0-12.415,0H4.339v24.407a8.135,8.135,0,0,0,8.136,8.136H36.881v-8.708a6.779,6.779,0,1,1-2.712-12.988Z" transform="translate(-0.001 -124.393)" fill="#6a3e37"/>
    <path id="Path_39131" data-name="Path 39131" d="M4.338,329.168a8.135,8.135,0,0,0,8.136,8.136H36.88V328.6a6.75,6.75,0,0,1-9.467-5.966,59.3,59.3,0,0,1-23.075,5.132v1.406Z" transform="translate(0 -272.219)" fill="#fff" opacity="0.242" style="mix-blend-mode: overlay;isolation: isolate"/>
    <path id="Path_39132" data-name="Path 39132" d="M216.18,265.9,207.6,242.983l-9.422,3.548a6.788,6.788,0,1,1-11.622,4.378l-9.421,3.548,4.014,10.724a6.715,6.715,0,0,0-2.739.418,6.8,6.8,0,0,0,4.766,12.733,6.727,6.727,0,0,0,2.339-1.494l3.059,8.178,22.85-8.606A8.169,8.169,0,0,0,216.18,265.9Z" transform="translate(-143.211 -205.017)" fill="#426e42"/>
    <path id="Path_39133" data-name="Path 39133" d="M214.553,314.012c-9.356,13.993-26.895,18.88-37.167,20.563a6.734,6.734,0,0,0,10.927,2.2l3.059,8.178,22.85-8.606a8.169,8.169,0,0,0,4.755-10.508Z" transform="translate(-146.009 -264.948)" fill="#fff" opacity="0.103" style="mix-blend-mode: overlay;isolation: isolate"/>
    <path id="Path_39134" data-name="Path 39134" d="M39.593,53.211a6.763,6.763,0,0,0-2.712.572V51.816C26.728,61.162,12.972,66.324,4.339,68.84v7.422H14.4a6.779,6.779,0,1,1,12.415,0H36.881V66.2a6.779,6.779,0,1,0,2.712-12.988Z" transform="translate(-0.001 -43.72)" fill="#fff" opacity="0.242" style="mix-blend-mode: overlay;isolation: isolate"/>
    <path id="Path_39135" data-name="Path 39135" d="M372.618,385.228a3.356,3.356,0,1,0-4.793,4.7c.016.016.031.033.047.047l4.721,4.721a8.135,8.135,0,0,0,8.136,8.136h8.136v-1.356Z" transform="translate(-305.882 -324.187)" fill="#413832"/>
  </g>
</svg>
