<svg width="16" height="16" viewBox="0 0 16 16" fill="none" xmlns="http://www.w3.org/2000/svg">
<path d="M7.59926 16C6.13216 16 4.93872 14.8038 4.93872 13.3333C4.93872 13.1231 5.109 12.9524 5.3188 12.9524C5.5286 12.9524 5.69888 13.1231 5.69888 13.3333C5.69888 14.3832 6.55177 15.2381 7.59926 15.2381C8.64676 15.2381 9.49965 14.3832 9.49965 13.3333C9.49965 13.1231 9.66993 12.9524 9.87973 12.9524C10.0895 12.9524 10.2598 13.1231 10.2598 13.3333C10.2598 14.8038 9.06636 16 7.59926 16Z" fill="black"/>
<path d="M14.0604 13.7143H1.13779C0.509143 13.7143 -0.00244141 13.2015 -0.00244141 12.5714C-0.00244141 12.2369 0.142748 11.9208 0.39664 11.7029C1.59464 10.688 2.27802 9.21143 2.27802 7.648V5.33333C2.27802 2.39238 4.66491 0 7.59911 0C10.5333 0 12.9202 2.39238 12.9202 5.33333V7.648C12.9202 9.21219 13.6036 10.688 14.7955 11.6975C15.0555 11.9208 15.2007 12.2369 15.2007 12.5714C15.2007 13.2015 14.6898 13.7143 14.0604 13.7143ZM7.59911 0.761905C5.08376 0.761905 3.03818 2.81219 3.03818 5.33333V7.648C3.03818 9.43695 2.25674 11.1246 0.893781 12.2796C0.806364 12.3543 0.757714 12.4602 0.757714 12.5714C0.757714 12.7817 0.927988 12.9524 1.13779 12.9524H14.0604C14.2702 12.9524 14.4405 12.7817 14.4405 12.5714C14.4405 12.4602 14.3919 12.3543 14.3075 12.2819C12.9422 11.1246 12.16 9.43619 12.16 7.648V5.33333C12.16 2.81219 10.1145 0.761905 7.59911 0.761905Z" fill="black"/>
</svg>
