<svg width="15" height="16" viewBox="0 0 15 16" fill="none" xmlns="http://www.w3.org/2000/svg">
<path d="M1.11426 12.1763L7.60547 15.9326C7.67823 15.9759 7.7611 15.9991 7.84571 16C7.93031 15.9991 8.01318 15.9759 8.08594 15.9326L14.5868 12.1763C14.6601 12.1338 14.7209 12.0727 14.7631 11.9992C14.8053 11.9256 14.8273 11.8421 14.827 11.7573V4.24463C14.8273 4.15977 14.8053 4.07633 14.7631 4.00276C14.7209 3.92918 14.6601 3.86809 14.5868 3.82566L8.08594 0.0645195C8.0129 0.022252 7.93005 0 7.84571 0C7.76136 0 7.67851 0.022252 7.60547 0.0645195L1.11426 3.82084C1.04094 3.86327 0.980106 3.92437 0.937919 3.99794C0.895732 4.07152 0.873691 4.15496 0.874027 4.23982V11.7573C0.873691 11.8421 0.895732 11.9256 0.937919 11.9992C0.980106 12.0727 1.04094 12.1338 1.11426 12.1763ZM1.83498 5.07777L7.36523 8.27546V14.6853L1.83498 11.4683V5.07777ZM4.76106 2.82397L9.90694 6.25764L7.85531 7.44232L2.31064 4.24463L4.76106 2.82397ZM8.32618 14.6853V8.27546L10.3298 7.13411V8.85817C10.3298 8.98589 10.3804 9.10838 10.4705 9.1987C10.5606 9.28901 10.6828 9.33975 10.8102 9.33975C10.9377 9.33975 11.0599 9.28901 11.15 9.1987C11.2401 9.10838 11.2907 8.98589 11.2907 8.85817V6.56585L13.866 5.07295V11.4683L8.32618 14.6853ZM7.84571 1.03731L13.3856 4.24463L10.8246 5.72308L5.68838 2.2846L7.84571 1.03731Z" fill="black"/>
</svg>
