<svg xmlns="http://www.w3.org/2000/svg" width="16" height="16" viewBox="0 0 16 16">
  <path id="share_4_" data-name="share (4)" d="M12.393,3.936a.686.686,0,0,1,.686-.686h5.486a.686.686,0,0,1,.686.686V9.421a.686.686,0,1,1-1.371,0V5.591L9.906,13.563a.686.686,0,1,1-.97-.97l7.972-7.972h-3.83a.686.686,0,0,1-.686-.686Zm-9.143,0a.686.686,0,0,1,.686-.686H9.421a.686.686,0,0,1,0,1.371h-4.8V17.879H17.879v-4.8a.686.686,0,1,1,1.371,0v5.486a.686.686,0,0,1-.686.686H3.936a.686.686,0,0,1-.686-.686Z" transform="translate(-3.25 -3.25)" fill="#1f7cd9" fill-rule="evenodd"/>
</svg>
