<svg xmlns="http://www.w3.org/2000/svg" xmlns:xlink="http://www.w3.org/1999/xlink" width="20" height="20" viewBox="0 0 20 20">
  <defs>
    <clipPath id="clip-path">
      <rect id="Rectangle_2394" data-name="Rectangle 2394" width="20" height="20" transform="translate(1292 755)" stroke="#707070" stroke-width="1"/>
    </clipPath>
  </defs>
  <g id="Mask_Group_126" data-name="Mask Group 126" transform="translate(-1292 -755)" clip-path="url(#clip-path)">
    <g id="delete_4_" data-name="delete (4)" transform="translate(1289.771 753)">
      <path id="Path_5603" data-name="Path 5603" d="M7.013,5.489h0a.9.9,0,0,0,.88-.722L8.14,3.551A2.043,2.043,0,0,1,10.112,2h4.233a2.033,2.033,0,0,1,1.962,1.506l.254,1.261a.9.9,0,0,0,.879.722h3.268a.75.75,0,0,1,0,1.5H3.75a.75.75,0,0,1,0-1.5Zm8.206,0a2.392,2.392,0,0,1-.128-.427l-.243-1.216a.524.524,0,0,0-.5-.346H10.112a.529.529,0,0,0-.512.392l-.233,1.17a2.38,2.38,0,0,1-.128.427Z" fill-rule="evenodd"/>
      <path id="Path_5604" data-name="Path 5604" d="M12.247,22c-1.355,0-2.676-.015-3.983-.042a2.967,2.967,0,0,1-3.018-2.829c-.315-2.84-.854-9.534-.859-9.6a.749.749,0,0,1,.687-.808.77.77,0,0,1,.808.687c.005.068.543,6.739.855,9.557a1.472,1.472,0,0,0,1.558,1.494c2.5.053,5.051.056,7.8.006a1.5,1.5,0,0,0,1.626-1.507c.31-2.794.85-9.482.856-9.55a.766.766,0,0,1,.807-.687.751.751,0,0,1,.688.808c-.006.068-.548,6.779-.86,9.594a2.976,2.976,0,0,1-3.09,2.842C14.79,21.987,13.5,22,12.247,22Z" fill-rule="evenodd"/>
    </g>
  </g>
</svg>
