<svg xmlns="http://www.w3.org/2000/svg" xmlns:xlink="http://www.w3.org/1999/xlink" width="16" height="16" viewBox="0 0 16 16">
  <defs>
    <clipPath id="clip-path">
      <rect id="Rectangle_2385" data-name="Rectangle 2385" width="16" height="16" transform="translate(168 3760)" fill="#fff" stroke="#707070" stroke-width="1"/>
    </clipPath>
  </defs>
  <g id="Mask_Group_125" data-name="Mask Group 125" transform="translate(-168 -3760)" clip-path="url(#clip-path)">
    <g id="LinkedIn_icon" transform="translate(168 3760)">
      <path id="Path_5601" data-name="Path 5601" d="M1.778,16H14.222A1.778,1.778,0,0,0,16,14.222V1.778A1.778,1.778,0,0,0,14.222,0H1.778A1.778,1.778,0,0,0,0,1.778V14.222A1.778,1.778,0,0,0,1.778,16Z" fill="#007ebb" fill-rule="evenodd"/>
      <path id="Path_5602" data-name="Path 5602" d="M13.778,13.778H11.4V9.734c0-1.109-.421-1.728-1.3-1.728-.955,0-1.453.645-1.453,1.728v4.044H6.363v-7.7H8.651V7.112a2.688,2.688,0,0,1,2.323-1.273c1.634,0,2.8,1,2.8,3.062ZM3.633,5.065A1.422,1.422,0,1,1,5.044,3.644,1.416,1.416,0,0,1,3.633,5.065ZM2.452,13.778H4.838v-7.7H2.452Z" fill="#fff" fill-rule="evenodd"/>
    </g>
  </g>
</svg>
