<svg xmlns="http://www.w3.org/2000/svg" width="9" height="9" viewBox="0 0 9 9">
  <g id="Lineal-Blue" transform="translate(-3 -3)">
    <path id="Path_5499" data-name="Path 5499" d="M5.077,5.077H4.731A1.73,1.73,0,0,0,3,6.808v3.462A1.73,1.73,0,0,0,4.731,12H8.192a1.73,1.73,0,0,0,1.731-1.731V9.923h.346A1.73,1.73,0,0,0,12,8.192V4.731A1.73,1.73,0,0,0,10.269,3H6.808A1.73,1.73,0,0,0,5.077,4.731ZM9.231,6.808v3.462a1.039,1.039,0,0,1-1.038,1.038H4.731a1.039,1.039,0,0,1-1.038-1.038V6.808A1.039,1.039,0,0,1,4.731,5.769H8.192A1.039,1.039,0,0,1,9.231,6.808Zm.692,2.423h.346a1.039,1.039,0,0,0,1.038-1.038V4.731a1.039,1.039,0,0,0-1.038-1.038H6.808A1.039,1.039,0,0,0,5.769,4.731v.346H8.192A1.73,1.73,0,0,1,9.923,6.808Z" fill="#0096ff" fill-rule="evenodd"/>
  </g>
</svg>
