<svg xmlns="http://www.w3.org/2000/svg" xmlns:xlink="http://www.w3.org/1999/xlink" width="16" height="16" viewBox="0 0 16 16">
  <defs>
    <clipPath id="clip-path">
      <rect id="Rectangle_2106" data-name="Rectangle 2106" width="16" height="16" transform="translate(1272 32)" fill="#222"/>
    </clipPath>
  </defs>
  <g id="Mask_Group_19" data-name="Mask Group 19" transform="translate(-1272 -32)" clip-path="url(#clip-path)">
    <path id="globe" d="M3.1,9.231H5.965A10.415,10.415,0,0,1,7.693,3.966c.169-.253.337-.482.5-.686A6.774,6.774,0,0,0,3.1,9.231ZM9.846,3.282l-.078.076A8.516,8.516,0,0,0,8.717,4.649,9.177,9.177,0,0,0,7.2,9.231h5.3a9.178,9.178,0,0,0-1.519-4.582A8.516,8.516,0,0,0,9.924,3.358l-.078-.076Zm2.648,7.18H7.2a9.178,9.178,0,0,0,1.519,4.582,8.522,8.522,0,0,0,1.051,1.291l.078.076.078-.076a8.522,8.522,0,0,0,1.051-1.291,9.178,9.178,0,0,0,1.519-4.582Zm-4.3,5.951c-.163-.2-.331-.433-.5-.686a10.415,10.415,0,0,1-1.728-5.264H3.1A6.774,6.774,0,0,0,8.193,16.412Zm3.306,0c.163-.2.331-.433.5-.686a10.414,10.414,0,0,0,1.728-5.264h2.861A6.774,6.774,0,0,1,11.5,16.412Zm5.089-7.181H13.727A10.415,10.415,0,0,0,12,3.966c-.169-.253-.337-.482-.5-.686A6.774,6.774,0,0,1,16.588,9.231ZM1.846,9.846a8,8,0,1,1,8,8A8,8,0,0,1,1.846,9.846Z" transform="translate(1270.154 30.154)" fill="#222" fill-rule="evenodd"/>
  </g>
</svg>
