<svg xmlns="http://www.w3.org/2000/svg" xmlns:xlink="http://www.w3.org/1999/xlink" width="13" height="13" viewBox="0 0 13 13">
  <defs>
    <clipPath id="clip-path">
      <rect id="Rectangle_2134" data-name="Rectangle 2134" width="13" height="13" transform="translate(1272 32)" fill="#848d97"/>
    </clipPath>
  </defs>
  <g id="Mask_Group_27" data-name="Mask Group 27" transform="translate(-1272 -32)" clip-path="url(#clip-path)">
    <path id="globe" d="M2.869,7.846H5.193A8.462,8.462,0,0,1,6.6,3.569c.137-.205.274-.391.406-.557A5.5,5.5,0,0,0,2.869,7.846ZM8.346,3.013l-.063.062a6.92,6.92,0,0,0-.854,1.049A7.457,7.457,0,0,0,6.194,7.846h4.3A7.457,7.457,0,0,0,9.263,4.124a6.92,6.92,0,0,0-.854-1.049l-.063-.062ZM10.5,8.846h-4.3a7.457,7.457,0,0,0,1.234,3.723,6.924,6.924,0,0,0,.854,1.049l.063.062.063-.062a6.924,6.924,0,0,0,.854-1.049A7.457,7.457,0,0,0,10.5,8.846ZM7,13.681c-.132-.166-.269-.352-.406-.558a8.462,8.462,0,0,1-1.4-4.277H2.869A5.5,5.5,0,0,0,7,13.681Zm2.686,0c.132-.166.269-.352.406-.558a8.462,8.462,0,0,0,1.4-4.277h2.324A5.5,5.5,0,0,1,9.689,13.681Zm4.135-5.835H11.5a8.462,8.462,0,0,0-1.4-4.277c-.137-.205-.274-.391-.406-.557A5.5,5.5,0,0,1,13.824,7.846Zm-11.978.5a6.5,6.5,0,1,1,6.5,6.5A6.5,6.5,0,0,1,1.846,8.346Z" transform="translate(1270.154 30.154)" fill="#848d97" fill-rule="evenodd"/>
  </g>
</svg>
