<svg xmlns="http://www.w3.org/2000/svg" width="14" height="14" viewBox="0 0 14 14">
  <g id="edit_1_" data-name="edit (1)" transform="translate(-2 -2)">
    <path id="Path_5486" data-name="Path 5486" d="M8.393,11.23h2.046a.969.969,0,0,0,.691-.286l5.161-5.161a1.123,1.123,0,0,0,0-1.588l-.837-.837a1.127,1.127,0,0,0-1.588,0L8.729,8.5a.971.971,0,0,0-.285.665Zm2.046,1.031H7.864a.516.516,0,0,1-.516-.529l.065-2.6A2,2,0,0,1,8,7.766l5.137-5.137a2.158,2.158,0,0,1,3.046,0l.837.837a2.154,2.154,0,0,1,0,3.046l-5.161,5.161a2,2,0,0,1-1.419.588Z" transform="translate(-1.651)" fill-rule="evenodd"/>
    <path id="Path_5487" data-name="Path 5487" d="M18.069,8.02a.511.511,0,0,1-.364-.151L14.566,4.73A.515.515,0,0,1,15.295,4L18.433,7.14a.516.516,0,0,1-.364.88Z" transform="translate(-3.86 -0.578)" fill-rule="evenodd"/>
    <path id="Path_5488" data-name="Path 5488" d="M12.035,16.012H5.96A3.832,3.832,0,0,1,2,11.882V6.167a3.832,3.832,0,0,1,3.96-4.13H8.534a.516.516,0,1,1,0,1.031H5.96a2.827,2.827,0,0,0-2.928,3.1v5.715a2.827,2.827,0,0,0,2.928,3.1h6.075a2.827,2.827,0,0,0,2.929-3.1V9.113a.516.516,0,0,1,1.033,0v2.769a3.833,3.833,0,0,1-3.961,4.13Z" transform="translate(0 -0.011)" fill-rule="evenodd"/>
  </g>
</svg>
