<svg xmlns="http://www.w3.org/2000/svg" xmlns:xlink="http://www.w3.org/1999/xlink" width="14" height="14" viewBox="0 0 14 14">
  <defs>
    <clipPath id="clip-path">
      <rect id="Rectangle_2124" data-name="Rectangle 2124" width="14" height="14" transform="translate(1324 113)" fill="#222" stroke="#ddd" stroke-width="1"/>
    </clipPath>
  </defs>
  <g id="Mask_Group_21" data-name="Mask Group 21" transform="translate(-1324 -113)" clip-path="url(#clip-path)">
    <g id="setting_2_" data-name="setting (2)" transform="translate(1322.385 111.385)">
      <path id="Path_5421" data-name="Path 5421" d="M12.729,3.986a.538.538,0,0,1,.538-.538h1.809a.538.538,0,1,1,0,1.077H13.268A.538.538,0,0,1,12.729,3.986ZM2.154,3.447H9.19a.538.538,0,1,1,0,1.077H2.154a.538.538,0,1,1,0-1.077Zm4.608,5.2A.538.538,0,0,1,7.3,8.109h7.776a.538.538,0,0,1,0,1.077H7.3A.538.538,0,0,1,6.762,8.647Zm5.967,4.661a.538.538,0,0,1,.538-.538h1.809a.538.538,0,1,1,0,1.077H13.268A.538.538,0,0,1,12.729,13.309Zm-11.114,0a.538.538,0,0,1,.538-.538H9.19a.538.538,0,1,1,0,1.077H2.154A.538.538,0,0,1,1.615,13.309Z" fill="#222" fill-rule="evenodd"/>
      <path id="Path_5422" data-name="Path 5422" d="M11.114,2.692A1.185,1.185,0,1,0,12.3,3.877,1.185,1.185,0,0,0,11.114,2.692ZM8.852,3.877a2.262,2.262,0,1,1,2.262,2.262A2.262,2.262,0,0,1,8.852,3.877ZM5.083,7.431A1.185,1.185,0,1,0,6.268,8.615,1.185,1.185,0,0,0,5.083,7.431ZM2.821,8.615a2.262,2.262,0,1,1,2.262,2.262A2.262,2.262,0,0,1,2.821,8.615Zm8.292,3.554A1.185,1.185,0,1,0,12.3,13.354,1.185,1.185,0,0,0,11.114,12.169ZM8.852,13.354a2.262,2.262,0,1,1,2.262,2.262A2.262,2.262,0,0,1,8.852,13.354Z" fill="#222" fill-rule="evenodd"/>
    </g>
  </g>
</svg>
