<svg xmlns="http://www.w3.org/2000/svg" width="88" height="54" viewBox="0 0 88 54">
  <g id="Layer_2" data-name="Layer 2" transform="translate(0 0.002)">
    <g id="Layer_2-2" data-name="Layer 2" transform="translate(0 -0.002)">
      <circle id="Ellipse_62" data-name="Ellipse 62" cx="8.18" cy="8.18" r="8.18" transform="translate(0 1.709)" fill="#3780ff"/>
      <path id="Path_285" data-name="Path 285" d="M58.53,72.878,50.35,54.7H66.71Z" transform="translate(-32.046 -34.159)" fill="#38b137"/>
      <path id="Path_286" data-name="Path 286" d="M8.18,72.878,0,54.7H16.36Z" transform="translate(0 -34.159)" fill="#fa3913"/>
      <path id="Path_287" data-name="Path 287" d="M66.36,22.68a8.18,8.18,0,0,0-8.14-8.18H50V30.86h8.22a8.18,8.18,0,0,0,8.14-8.18Z" transform="translate(-31.822 -12.791)" fill="#fcbd06"/>
      <path id="Path_288" data-name="Path 288" d="M108.982,36.134a6.106,6.106,0,0,1-4.479-1.628,6.641,6.641,0,0,1-1.788-4.624,6.408,6.408,0,0,1-.025-.651,5.609,5.609,0,0,1,.025-.622,7.558,7.558,0,0,1,.88-3.31,5.348,5.348,0,0,1,2.148-2.152,6.664,6.664,0,0,1,3.24-.756,6.544,6.544,0,0,1,3.461.851,5.423,5.423,0,0,1,2.113,2.367,8.125,8.125,0,0,1,.727,3.5v.535a.585.585,0,0,1-.178.432.618.618,0,0,1-.458.178h-8.473v.2a4.461,4.461,0,0,0,.363,1.64,2.817,2.817,0,0,0,.942,1.211,2.436,2.436,0,0,0,1.487.458,2.846,2.846,0,0,0,1.985-.727,3.063,3.063,0,0,0,.432-.458,1.224,1.224,0,0,1,.363-.363,1.091,1.091,0,0,1,.418-.062h2.183a.6.6,0,0,1,.423.153.423.423,0,0,1,.141.363,2.148,2.148,0,0,1-.418.992,5.09,5.09,0,0,1-1.145,1.171,6.246,6.246,0,0,1-1.818.927,7.977,7.977,0,0,1-2.545.37Zm-2.8-8.016h5.624v-.076a4.178,4.178,0,0,0-.331-1.731,2.734,2.734,0,0,0-.974-1.156,2.908,2.908,0,0,0-3.054,0,2.629,2.629,0,0,0-.952,1.171,4.3,4.3,0,0,0-.32,1.731Z" transform="translate(-65.357 -17.81)"/>
      <path id="Path_289" data-name="Path 289" d="M148.39,36.117a8.409,8.409,0,0,1-2.606-.363,5.816,5.816,0,0,1-1.771-.891A4.247,4.247,0,0,1,143,33.794a2.106,2.106,0,0,1-.363-.891.5.5,0,0,1,.167-.447.626.626,0,0,1,.418-.163h2.01a.526.526,0,0,1,.178.025.644.644,0,0,1,.2.153l.7.585a3.429,3.429,0,0,0,.876.52,3.756,3.756,0,0,0,2.941-.178,1.243,1.243,0,0,0,.673-1.13,1.268,1.268,0,0,0-.291-.865,2.545,2.545,0,0,0-1.09-.6,20.8,20.8,0,0,0-2.225-.575,9.684,9.684,0,0,1-2.367-.84,3.522,3.522,0,0,1-1.4-1.273,3.479,3.479,0,0,1,.141-3.679,4.406,4.406,0,0,1,1.781-1.487,6.606,6.606,0,0,1,2.938-.585,7.5,7.5,0,0,1,2.395.342,6,6,0,0,1,1.694.854,4.579,4.579,0,0,1,1.029,1.029,1.956,1.956,0,0,1,.363.905.5.5,0,0,1-.153.444.575.575,0,0,1-.407.167h-1.871a.53.53,0,0,1-.229-.051,1.246,1.246,0,0,1-.2-.127q-.276-.258-.611-.535a3.636,3.636,0,0,0-.8-.5,3.043,3.043,0,0,0-1.236-.211,2.269,2.269,0,0,0-1.479.418,1.32,1.32,0,0,0-.509,1.057,1.185,1.185,0,0,0,.244.749,2.183,2.183,0,0,0,.967.611,15.675,15.675,0,0,0,2.24.585,8.241,8.241,0,0,1,2.712.9,3.741,3.741,0,0,1,1.425,1.374,3.558,3.558,0,0,1,.418,1.719,3.407,3.407,0,0,1-.673,2.062,4.4,4.4,0,0,1-1.985,1.436,8.8,8.8,0,0,1-3.232.522Z" transform="translate(-90.775 -17.794)"/>
      <path id="Path_290" data-name="Path 290" d="M182.611,27.867a.607.607,0,0,1-.611-.611V10.409a.607.607,0,0,1,.611-.611h2.062a.582.582,0,0,1,.447.178.618.618,0,0,1,.163.432v8.7l4.275-4.046a3.474,3.474,0,0,1,.407-.32,1.007,1.007,0,0,1,.535-.113h2.367a.527.527,0,0,1,.56.56.639.639,0,0,1-.051.229.519.519,0,0,1-.2.229l-5.242,4.911,5.878,6.311a.691.691,0,0,1,.254.432.527.527,0,0,1-.163.407.571.571,0,0,1-.4.153h-2.417a.977.977,0,0,1-.545-.116,4.133,4.133,0,0,1-.4-.316l-4.875-5.115v4.937a.618.618,0,0,1-.163.432.582.582,0,0,1-.447.178Z" transform="translate(-115.834 -9.798)"/>
      <path id="Path_291" data-name="Path 291" d="M109.218,91.087a7.409,7.409,0,0,1-3.421-.727,4.93,4.93,0,0,1-2.113-2.01,6.987,6.987,0,0,1-.829-3.029c-.018-.306-.025-.68-.025-1.12s0-.814.025-1.12a6.726,6.726,0,0,1,.854-3.043,5.115,5.115,0,0,1,2.138-2,8.182,8.182,0,0,1,6.744,0,5.158,5.158,0,0,1,2.138,2,6.773,6.773,0,0,1,.851,3.043c0,.306.025.68.025,1.12s0,.814-.025,1.12a6.987,6.987,0,0,1-.825,3.029,4.955,4.955,0,0,1-2.113,2.01,7.434,7.434,0,0,1-3.424.727Zm0-2.519a2.606,2.606,0,0,0,2.087-.854,4.111,4.111,0,0,0,.814-2.5c.018-.254.025-.585.025-.992s0-.727-.025-.992a4.053,4.053,0,0,0-.814-2.494,2.948,2.948,0,0,0-4.173,0,4.054,4.054,0,0,0-.816,2.491c0,.254-.025.585-.025.992s0,.727.025.992a4.02,4.02,0,0,0,.814,2.5,2.606,2.606,0,0,0,2.087.854Z" transform="translate(-65.446 -52.059)"/>
      <path id="Path_292" data-name="Path 292" d="M149.29,91.314a.607.607,0,0,1-.611-.611v-12a.618.618,0,0,1,.178-.458.586.586,0,0,1,.432-.178h2.05a.629.629,0,0,1,.447.178.6.6,0,0,1,.189.458v1.043a3.8,3.8,0,0,1,1.545-1.236,5.049,5.049,0,0,1,2.148-.432h1.043a.582.582,0,0,1,.447.178.618.618,0,0,1,.163.432v1.818a.618.618,0,0,1-.167.444.582.582,0,0,1-.447.178h-1.985a2.362,2.362,0,0,0-2.57,2.57v7a.585.585,0,0,1-.178.432.618.618,0,0,1-.458.178Z" transform="translate(-94.627 -52.542)"/>
      <path id="Path_293" data-name="Path 293" d="M181.491,82.867a.607.607,0,0,1-.611-.611V65.409a.607.607,0,0,1,.611-.611h2.062a.57.57,0,0,1,.444.178.6.6,0,0,1,.167.432v8.7l4.275-4.046a3.481,3.481,0,0,1,.407-.32,1.007,1.007,0,0,1,.535-.113h2.367a.527.527,0,0,1,.56.56.641.641,0,0,1-.051.229.52.52,0,0,1-.2.229l-5.242,4.911,5.878,6.311a.691.691,0,0,1,.254.432.527.527,0,0,1-.163.407.571.571,0,0,1-.4.153h-2.417a1,1,0,0,1-.549-.116,4.681,4.681,0,0,1-.392-.316l-4.86-5.115v4.937a.6.6,0,0,1-.167.432.571.571,0,0,1-.444.178Z" transform="translate(-115.122 -44.147)"/>
      <path id="Path_294" data-name="Path 294" d="M222.443,107.906a.607.607,0,0,1-.611-.611v-2.519a.618.618,0,0,1,.178-.458.585.585,0,0,1,.432-.178h2.545a.585.585,0,0,1,.432.178.618.618,0,0,1,.178.458V107.3a.607.607,0,0,1-.611.611Z" transform="translate(-141.185 -69.065)"/>
      <path id="Line_39" data-name="Line 39" d="M0,0H84.521" transform="translate(0 42.813)" stroke="#bcbcbc" stroke-width="1"/>
      <text id="Celebrating_Startups" data-name="Celebrating Startups" transform="translate(0 52)" font-size="7" font-family="Lexend"><tspan x="0" y="0">CELEBRATING STARTUPS</tspan></text>
    </g>
  </g>
</svg>
