<svg xmlns="http://www.w3.org/2000/svg" xmlns:xlink="http://www.w3.org/1999/xlink" width="14" height="14" viewBox="0 0 14 14">
  <defs>
    <clipPath id="clip-path">
      <rect id="Rectangle_2245" data-name="Rectangle 2245" width="14" height="14" transform="translate(1263 271)" stroke="#707070" stroke-width="1"/>
    </clipPath>
  </defs>
  <g id="Mask_Group_73" data-name="Mask Group 73" transform="translate(-1263 -271)" clip-path="url(#clip-path)">
    <path id="share_1_" data-name="share (1)" d="M9.176,2.776a.6.6,0,0,1,.848,0l3.2,3.2a.6.6,0,0,1-.848.849L10.2,4.649V12.8a.6.6,0,1,1-1.2,0V4.649L6.824,6.824a.6.6,0,0,1-.849-.849ZM3.2,9.8a.6.6,0,0,1,.6.6v4a1,1,0,0,0,1,1h9.6a1,1,0,0,0,1-1v-4a.6.6,0,1,1,1.2,0v4a2.2,2.2,0,0,1-2.2,2.2H4.8a2.2,2.2,0,0,1-2.2-2.2v-4A.6.6,0,0,1,3.2,9.8Z" transform="translate(1260.4 268.4)" fill-rule="evenodd"/>
  </g>
</svg>
