<svg xmlns="http://www.w3.org/2000/svg" xmlns:xlink="http://www.w3.org/1999/xlink" width="24" height="24" viewBox="0 0 24 24">
  <defs>
    <clipPath id="clip-path">
      <rect id="Rectangle_2112" data-name="Rectangle 2112" width="24" height="24" transform="translate(61 97)" fill="#555" stroke="#707070" stroke-width="1"/>
    </clipPath>
  </defs>
  <g id="Mask_Group_62" data-name="Mask Group 62" transform="translate(-61 -97)" clip-path="url(#clip-path)">
    <path id="digital" d="M20.737,11.4a.6.6,0,1,1-.591.675A.576.576,0,0,0,20.152,12a.582.582,0,0,0-.006-.079.6.6,0,0,1,.591-.518Zm-1.627.034H10.1a.563.563,0,0,0,0,1.125h9.014a1.722,1.722,0,1,0,0-1.125ZM17.865,21.914a.6.6,0,1,1,.6-.6.6.6,0,0,1-.6.6Zm-1.721-.6a1.721,1.721,0,1,0,2.284-1.627v-3.83a.562.562,0,0,0-.562-.562h-5.67a.562.562,0,1,0,0,1.125H17.3V19.69A1.724,1.724,0,0,0,16.143,21.317Zm.653-6.674h-6.2a.562.562,0,0,1,0-1.125h6.2a.563.563,0,0,1,0,1.125ZM10.03,9.919a.563.563,0,0,1,.562-.562h6.2a.563.563,0,0,1,0,1.125h-6.2A.563.563,0,0,1,10.03,9.919Zm7.834-7.833a.6.6,0,1,1-.6.6.6.6,0,0,1,.6-.6ZM17.3,4.31V7.577H12.195a.563.563,0,1,0,0,1.125h5.67a.562.562,0,0,0,.563-.562V4.31a1.721,1.721,0,1,0-1.125,0ZM2.667,10.583l2-.486a.564.564,0,0,0,.41-.4,8.723,8.723,0,0,1,.852-2.056.563.563,0,0,0-.008-.572L4.851,5.312l2-2L8.612,4.379a.563.563,0,0,0,.572.007,8.726,8.726,0,0,1,2.056-.852.562.562,0,0,0,.4-.41l.486-2h.854V4.792a7.408,7.408,0,0,0,0,14.416v3.667h-.854l-.486-2a.562.562,0,0,0-.4-.41,8.726,8.726,0,0,1-2.056-.852.563.563,0,0,0-.572.007L6.854,20.692l-2-2L5.921,16.93a.563.563,0,0,0,.007-.572A8.719,8.719,0,0,1,5.077,14.3a.563.563,0,0,0-.41-.4l-2-.486Zm-.7,3.822a.562.562,0,0,1-.43-.547V10.141a.562.562,0,0,1,.43-.546l2.113-.513a9.843,9.843,0,0,1,.706-1.7L3.66,5.52a.562.562,0,0,1,.083-.69L6.371,2.2a.563.563,0,0,1,.691-.083L8.918,3.248a9.862,9.862,0,0,1,1.7-.706L11.137.43A.563.563,0,0,1,11.683,0h1.859A.563.563,0,0,1,14.1.562V5.252a.563.563,0,0,1-.469.555,6.283,6.283,0,0,0,0,12.387.563.563,0,0,1,.469.555v4.689a.562.562,0,0,1-.562.563H11.683a.563.563,0,0,1-.547-.43l-.513-2.113a9.844,9.844,0,0,1-1.7-.706L7.062,21.883a.563.563,0,0,1-.691-.083L3.742,19.171a.562.562,0,0,1-.083-.69l1.131-1.857a9.836,9.836,0,0,1-.706-1.7Z" transform="translate(61 97)" fill="#555" fill-rule="evenodd"/>
  </g>
</svg>
