<svg width="23" height="24" viewBox="0 0 23 24" fill="none" xmlns="http://www.w3.org/2000/svg">
<path d="M10.9673 0.0775195L0.220359 5.26574C0.0855937 5.3308 0 5.4672 0 5.61683V18.3831C0 18.5328 0.0856406 18.6692 0.220359 18.7342L10.9673 23.9224C11.1815 24.0259 11.4312 24.0259 11.6453 23.9224L22.3923 18.7342C22.5271 18.6692 22.6127 18.5328 22.6127 18.3831V5.61683C22.6127 5.4672 22.527 5.3308 22.3923 5.26574L11.6453 0.0775195C11.4312 -0.0258398 11.1815 -0.0258398 10.9673 0.0775195Z" fill="#FFE17D"/>
<path d="M0.0648281 5.40344C0.0238593 5.46583 0 5.53929 0 5.61686V18.3832C0 18.5328 0.0856406 18.6692 0.220359 18.7343L10.9673 23.9224C11.0744 23.9741 11.1904 24 11.3063 24V10.8304L0.0648281 5.40344Z" fill="#FFC350"/>
<path d="M22.5479 5.40344C22.5889 5.46583 22.6127 5.53929 22.6127 5.61686V18.3832C22.6127 18.5328 22.5271 18.6692 22.3924 18.7343L11.6454 23.9224C11.5383 23.9741 11.4224 24 11.3064 24V10.8304L22.5479 5.40344Z" fill="#FFD164"/>
<path d="M3.21602 17.7026C3.1593 17.7026 3.10141 17.6901 3.04699 17.6638L1.38776 16.8628C1.1936 16.7691 1.11251 16.5361 1.20616 16.3423C1.29944 16.1485 1.53321 16.0678 1.72662 16.1607L3.38585 16.9618C3.58001 17.0555 3.6611 17.2885 3.56744 17.4823C3.50046 17.6215 3.3611 17.7026 3.21602 17.7026Z" fill="#FFE17D"/>
<path d="M4.74317 16.7086C4.68645 16.7086 4.62856 16.696 4.57413 16.6698L1.39001 15.1327C1.19623 15.0391 1.11476 14.8061 1.20842 14.6123C1.3017 14.4189 1.53584 14.3378 1.72887 14.4307L4.91295 15.9677C5.10673 16.0614 5.1882 16.2944 5.09454 16.4882C5.0276 16.6274 4.88824 16.7086 4.74317 16.7086Z" fill="#FFF6D8"/>
<path d="M18.7383 7.2362L7.45727 1.78638L4.48352 3.22778L15.7899 8.68605L18.7383 7.2362Z" fill="#FF8087"/>
<path d="M15.7899 8.68612V12.9146C15.7899 13.0583 15.9402 13.1526 16.0696 13.0901L18.518 11.9082C18.6528 11.8431 18.7384 11.7067 18.7384 11.5571V7.23633L15.7899 8.68612Z" fill="#E6646E"/>
</svg>
