<svg xmlns="http://www.w3.org/2000/svg" xmlns:xlink="http://www.w3.org/1999/xlink" width="24" height="24" viewBox="0 0 24 24">
  <defs>
    <clipPath id="clip-path">
      <rect id="Rectangle_5227" data-name="Rectangle 5227" width="24" height="24" transform="translate(332 1020)" fill="#fff" stroke="#222" stroke-width="1.5"/>
    </clipPath>
  </defs>
  <g id="Mask_Group_724" data-name="Mask Group 724" transform="translate(-332 -1020)" clip-path="url(#clip-path)">
    <g id="linkedin-02-stroke-rounded" transform="translate(330.604 1018.604)">
      <path id="Path_39242" data-name="Path 39242" d="M5.023,10.6H4.465c-1.052,0-1.579,0-1.906.327s-.327.853-.327,1.906v9.488c0,1.052,0,1.579.327,1.906s.853.327,1.906.327h.558c1.052,0,1.579,0,1.906-.327s.327-.853.327-1.906V12.837c0-1.052,0-1.579-.327-1.906S6.076,10.6,5.023,10.6Z" fill="none" stroke="#222" stroke-width="1.5"/>
      <path id="Path_39243" data-name="Path 39243" d="M7.256,4.744A2.512,2.512,0,1,1,4.744,2.233,2.512,2.512,0,0,1,7.256,4.744Z" fill="none" stroke="#222" stroke-width="1.5"/>
      <path id="Path_39244" data-name="Path 39244" d="M13.759,10.6h-.922c-1.052,0-1.579,0-1.906.327s-.327.853-.327,1.906v9.488c0,1.052,0,1.579.327,1.906s.853.327,1.906.327H13.4c1.052,0,1.579,0,1.906-.327s.327-.853.327-1.906V18.419c0-1.849.589-3.349,2.331-3.349a1.628,1.628,0,0,1,1.576,1.674v5.023c0,1.052,0,1.579.327,1.906s.853.327,1.906.327h.557c1.052,0,1.578,0,1.905-.327s.327-.853.327-1.905l0-6.14a5.334,5.334,0,0,0-5.25-5.023,4.621,4.621,0,0,0-3.68,1.868,2.766,2.766,0,0,0-.153-1.316,1.117,1.117,0,0,0-.4-.4A2.764,2.764,0,0,0,13.759,10.6Z" fill="none" stroke="#222" stroke-linejoin="round" stroke-width="1.5"/>
    </g>
  </g>
</svg>
