<svg id="correct_1_" data-name="correct (1)" xmlns="http://www.w3.org/2000/svg" width="20" height="20" viewBox="0 0 20 20">
  <path id="Path_39193" data-name="Path 39193" d="M10,0A10,10,0,1,0,20,10,10.009,10.009,0,0,0,10,0Z" fill="#fa3a13" fill-rule="evenodd"/>
  <path id="Group_2_" data-name="Group (2)" d="M5.13,4.5,8.865.765a.435.435,0,0,0,0-.63.435.435,0,0,0-.63,0L4.5,3.87.765.135a.435.435,0,0,0-.63,0,.435.435,0,0,0,0,.63L3.87,4.5.135,8.235a.435.435,0,0,0,0,.63.435.435,0,0,0,.63,0L4.5,5.13,8.235,8.865a.445.445,0,0,0,.63-.63Z" transform="translate(6 6)" fill="#fff" stroke="#fff" stroke-width="0.5"/>
</svg>
