<svg width="13" height="16" viewBox="0 0 13 16" fill="none" xmlns="http://www.w3.org/2000/svg">
<path d="M9.26833 13.6766L9.26833 13.6765H9.2659H4.18798V13.6764L4.18556 13.6766C3.87681 13.6916 3.57465 13.5839 3.34489 13.3771C3.11547 13.1707 2.9768 12.882 2.95895 12.574V5.4542C2.95895 5.27218 2.88664 5.09761 2.75793 4.96889C2.62922 4.84018 2.45465 4.76787 2.27262 4.76787C2.0906 4.76787 1.91603 4.84018 1.78731 4.96889C1.6586 5.09761 1.58629 5.27218 1.58629 5.4542V12.5754H1.58627L1.58631 12.5768C1.60484 13.2494 1.88917 13.8872 2.37702 14.3506C2.86473 14.8139 3.51611 15.0651 4.18857 15.0492H9.26531C9.93777 15.0651 10.5892 14.8139 11.0769 14.3506C11.5647 13.8872 11.849 13.2494 11.8676 12.5768L11.8676 12.5768V12.5754V5.4542C11.8676 5.27218 11.7953 5.09761 11.6666 4.96889C11.5379 4.84018 11.3633 4.76787 11.1813 4.76787C10.9992 4.76787 10.8247 4.84018 10.696 4.96889C10.5672 5.09761 10.4949 5.27218 10.4949 5.4542V12.574C10.4771 12.882 10.3384 13.1707 10.109 13.3771C9.87924 13.5839 9.57708 13.6916 9.26833 13.6766Z" fill="#000302" stroke="#000302" stroke-width="0.1"/>
<path d="M11.8176 2.85899H9.32231V1.63633C9.32231 1.4543 9.25 1.27973 9.12129 1.15102C8.99257 1.02231 8.818 0.95 8.63598 0.95H4.81799C4.63596 0.95 4.46139 1.02231 4.33268 1.15102C4.20397 1.27973 4.13166 1.4543 4.13166 1.63633V2.85899H1.63633C1.4543 2.85899 1.27973 2.9313 1.15102 3.06002C1.02231 3.18873 0.95 3.3633 0.95 3.54533C0.95 3.72735 1.02231 3.90192 1.15102 4.03063C1.27973 4.15935 1.4543 4.23166 1.63633 4.23166H11.8176C11.9997 4.23166 12.1742 4.15935 12.3029 4.03063C12.4317 3.90192 12.504 3.72735 12.504 3.54533C12.504 3.3633 12.4317 3.18873 12.3029 3.06002C12.1742 2.9313 11.9997 2.85899 11.8176 2.85899ZM5.50432 2.85899V2.32266H7.94964V2.85899H5.50432Z" fill="#000302" stroke="#000302" stroke-width="0.1"/>
</svg>
