<svg width="62" height="19" viewBox="0 0 62 19" fill="none" xmlns="http://www.w3.org/2000/svg">
<path d="M9.74791 7.89237C9.7161 7.76071 9.72356 7.62164 9.74126 7.54925C9.78618 7.34109 9.9284 7.10891 10.3431 7.10891C10.7277 7.10891 10.9542 7.34644 10.9542 7.70233C10.9542 7.82302 10.9542 8.10669 10.9542 8.10669H12.5945V7.64779C12.5945 6.22655 11.3047 6 10.3749 6C9.20687 6 8.25237 6.38526 8.0778 7.45213C8.0301 7.745 8.02183 8.0027 8.09092 8.3328C8.37573 9.66862 10.7128 10.0549 11.0529 10.9001C11.1166 11.0572 11.0973 11.259 11.0657 11.3826C11.0118 11.6022 10.8634 11.8239 10.4235 11.8239C10.0127 11.8239 9.76695 11.5861 9.76695 11.2289L9.76462 10.6003H8V11.0999C8 12.5606 9.15476 13 10.3906 13C11.5786 13 12.5544 12.5977 12.7136 11.5042C12.7927 10.9406 12.7334 10.5738 12.7067 10.4348C12.4291 9.06333 9.93505 8.65718 9.74791 7.89237ZM31.1345 7.90835C31.1053 7.77928 31.1138 7.64226 31.1289 7.57058C31.1759 7.36144 31.3174 7.13337 31.7249 7.13337C32.1047 7.13337 32.3273 7.36858 32.3273 7.7217C32.3273 7.84087 32.3273 8.12124 32.3273 8.12124H33.9486V7.66582C33.9486 6.25806 32.6783 6.03687 31.7586 6.03687C30.6002 6.03687 29.6543 6.41623 29.4815 7.47552C29.4358 7.76384 29.4245 8.01966 29.4971 8.34628C29.7788 9.66701 32.0932 10.0502 32.429 10.8855C32.4883 11.0436 32.4713 11.2454 32.441 11.3643C32.3907 11.5816 32.2436 11.8003 31.8073 11.8003C31.3981 11.8003 31.1517 11.5666 31.1517 11.2143L31.1513 10.5872H29.4061V11.0858C29.4061 12.5299 30.5447 12.9657 31.7711 12.9657C32.9456 12.9657 33.9156 12.567 34.0713 11.486C34.1455 10.9276 34.0895 10.5637 34.0597 10.4268C33.7878 9.07198 31.3211 8.66459 31.1345 7.90835ZM46.0668 11.4683L44.5182 6.20807H42.0778V12.6735H43.6921L43.5984 7.24486L45.2615 12.6735H47.602V6.20807H45.9771L46.0668 11.4683ZM15.0403 6.20807L13.8221 12.7416H15.5985L16.5165 6.69322L17.4124 12.7416H19.1765L17.9635 6.20807H15.0403ZM24.9732 6.20807L24.1435 11.3153L23.3144 6.20807H20.6316L20.4893 12.7416H22.1329L22.1774 6.69322L23.3083 12.7416H24.9758L26.1076 6.69322L26.1523 12.7416H27.8L27.6528 6.20807H24.9732ZM40.2545 6.20807H38.5913V11.0415C38.5939 11.1257 38.5913 11.2203 38.5766 11.2897C38.542 11.452 38.4036 11.7642 37.9447 11.7642C37.4918 11.7642 37.3497 11.452 37.3177 11.2897C37.301 11.2204 37.299 11.1257 37.301 11.0415V6.20807H35.6383V10.8915C35.6362 11.0122 35.6458 11.2589 35.653 11.3235C35.7677 12.544 36.7358 12.9401 37.9447 12.9401C39.1559 12.9401 40.1234 12.5439 40.2403 11.3235C40.2495 11.2589 40.2616 11.0122 40.2544 10.8915L40.2545 6.20807ZM51.6738 9.0743V10.0272H52.3479V10.9727C52.3499 11.0571 52.3453 11.1482 52.3306 11.2212C52.3039 11.3975 52.1352 11.6977 51.6569 11.6977C51.1813 11.6977 51.0157 11.3975 50.9869 11.2212C50.9749 11.1482 50.9697 11.0571 50.9697 10.9727V7.98655C50.9697 7.88095 50.9769 7.76535 50.9995 7.67788C51.0321 7.51863 51.1742 7.20487 51.6533 7.20487C52.1563 7.20487 52.2818 7.53577 52.3107 7.67788C52.3296 7.77196 52.3307 7.92995 52.3307 7.92995V8.29245H53.9869V8.07813C53.9869 8.07813 53.9943 7.85444 53.9743 7.64574C53.8498 6.42016 52.8335 6.0324 51.6679 6.0324C50.5004 6.0324 49.5046 6.42373 49.3595 7.64574C49.3464 7.7575 49.3263 7.95852 49.3263 8.07813V10.825C49.3263 10.9446 49.3302 11.0373 49.3526 11.2559C49.4607 12.4478 50.5003 12.8703 51.6633 12.8703C52.8334 12.8703 53.8659 12.4478 53.9758 11.2559C53.9953 11.0373 53.9974 10.9446 54 10.825V9.07439L51.6738 9.0743Z" fill="#222222"/>
<rect x="0.5" y="0.5" width="61" height="18" rx="1.5" stroke="#222222"/>
</svg>
