<svg width="16" height="16" viewBox="0 0 16 16" fill="none" xmlns="http://www.w3.org/2000/svg">
<path d="M15.8407 15.057L11.5194 10.7356C11.5192 10.7354 11.5192 10.735 11.5194 10.7348C12.4444 9.64384 12.9819 8.27717 13.0479 6.8484C13.2339 2.9775 10.1536 -0.13838 6.28082 0.0047408C2.86957 0.133859 0.133857 2.86957 0.00473872 6.28082C-0.138351 10.1536 2.97756 13.2339 6.84849 13.0478C8.2772 12.9818 9.64378 12.4443 10.7347 11.5194C10.735 11.5191 10.7353 11.5191 10.7356 11.5194L15.057 15.8407C15.2751 16.0554 15.626 16.0527 15.8407 15.8346C16.0531 15.6189 16.0531 15.2727 15.8407 15.057ZM1.24926 7.78511C0.823834 5.88609 1.37953 4.01192 2.69576 2.69573C4.01198 1.37954 5.88609 0.823804 7.78517 1.24926C9.58189 1.6519 11.4036 3.4735 11.8063 5.27003C12.232 7.16927 11.6762 9.04366 10.3599 10.3599C9.04366 11.6762 7.16918 12.232 5.26994 11.8063C3.4734 11.4036 1.6519 9.58167 1.24926 7.78511Z" fill="#2FACD6"/>
</svg>
