<svg width="32" height="32" viewBox="0 0 32 32" fill="none" xmlns="http://www.w3.org/2000/svg">
<circle cx="16" cy="16" r="15.5" stroke="#222222"/>
<path d="M19.75 22.5455H7.25C6.56083 22.5455 6 21.9949 6 21.3183V13.1365C6 12.4598 6.56083 11.9092 7.25 11.9092H15.5825C15.8125 11.9092 15.9992 12.0925 15.9992 12.3183C15.9992 12.5441 15.8125 12.7274 15.5825 12.7274H7.25C7.02083 12.7274 6.83333 12.9106 6.83333 13.1365V21.3183C6.83333 21.5441 7.02083 21.7274 7.25 21.7274H19.75C19.9792 21.7274 20.1667 21.5441 20.1667 21.3183V17.2274C20.1667 17.0015 20.3533 16.8183 20.5833 16.8183C20.8133 16.8183 21 17.0015 21 17.2274V21.3183C21 21.9949 20.4392 22.5455 19.75 22.5455Z" fill="#222222"/>
<path d="M16.4167 25.0001H10.5834C10.3534 25.0001 10.1667 24.8168 10.1667 24.591C10.1667 24.3652 10.3534 24.1819 10.5834 24.1819H16.4167C16.6467 24.1819 16.8334 24.3652 16.8334 24.591C16.8334 24.8168 16.6467 25.0001 16.4167 25.0001Z" fill="#222222"/>
<path d="M12.2499 25C12.0199 25 11.8333 24.8167 11.8333 24.5909V22.1364C11.8333 21.9106 12.0199 21.7273 12.2499 21.7273C12.4799 21.7273 12.6666 21.9106 12.6666 22.1364V24.5909C12.6666 24.8167 12.4799 25 12.2499 25Z" fill="#222222"/>
<path d="M14.7499 25C14.5199 25 14.3333 24.8167 14.3333 24.5909V22.1364C14.3333 21.9106 14.5199 21.7273 14.7499 21.7273C14.9799 21.7273 15.1666 21.9106 15.1666 22.1364V24.5909C15.1666 24.8167 14.9799 25 14.7499 25Z" fill="#222222"/>
<path d="M25.5834 15.1818C25.3534 15.1818 25.1667 14.9985 25.1667 14.7727C25.1667 10.9379 21.9892 7.81818 18.0834 7.81818C17.8534 7.81818 17.6667 7.63491 17.6667 7.40909C17.6667 7.18327 17.8534 7 18.0834 7C22.4484 7 26.0001 10.4871 26.0001 14.7727C26.0001 14.9985 25.8134 15.1818 25.5834 15.1818Z" fill="#222222"/>
<path d="M23.0834 15.1819C22.8534 15.1819 22.6667 14.9986 22.6667 14.7728C22.6667 12.2912 20.6101 10.2728 18.0834 10.2728C17.8534 10.2728 17.6667 10.0895 17.6667 9.86368C17.6667 9.63786 17.8534 9.45459 18.0834 9.45459C21.0701 9.45459 23.5001 11.8404 23.5001 14.7728C23.5001 14.9986 23.3134 15.1819 23.0834 15.1819Z" fill="#222222"/>
<path d="M20.5834 15.1819C20.3534 15.1819 20.1667 14.9986 20.1667 14.7728C20.1667 13.6454 19.2326 12.7274 18.0834 12.7274C17.8534 12.7274 17.6667 12.5441 17.6667 12.3183C17.6667 12.0925 17.8534 11.9092 18.0834 11.9092C19.6917 11.9092 21.0001 13.1937 21.0001 14.7728C21.0001 14.9986 20.8134 15.1819 20.5834 15.1819Z" fill="#222222"/>
</svg>
