<svg xmlns="http://www.w3.org/2000/svg" xmlns:xlink="http://www.w3.org/1999/xlink" width="24" height="24" viewBox="0 0 24 24">
  <defs>
    <clipPath id="clip-path">
      <rect id="Rectangle_2279" data-name="Rectangle 2279" width="24" height="24" transform="translate(1051 97)" fill="#555" stroke="#0f1116" stroke-width="0.4"/>
    </clipPath>
  </defs>
  <g id="Mask_Group_84" data-name="Mask Group 84" transform="translate(-1051 -97)" clip-path="url(#clip-path)">
    <g id="run" transform="translate(1049.604 95.604)">
      <path id="Path_5520" data-name="Path 5520" d="M20.651,3.07A1.953,1.953,0,1,0,22.6,5.023,1.953,1.953,0,0,0,20.651,3.07ZM17.023,5.023a3.628,3.628,0,1,1,3.628,3.628A3.628,3.628,0,0,1,17.023,5.023Z" fill="#555" stroke="#0f1116" stroke-width="0.4" fill-rule="evenodd"/>
      <path id="Path_5521" data-name="Path 5521" d="M15.131,11.716a.837.837,0,0,1-.056,1.183c-.2.182-.4.36-.6.534-.313.279-.616.548-.891.809-.218.207-.4.387-.526.536a1.722,1.722,0,0,0-.16.207c-.005.008-.005.008,0,0a1.4,1.4,0,0,0,.049,1.085,1.591,1.591,0,0,0,.405.467c.265.236.634.516,1.178.929l.083.063A7.475,7.475,0,0,1,16,18.747a4.186,4.186,0,0,1,.777,1.564,7.471,7.471,0,0,1,.131,1.842v2.4a.837.837,0,0,1-1.674,0v-2.3a6.7,6.7,0,0,0-.079-1.53,2.512,2.512,0,0,0-.466-.938A6.7,6.7,0,0,0,13.52,18.8l-.027-.02c-.51-.387-.933-.706-1.253-.992a3.189,3.189,0,0,1-.8-1,3.07,3.07,0,0,1-.107-2.388,2.5,2.5,0,0,1,.468-.724c.183-.211.406-.434.64-.655.289-.274.631-.578.961-.873.191-.17.379-.337.55-.493a.837.837,0,0,1,1.183.056Z" fill="#555" stroke="#0f1116" stroke-width="0.4" fill-rule="evenodd"/>
      <g id="Group_159" data-name="Group 159">
        <path id="Path_5522" data-name="Path 5522" d="M10.582,18.334a.837.837,0,0,1,.107,1.179L9.573,20.853l-.108.129A6.231,6.231,0,0,1,7.488,22.82a6.231,6.231,0,0,1-2.678.343H3.349a.837.837,0,0,1,0-1.674H4.642A5.4,5.4,0,0,0,6.777,21.3c.354-.166.636-.475,1.509-1.523L9.4,18.441A.837.837,0,0,1,10.582,18.334Z" fill="#555" stroke="#0f1116" stroke-width="0.4" fill-rule="evenodd"/>
        <path id="Path_5523" data-name="Path 5523" d="M15.278,7.436l.006,0a5.954,5.954,0,0,1,3.066,2.832,4.138,4.138,0,0,0,3.7,2.287h1.39a.837.837,0,0,1,0,1.674h-1.39a5.812,5.812,0,0,1-5.2-3.213,4.28,4.28,0,0,0-2.206-2.033,5.675,5.675,0,0,0-2.925-.737c-1.275.093-2.448.737-5.241,2.324l-1.6.911a.837.837,0,0,1-.827-1.456l1.6-.911.192-.109C8.384,7.567,9.9,6.7,11.6,6.58a7.247,7.247,0,0,1,3.677.856Z" fill="#555" stroke="#0f1116" stroke-width="0.4" fill-rule="evenodd"/>
      </g>
    </g>
  </g>
</svg>
