<svg xmlns="http://www.w3.org/2000/svg" xmlns:xlink="http://www.w3.org/1999/xlink" width="24.186" height="24" viewBox="0 0 24.186 24">
  <defs>
    <clipPath id="clip-path">
      <rect id="Rectangle_2278" data-name="Rectangle 2278" width="24" height="24" transform="translate(941 97)" fill="#555" stroke="#555" stroke-width="0.3"/>
    </clipPath>
  </defs>
  <g id="Group_352" data-name="Group 352" transform="translate(-941 -97)">
    <path id="Path_5514" data-name="Path 5514" d="M53.487,77.114c-1.226.151-2.453.189-3.686.377-3,.458-6.765,3.214-6.782,6.521-.021,4.319,4.9,7.123,7.647,8,1.751.561,2.776,2.243,4.343,3.105a4.537,4.537,0,0,0,3.893-.093,5.582,5.582,0,0,0,2.9-6.8c-1.136-3.779,2.542-5.1,1.037-8.36-1.436-3.107-4.611-3.824-7.683-3.056A13.751,13.751,0,0,1,53.487,77.114Z" transform="translate(901.98 25.469)" fill="rgba(56,128,255,0.16)" style="mix-blend-mode: multiply;isolation: isolate"/>
    <g id="Mask_Group_83" data-name="Mask Group 83" clip-path="url(#clip-path)">
      <path id="telecommunication" d="M22.635,7.348a5.8,5.8,0,0,1-2.72,3.544l-.328-.569a5.181,5.181,0,0,0-5.181-8.974L14.077.781a5.838,5.838,0,0,1,8.557,6.567Zm-1.724-.462a4.053,4.053,0,0,0-5.942-4.559l.328.569a3.4,3.4,0,1,1,3.4,5.883l.328.569A4.026,4.026,0,0,0,20.911,6.886Zm-2.428.157a1.777,1.777,0,0,1-.891.239,1.8,1.8,0,0,1-.707-.146L15.367,8.949c1.359,2.867,2,5.775.732,6.506a7.715,7.715,0,0,1-3.871,1.04,7.978,7.978,0,0,1-5.657-2.365l1.964,5.76h.3A1.473,1.473,0,0,1,10.3,21.362v2.31A.328.328,0,0,1,9.973,24H1.492a.328.328,0,0,1-.328-.328v-2.31a1.473,1.473,0,0,1,1.471-1.471H2.8l2.149-8.175a7.85,7.85,0,0,1-.371-5.135A7.756,7.756,0,0,1,8.217,1.8h0c.692-.4,1.709-.012,2.942,1.122A16.51,16.51,0,0,1,13.49,5.69l2.326-.407a1.787,1.787,0,1,1,2.667,1.759ZM6.182,4.59a14.734,14.734,0,0,0,1,3.724A15.381,15.381,0,0,1,8.462,7.219a14.693,14.693,0,0,1-.745-2.306,5.958,5.958,0,0,1-.168-1.846A7.043,7.043,0,0,0,6.182,4.59Zm6.487,11.235a7.042,7.042,0,0,0,2-.422,5.955,5.955,0,0,1-1.515-1.069,14.68,14.68,0,0,1-1.625-1.8,15.158,15.158,0,0,1-1.587.556,14.739,14.739,0,0,0,2.725,2.732Zm-1.545-3.832a23.5,23.5,0,0,1-1.3-2.014A23.513,23.513,0,0,1,8.729,7.843,13.965,13.965,0,0,0,7.463,8.968a20.43,20.43,0,0,0,2.055,3.559,13.929,13.929,0,0,0,1.605-.534Zm-2.3.692c-.348-.5-.681-1.017-.993-1.558s-.6-1.089-.852-1.638c-.966,1.117-1.385,2.134-1.042,2.731h0c.345.6,1.437.742,2.887.464Zm-3.491-1.81A6.432,6.432,0,0,1,6.686,8.824,16.6,16.6,0,0,1,5.662,5.517a7.343,7.343,0,0,0-.446,1.232A7.211,7.211,0,0,0,5.335,10.875Zm3.5,9.673h-6.2a.816.816,0,0,0-.815.815v1.981H9.645V21.362a.816.816,0,0,0-.815-.815Zm-.989-.656L5.38,12.672l-1.9,7.22Zm2.474-4.309a7.348,7.348,0,0,0,1.289.23,16.61,16.61,0,0,1-2.354-2.543,8.468,8.468,0,0,1-1.412.2q-.146.007-.285.007a4.4,4.4,0,0,1-.753-.06A7.212,7.212,0,0,0,10.316,15.582ZM14.9,9.5l-1.262,1.507-.5-.421,1.453-1.735c-.206-.412-.429-.827-.668-1.241s-.487-.816-.741-1.2l-2.23.391-.113-.647,1.936-.339a15.386,15.386,0,0,0-2.062-2.406,3.512,3.512,0,0,0-1.9-1.1.522.522,0,0,0-.265.063h0c-.4.228-.467,1.147-.188,2.4a18.277,18.277,0,0,0,2.034,4.88,18.263,18.263,0,0,0,3.209,4.2c.943.867,1.775,1.264,2.17,1.036s.467-1.146.187-2.4A15.393,15.393,0,0,0,14.9,9.5Zm1.432-2.732a1.784,1.784,0,0,1-.477-.828l-1.973.346q.31.483.606,1c.194.335.38.678.557,1.023Zm2.231-1.84a1.123,1.123,0,0,0-.686-.527,1.135,1.135,0,0,0-.294-.039,1.132,1.132,0,1,0,.981.566Z" transform="translate(941 97)" fill="#555" stroke="#555" stroke-width="0.3"/>
    </g>
  </g>
</svg>
