<svg xmlns="http://www.w3.org/2000/svg" width="20" height="20" viewBox="0 0 20 20">
  <g id="Layer_19" transform="translate(-2.1 -2.1)">
    <path id="Path_5596" data-name="Path 5596" d="M15.747,13.6a.648.648,0,0,0-.647.647v6.2a.647.647,0,0,0,1.295,0v-6.2a.647.647,0,0,0-.647-.647Z" transform="translate(-3.647 -3.226)" fill="#222"/>
    <path id="Path_5597" data-name="Path 5597" d="M14.993,9.14a.915.915,0,1,0,1.3,0,.964.964,0,0,0-1.3,0Z" transform="translate(-3.543 -1.904)" fill="#222"/>
    <path id="Path_5598" data-name="Path 5598" d="M12.1,2.1a10,10,0,1,0,10,10,10.011,10.011,0,0,0-10-10Zm0,18.705A8.705,8.705,0,1,1,20.805,12.1,8.715,8.715,0,0,1,12.1,20.805Z" fill="#222"/>
  </g>
</svg>
