<svg width="42" height="42" viewBox="0 0 42 42" fill="none" xmlns="http://www.w3.org/2000/svg">
<path d="M21 0C9.40203 0 0 9.40203 0 21C0 32.598 9.40203 42 21 42C32.598 42 42 32.598 42 21C41.9877 9.40721 32.5929 0.0123926 21 0ZM29.8439 21.6691C29.6985 21.9607 29.4622 22.1972 29.1705 22.3425V22.35L17.1705 28.35C16.4294 28.7203 15.5285 28.4198 15.1582 27.6787C15.0529 27.4681 14.9986 27.2355 15 27V15.0001C14.9996 14.1716 15.6708 13.4998 16.4993 13.4993C16.7323 13.4992 16.9621 13.5534 17.1705 13.6575L29.1705 19.6576C29.9119 20.0271 30.2135 20.9277 29.8439 21.6691Z" fill="white"/>
</svg>
