<svg width="16" height="15" viewBox="0 0 16 15" fill="none" xmlns="http://www.w3.org/2000/svg">
<path d="M8 14.5C7.77222 14.5 7.55261 14.4159 7.38147 14.2632C6.73511 13.6875 6.11194 13.1465 5.56213 12.6693L5.55933 12.6668C3.94739 11.2676 2.55542 10.0592 1.58691 8.86883C0.504272 7.53811 0 6.27639 0 4.89803C0 3.55885 0.450806 2.32337 1.26929 1.41901C2.09753 0.503966 3.23401 0 4.46973 0C5.39331 0 6.23914 0.297431 6.98364 0.883961C7.35938 1.18002 7.69995 1.54236 8 1.96501C8.30017 1.54236 8.64062 1.18002 9.01648 0.883961C9.76099 0.297431 10.6068 0 11.5304 0C12.766 0 13.9026 0.503966 14.7308 1.41901C15.5493 2.32337 16 3.55885 16 4.89803C16 6.27639 15.4958 7.53811 14.4132 8.86871C13.4447 10.0592 12.0529 11.2674 10.4412 12.6665C9.89038 13.1445 9.26624 13.6864 8.61841 14.2635C8.44739 14.4159 8.22766 14.5 8 14.5ZM4.46973 0.954713C3.4989 0.954713 2.60706 1.34938 1.95825 2.0661C1.2998 2.79364 0.937134 3.79933 0.937134 4.89803C0.937134 6.05729 1.36011 7.09407 2.30847 8.25967C3.2251 9.38635 4.5885 10.5699 6.16711 11.9403L6.17004 11.9427C6.72192 12.4218 7.34753 12.965 7.99866 13.5449C8.65369 12.9639 9.28027 12.4198 9.83325 11.94C11.4117 10.5696 12.775 9.38635 13.6917 8.25967C14.6399 7.09407 15.0629 6.05729 15.0629 4.89803C15.0629 3.79933 14.7002 2.79364 14.0417 2.0661C13.3931 1.34938 12.5011 0.954713 11.5304 0.954713C10.8192 0.954713 10.1663 1.185 9.58972 1.6391C9.07593 2.04397 8.71802 2.55577 8.50818 2.91388C8.40027 3.09803 8.21033 3.20795 8 3.20795C7.78967 3.20795 7.59973 3.09803 7.49182 2.91388C7.2821 2.55577 6.92419 2.04397 6.41028 1.6391C5.83374 1.185 5.18079 0.954713 4.46973 0.954713Z" fill="#2FACD6"/>
</svg>
