<svg xmlns="http://www.w3.org/2000/svg" width="13" height="9.102" viewBox="0 0 13 9.102">
  <path id="youtube_3_" data-name="youtube (3)" d="M12.732,1.2A1.629,1.629,0,0,0,11.586.05,38.052,38.052,0,0,0,6.5-.228,39.534,39.534,0,0,0,1.413.04,1.662,1.662,0,0,0,.268,1.2,17.161,17.161,0,0,0,0,4.323,17.1,17.1,0,0,0,.268,7.45,1.629,1.629,0,0,0,1.414,8.6,38.121,38.121,0,0,0,6.5,8.874a39.534,39.534,0,0,0,5.086-.268A1.629,1.629,0,0,0,12.732,7.46,17.166,17.166,0,0,0,13,4.334,16.29,16.29,0,0,0,12.732,1.2ZM5.2,6.272v-3.9L8.588,4.323Zm0,0" transform="translate(0 0.228)" fill="#fff"/>
</svg>
