<svg width="26" height="26" viewBox="0 0 26 26" fill="none" xmlns="http://www.w3.org/2000/svg">
<path d="M19.4531 6H15.412C15.11 6 14.8652 6.24484 14.8652 6.54688C14.8652 6.84891 15.11 7.09375 15.412 7.09375H18.1328L13.7491 11.4776C13.5355 11.6911 13.5355 12.0374 13.7491 12.2509C13.9626 12.4645 14.3089 12.4645 14.5224 12.2509L18.9062 7.86714V10.5879C18.9062 10.89 19.1511 11.1348 19.4531 11.1348C19.7552 11.1348 20 10.89 20 10.5879V6.54688C20 6.24924 19.7581 6 19.4531 6Z" fill="#222222"/>
<path d="M12.2509 13.749C12.0374 13.5355 11.6911 13.5355 11.4776 13.749L7.09375 18.1328V15.4121C7.09375 15.11 6.84891 14.8652 6.54687 14.8652C6.24484 14.8652 6 15.11 6 15.4121V19.4531C6 19.7502 6.24207 20 6.54687 20H10.588C10.89 20 11.1348 19.7552 11.1348 19.4531C11.1348 19.1511 10.89 18.9062 10.588 18.9062H7.86714L12.2509 14.5224C12.4645 14.3089 12.4645 13.9626 12.2509 13.749Z" fill="#222222"/>
<circle cx="13" cy="13" r="12.5" stroke="#222222"/>
</svg>
